%
M48
M72
T01C0.02362
T02C0.02756
T03C0.04000
T04C0.07874
%
T01
X73091Y78815
X64248Y122122
X58343Y108343
X97713Y108343
X103618Y122122
X137083Y108343
X142988Y122122
X176453Y108343
X182358Y122122
X215823Y108343
X221728Y122122
X230571Y78815
X191201Y78815
X151831Y78815
X112461Y78815
X68185Y198894
X107555Y198894
X146925Y198894
X186295Y198894
X225665Y198894
T02
X232358Y143776
X218972Y143776
X192988Y143776
X179602Y143776
X153618Y143776
X140232Y143776
X114248Y143776
X100862Y143776
X74878Y143776
X61492Y143776
T03
X67937Y51228
X67937Y61228
X67937Y71228
X107307Y71228
X107307Y61228
X107307Y51228
X146677Y51228
X146677Y61228
X146677Y71228
X186047Y71228
X186047Y61228
X186047Y51228
X225417Y51228
X225417Y61228
X225417Y71228
X225665Y101374
X225665Y111374
X186295Y111374
X186295Y101374
X146925Y101374
X146925Y111374
X68185Y111374
X68185Y101374
X107555Y101374
X107555Y111374
T04
X68185Y31571
X68185Y189051
M30
