G75*
%MOIN*%
%OFA0B0*%
%FSLAX25Y25*%
%IPPOS*%
%LPD*%
%AMOC8*
5,1,8,0,0,1.08239X$1,22.5*
%
%ADD10C,0.00500*%
%ADD11C,0.00000*%
%ADD12C,0.01600*%
%ADD13C,0.00200*%
%ADD14C,0.00300*%
%ADD15C,0.00400*%
%ADD16R,0.00886X0.00984*%
%ADD17C,0.00600*%
%ADD18C,0.00800*%
D10*
X0048500Y0017791D02*
X0048500Y0210705D01*
X0050469Y0210705D01*
X0245350Y0210705D01*
X0245350Y0017791D01*
X0048500Y0017791D01*
X0052437Y0021728D02*
X0083933Y0021728D01*
X0083933Y0206768D01*
X0091807Y0206768D02*
X0091807Y0021728D01*
X0123303Y0021728D01*
X0123303Y0206768D01*
X0131177Y0206768D02*
X0131177Y0021728D01*
X0162673Y0021728D01*
X0162673Y0206768D01*
X0170547Y0206768D02*
X0170547Y0021728D01*
X0202043Y0021728D01*
X0202043Y0206768D01*
X0209917Y0206768D02*
X0209917Y0021728D01*
X0241413Y0021728D01*
X0241413Y0206768D01*
X0209917Y0206768D01*
X0202043Y0206768D02*
X0170547Y0206768D01*
X0162673Y0206768D02*
X0131177Y0206768D01*
X0123303Y0206768D02*
X0091807Y0206768D01*
X0083933Y0206768D02*
X0052437Y0206768D01*
X0052437Y0021728D01*
D11*
X0064248Y0031571D02*
X0064250Y0031696D01*
X0064256Y0031821D01*
X0064266Y0031945D01*
X0064280Y0032069D01*
X0064297Y0032193D01*
X0064319Y0032316D01*
X0064345Y0032438D01*
X0064374Y0032560D01*
X0064407Y0032680D01*
X0064445Y0032799D01*
X0064485Y0032918D01*
X0064530Y0033034D01*
X0064578Y0033149D01*
X0064630Y0033263D01*
X0064686Y0033375D01*
X0064745Y0033485D01*
X0064807Y0033593D01*
X0064873Y0033700D01*
X0064942Y0033804D01*
X0065015Y0033905D01*
X0065090Y0034005D01*
X0065169Y0034102D01*
X0065251Y0034196D01*
X0065336Y0034288D01*
X0065423Y0034377D01*
X0065514Y0034463D01*
X0065607Y0034546D01*
X0065703Y0034627D01*
X0065801Y0034704D01*
X0065901Y0034778D01*
X0066004Y0034849D01*
X0066109Y0034916D01*
X0066217Y0034981D01*
X0066326Y0035041D01*
X0066437Y0035099D01*
X0066550Y0035152D01*
X0066664Y0035202D01*
X0066780Y0035249D01*
X0066897Y0035291D01*
X0067016Y0035330D01*
X0067136Y0035366D01*
X0067257Y0035397D01*
X0067379Y0035425D01*
X0067501Y0035448D01*
X0067625Y0035468D01*
X0067749Y0035484D01*
X0067873Y0035496D01*
X0067998Y0035504D01*
X0068123Y0035508D01*
X0068247Y0035508D01*
X0068372Y0035504D01*
X0068497Y0035496D01*
X0068621Y0035484D01*
X0068745Y0035468D01*
X0068869Y0035448D01*
X0068991Y0035425D01*
X0069113Y0035397D01*
X0069234Y0035366D01*
X0069354Y0035330D01*
X0069473Y0035291D01*
X0069590Y0035249D01*
X0069706Y0035202D01*
X0069820Y0035152D01*
X0069933Y0035099D01*
X0070044Y0035041D01*
X0070154Y0034981D01*
X0070261Y0034916D01*
X0070366Y0034849D01*
X0070469Y0034778D01*
X0070569Y0034704D01*
X0070667Y0034627D01*
X0070763Y0034546D01*
X0070856Y0034463D01*
X0070947Y0034377D01*
X0071034Y0034288D01*
X0071119Y0034196D01*
X0071201Y0034102D01*
X0071280Y0034005D01*
X0071355Y0033905D01*
X0071428Y0033804D01*
X0071497Y0033700D01*
X0071563Y0033593D01*
X0071625Y0033485D01*
X0071684Y0033375D01*
X0071740Y0033263D01*
X0071792Y0033149D01*
X0071840Y0033034D01*
X0071885Y0032918D01*
X0071925Y0032799D01*
X0071963Y0032680D01*
X0071996Y0032560D01*
X0072025Y0032438D01*
X0072051Y0032316D01*
X0072073Y0032193D01*
X0072090Y0032069D01*
X0072104Y0031945D01*
X0072114Y0031821D01*
X0072120Y0031696D01*
X0072122Y0031571D01*
X0072120Y0031446D01*
X0072114Y0031321D01*
X0072104Y0031197D01*
X0072090Y0031073D01*
X0072073Y0030949D01*
X0072051Y0030826D01*
X0072025Y0030704D01*
X0071996Y0030582D01*
X0071963Y0030462D01*
X0071925Y0030343D01*
X0071885Y0030224D01*
X0071840Y0030108D01*
X0071792Y0029993D01*
X0071740Y0029879D01*
X0071684Y0029767D01*
X0071625Y0029657D01*
X0071563Y0029549D01*
X0071497Y0029442D01*
X0071428Y0029338D01*
X0071355Y0029237D01*
X0071280Y0029137D01*
X0071201Y0029040D01*
X0071119Y0028946D01*
X0071034Y0028854D01*
X0070947Y0028765D01*
X0070856Y0028679D01*
X0070763Y0028596D01*
X0070667Y0028515D01*
X0070569Y0028438D01*
X0070469Y0028364D01*
X0070366Y0028293D01*
X0070261Y0028226D01*
X0070153Y0028161D01*
X0070044Y0028101D01*
X0069933Y0028043D01*
X0069820Y0027990D01*
X0069706Y0027940D01*
X0069590Y0027893D01*
X0069473Y0027851D01*
X0069354Y0027812D01*
X0069234Y0027776D01*
X0069113Y0027745D01*
X0068991Y0027717D01*
X0068869Y0027694D01*
X0068745Y0027674D01*
X0068621Y0027658D01*
X0068497Y0027646D01*
X0068372Y0027638D01*
X0068247Y0027634D01*
X0068123Y0027634D01*
X0067998Y0027638D01*
X0067873Y0027646D01*
X0067749Y0027658D01*
X0067625Y0027674D01*
X0067501Y0027694D01*
X0067379Y0027717D01*
X0067257Y0027745D01*
X0067136Y0027776D01*
X0067016Y0027812D01*
X0066897Y0027851D01*
X0066780Y0027893D01*
X0066664Y0027940D01*
X0066550Y0027990D01*
X0066437Y0028043D01*
X0066326Y0028101D01*
X0066216Y0028161D01*
X0066109Y0028226D01*
X0066004Y0028293D01*
X0065901Y0028364D01*
X0065801Y0028438D01*
X0065703Y0028515D01*
X0065607Y0028596D01*
X0065514Y0028679D01*
X0065423Y0028765D01*
X0065336Y0028854D01*
X0065251Y0028946D01*
X0065169Y0029040D01*
X0065090Y0029137D01*
X0065015Y0029237D01*
X0064942Y0029338D01*
X0064873Y0029442D01*
X0064807Y0029549D01*
X0064745Y0029657D01*
X0064686Y0029767D01*
X0064630Y0029879D01*
X0064578Y0029993D01*
X0064530Y0030108D01*
X0064485Y0030224D01*
X0064445Y0030343D01*
X0064407Y0030462D01*
X0064374Y0030582D01*
X0064345Y0030704D01*
X0064319Y0030826D01*
X0064297Y0030949D01*
X0064280Y0031073D01*
X0064266Y0031197D01*
X0064256Y0031321D01*
X0064250Y0031446D01*
X0064248Y0031571D01*
X0064248Y0189051D02*
X0064250Y0189176D01*
X0064256Y0189301D01*
X0064266Y0189425D01*
X0064280Y0189549D01*
X0064297Y0189673D01*
X0064319Y0189796D01*
X0064345Y0189918D01*
X0064374Y0190040D01*
X0064407Y0190160D01*
X0064445Y0190279D01*
X0064485Y0190398D01*
X0064530Y0190514D01*
X0064578Y0190629D01*
X0064630Y0190743D01*
X0064686Y0190855D01*
X0064745Y0190965D01*
X0064807Y0191073D01*
X0064873Y0191180D01*
X0064942Y0191284D01*
X0065015Y0191385D01*
X0065090Y0191485D01*
X0065169Y0191582D01*
X0065251Y0191676D01*
X0065336Y0191768D01*
X0065423Y0191857D01*
X0065514Y0191943D01*
X0065607Y0192026D01*
X0065703Y0192107D01*
X0065801Y0192184D01*
X0065901Y0192258D01*
X0066004Y0192329D01*
X0066109Y0192396D01*
X0066217Y0192461D01*
X0066326Y0192521D01*
X0066437Y0192579D01*
X0066550Y0192632D01*
X0066664Y0192682D01*
X0066780Y0192729D01*
X0066897Y0192771D01*
X0067016Y0192810D01*
X0067136Y0192846D01*
X0067257Y0192877D01*
X0067379Y0192905D01*
X0067501Y0192928D01*
X0067625Y0192948D01*
X0067749Y0192964D01*
X0067873Y0192976D01*
X0067998Y0192984D01*
X0068123Y0192988D01*
X0068247Y0192988D01*
X0068372Y0192984D01*
X0068497Y0192976D01*
X0068621Y0192964D01*
X0068745Y0192948D01*
X0068869Y0192928D01*
X0068991Y0192905D01*
X0069113Y0192877D01*
X0069234Y0192846D01*
X0069354Y0192810D01*
X0069473Y0192771D01*
X0069590Y0192729D01*
X0069706Y0192682D01*
X0069820Y0192632D01*
X0069933Y0192579D01*
X0070044Y0192521D01*
X0070154Y0192461D01*
X0070261Y0192396D01*
X0070366Y0192329D01*
X0070469Y0192258D01*
X0070569Y0192184D01*
X0070667Y0192107D01*
X0070763Y0192026D01*
X0070856Y0191943D01*
X0070947Y0191857D01*
X0071034Y0191768D01*
X0071119Y0191676D01*
X0071201Y0191582D01*
X0071280Y0191485D01*
X0071355Y0191385D01*
X0071428Y0191284D01*
X0071497Y0191180D01*
X0071563Y0191073D01*
X0071625Y0190965D01*
X0071684Y0190855D01*
X0071740Y0190743D01*
X0071792Y0190629D01*
X0071840Y0190514D01*
X0071885Y0190398D01*
X0071925Y0190279D01*
X0071963Y0190160D01*
X0071996Y0190040D01*
X0072025Y0189918D01*
X0072051Y0189796D01*
X0072073Y0189673D01*
X0072090Y0189549D01*
X0072104Y0189425D01*
X0072114Y0189301D01*
X0072120Y0189176D01*
X0072122Y0189051D01*
X0072120Y0188926D01*
X0072114Y0188801D01*
X0072104Y0188677D01*
X0072090Y0188553D01*
X0072073Y0188429D01*
X0072051Y0188306D01*
X0072025Y0188184D01*
X0071996Y0188062D01*
X0071963Y0187942D01*
X0071925Y0187823D01*
X0071885Y0187704D01*
X0071840Y0187588D01*
X0071792Y0187473D01*
X0071740Y0187359D01*
X0071684Y0187247D01*
X0071625Y0187137D01*
X0071563Y0187029D01*
X0071497Y0186922D01*
X0071428Y0186818D01*
X0071355Y0186717D01*
X0071280Y0186617D01*
X0071201Y0186520D01*
X0071119Y0186426D01*
X0071034Y0186334D01*
X0070947Y0186245D01*
X0070856Y0186159D01*
X0070763Y0186076D01*
X0070667Y0185995D01*
X0070569Y0185918D01*
X0070469Y0185844D01*
X0070366Y0185773D01*
X0070261Y0185706D01*
X0070153Y0185641D01*
X0070044Y0185581D01*
X0069933Y0185523D01*
X0069820Y0185470D01*
X0069706Y0185420D01*
X0069590Y0185373D01*
X0069473Y0185331D01*
X0069354Y0185292D01*
X0069234Y0185256D01*
X0069113Y0185225D01*
X0068991Y0185197D01*
X0068869Y0185174D01*
X0068745Y0185154D01*
X0068621Y0185138D01*
X0068497Y0185126D01*
X0068372Y0185118D01*
X0068247Y0185114D01*
X0068123Y0185114D01*
X0067998Y0185118D01*
X0067873Y0185126D01*
X0067749Y0185138D01*
X0067625Y0185154D01*
X0067501Y0185174D01*
X0067379Y0185197D01*
X0067257Y0185225D01*
X0067136Y0185256D01*
X0067016Y0185292D01*
X0066897Y0185331D01*
X0066780Y0185373D01*
X0066664Y0185420D01*
X0066550Y0185470D01*
X0066437Y0185523D01*
X0066326Y0185581D01*
X0066216Y0185641D01*
X0066109Y0185706D01*
X0066004Y0185773D01*
X0065901Y0185844D01*
X0065801Y0185918D01*
X0065703Y0185995D01*
X0065607Y0186076D01*
X0065514Y0186159D01*
X0065423Y0186245D01*
X0065336Y0186334D01*
X0065251Y0186426D01*
X0065169Y0186520D01*
X0065090Y0186617D01*
X0065015Y0186717D01*
X0064942Y0186818D01*
X0064873Y0186922D01*
X0064807Y0187029D01*
X0064745Y0187137D01*
X0064686Y0187247D01*
X0064630Y0187359D01*
X0064578Y0187473D01*
X0064530Y0187588D01*
X0064485Y0187704D01*
X0064445Y0187823D01*
X0064407Y0187942D01*
X0064374Y0188062D01*
X0064345Y0188184D01*
X0064319Y0188306D01*
X0064297Y0188429D01*
X0064280Y0188553D01*
X0064266Y0188677D01*
X0064256Y0188801D01*
X0064250Y0188926D01*
X0064248Y0189051D01*
D12*
X0087870Y0188313D02*
X0087870Y0192496D01*
X0087870Y0196433D02*
X0087870Y0200616D01*
X0087870Y0204553D02*
X0087870Y0208736D01*
X0087870Y0184376D02*
X0087870Y0180193D01*
X0087870Y0176256D02*
X0087870Y0172073D01*
X0087870Y0168136D02*
X0087870Y0163953D01*
X0087870Y0160016D02*
X0087870Y0155833D01*
X0087870Y0151896D02*
X0087870Y0147713D01*
X0087870Y0143776D02*
X0087870Y0139593D01*
X0087870Y0135656D02*
X0087870Y0131472D01*
X0087870Y0127535D02*
X0087870Y0123352D01*
X0087870Y0119415D02*
X0087870Y0115232D01*
X0087870Y0111295D02*
X0087870Y0107112D01*
X0087870Y0103175D02*
X0087870Y0098992D01*
X0087870Y0095055D02*
X0087870Y0090872D01*
X0087870Y0086935D02*
X0087870Y0082752D01*
X0087870Y0078815D02*
X0087870Y0074632D01*
X0087870Y0070695D02*
X0087870Y0066512D01*
X0087870Y0062575D02*
X0087870Y0058392D01*
X0087870Y0054455D02*
X0087870Y0050272D01*
X0087870Y0046335D02*
X0087870Y0042152D01*
X0087870Y0038215D02*
X0087870Y0034031D01*
X0087870Y0030094D02*
X0087870Y0025911D01*
X0087870Y0021974D02*
X0087870Y0017791D01*
X0127240Y0017791D02*
X0127240Y0021974D01*
X0127240Y0025911D02*
X0127240Y0030094D01*
X0127240Y0034031D02*
X0127240Y0038215D01*
X0127240Y0042152D02*
X0127240Y0046335D01*
X0127240Y0050272D02*
X0127240Y0054455D01*
X0127240Y0058392D02*
X0127240Y0062575D01*
X0127240Y0066512D02*
X0127240Y0070695D01*
X0127240Y0074632D02*
X0127240Y0078815D01*
X0127240Y0082752D02*
X0127240Y0086935D01*
X0127240Y0090872D02*
X0127240Y0095055D01*
X0127240Y0098992D02*
X0127240Y0103175D01*
X0127240Y0107112D02*
X0127240Y0111295D01*
X0127240Y0115232D02*
X0127240Y0119415D01*
X0127240Y0123352D02*
X0127240Y0127535D01*
X0127240Y0131472D02*
X0127240Y0135656D01*
X0127240Y0139593D02*
X0127240Y0143776D01*
X0127240Y0147713D02*
X0127240Y0151896D01*
X0127240Y0155833D02*
X0127240Y0160016D01*
X0127240Y0163953D02*
X0127240Y0168136D01*
X0127240Y0172073D02*
X0127240Y0176256D01*
X0127240Y0180193D02*
X0127240Y0184376D01*
X0127240Y0188313D02*
X0127240Y0192496D01*
X0127240Y0196433D02*
X0127240Y0200616D01*
X0127240Y0204553D02*
X0127240Y0208736D01*
X0166610Y0208736D02*
X0166610Y0204553D01*
X0166610Y0200616D02*
X0166610Y0196433D01*
X0166610Y0192496D02*
X0166610Y0188313D01*
X0166610Y0184376D02*
X0166610Y0180193D01*
X0166610Y0176256D02*
X0166610Y0172073D01*
X0166610Y0168136D02*
X0166610Y0163953D01*
X0166610Y0160016D02*
X0166610Y0155833D01*
X0166610Y0151896D02*
X0166610Y0147713D01*
X0166610Y0143776D02*
X0166610Y0139593D01*
X0166610Y0135656D02*
X0166610Y0131472D01*
X0166610Y0127535D02*
X0166610Y0123352D01*
X0166610Y0119415D02*
X0166610Y0115232D01*
X0166610Y0111295D02*
X0166610Y0107112D01*
X0166610Y0103175D02*
X0166610Y0098992D01*
X0166610Y0095055D02*
X0166610Y0090872D01*
X0166610Y0086935D02*
X0166610Y0082752D01*
X0166610Y0078815D02*
X0166610Y0074632D01*
X0166610Y0070695D02*
X0166610Y0066512D01*
X0166610Y0062575D02*
X0166610Y0058392D01*
X0166610Y0054455D02*
X0166610Y0050272D01*
X0166610Y0046335D02*
X0166610Y0042152D01*
X0166610Y0038215D02*
X0166610Y0034031D01*
X0166610Y0030094D02*
X0166610Y0025911D01*
X0166610Y0021974D02*
X0166610Y0017791D01*
X0205980Y0017791D02*
X0205980Y0021974D01*
X0205980Y0025911D02*
X0205980Y0030094D01*
X0205980Y0034031D02*
X0205980Y0038215D01*
X0205980Y0042152D02*
X0205980Y0046335D01*
X0205980Y0050272D02*
X0205980Y0054455D01*
X0205980Y0058392D02*
X0205980Y0062575D01*
X0205980Y0066512D02*
X0205980Y0070695D01*
X0205980Y0074632D02*
X0205980Y0078815D01*
X0205980Y0082752D02*
X0205980Y0086935D01*
X0205980Y0090872D02*
X0205980Y0095055D01*
X0205980Y0098992D02*
X0205980Y0103175D01*
X0205980Y0107112D02*
X0205980Y0111295D01*
X0205980Y0115232D02*
X0205980Y0119415D01*
X0205980Y0123352D02*
X0205980Y0127535D01*
X0205980Y0131472D02*
X0205980Y0135656D01*
X0205980Y0139593D02*
X0205980Y0143776D01*
X0205980Y0147713D02*
X0205980Y0151896D01*
X0205980Y0155833D02*
X0205980Y0160016D01*
X0205980Y0163953D02*
X0205980Y0168136D01*
X0205980Y0172073D02*
X0205980Y0176256D01*
X0205980Y0180193D02*
X0205980Y0184376D01*
X0205980Y0188313D02*
X0205980Y0192496D01*
X0205980Y0196433D02*
X0205980Y0200616D01*
X0205980Y0204553D02*
X0205980Y0208736D01*
D13*
X0192101Y0198976D02*
X0192101Y0197508D01*
X0192101Y0198242D02*
X0189899Y0198242D01*
X0190633Y0197508D01*
X0192468Y0196766D02*
X0192468Y0195298D01*
X0191734Y0194556D02*
X0191000Y0194556D01*
X0191000Y0193822D01*
X0191734Y0193088D02*
X0192101Y0193455D01*
X0192101Y0194189D01*
X0191734Y0194556D01*
X0191734Y0193088D02*
X0190266Y0193088D01*
X0189899Y0193455D01*
X0189899Y0194189D01*
X0190266Y0194556D01*
X0190266Y0186923D02*
X0189899Y0186556D01*
X0189899Y0185823D01*
X0190266Y0185456D01*
X0190266Y0184714D02*
X0191000Y0184714D01*
X0191367Y0184347D01*
X0191367Y0183246D01*
X0191367Y0183980D02*
X0192101Y0184714D01*
X0192101Y0185456D02*
X0190633Y0186923D01*
X0190266Y0186923D01*
X0192101Y0186923D02*
X0192101Y0185456D01*
X0190266Y0184714D02*
X0189899Y0184347D01*
X0189899Y0183246D01*
X0192101Y0183246D01*
X0191000Y0177081D02*
X0191000Y0175613D01*
X0189899Y0176714D01*
X0192101Y0176714D01*
X0192101Y0174871D02*
X0191367Y0174137D01*
X0191367Y0174504D02*
X0191367Y0173403D01*
X0192101Y0173403D02*
X0189899Y0173403D01*
X0189899Y0174504D01*
X0190266Y0174871D01*
X0191000Y0174871D01*
X0191367Y0174504D01*
X0182258Y0174871D02*
X0181524Y0174137D01*
X0181524Y0174504D02*
X0181524Y0173403D01*
X0182258Y0173403D02*
X0180056Y0173403D01*
X0180056Y0174504D01*
X0180423Y0174871D01*
X0181157Y0174871D01*
X0181524Y0174504D01*
X0181891Y0175613D02*
X0182258Y0175980D01*
X0182258Y0176714D01*
X0181891Y0177081D01*
X0181524Y0177081D01*
X0181157Y0176714D01*
X0181157Y0176347D01*
X0181157Y0176714D02*
X0180790Y0177081D01*
X0180423Y0177081D01*
X0180056Y0176714D01*
X0180056Y0175980D01*
X0180423Y0175613D01*
X0180056Y0183246D02*
X0180056Y0184347D01*
X0180423Y0184714D01*
X0181157Y0184714D01*
X0181524Y0184347D01*
X0181524Y0183246D01*
X0181524Y0183980D02*
X0182258Y0184714D01*
X0182258Y0185456D02*
X0182258Y0186923D01*
X0182258Y0186189D02*
X0180056Y0186189D01*
X0180790Y0185456D01*
X0180056Y0183246D02*
X0182258Y0183246D01*
X0182258Y0193088D02*
X0180056Y0193088D01*
X0180056Y0194556D02*
X0182258Y0194556D01*
X0181524Y0193822D01*
X0182258Y0193088D01*
X0182625Y0195298D02*
X0182625Y0196766D01*
X0182258Y0197508D02*
X0182258Y0198976D01*
X0182258Y0198242D02*
X0180056Y0198242D01*
X0180790Y0197508D01*
X0153098Y0196766D02*
X0153098Y0195298D01*
X0152364Y0194556D02*
X0151630Y0194556D01*
X0151630Y0193822D01*
X0150896Y0193088D02*
X0152364Y0193088D01*
X0152731Y0193455D01*
X0152731Y0194189D01*
X0152364Y0194556D01*
X0150896Y0194556D02*
X0150529Y0194189D01*
X0150529Y0193455D01*
X0150896Y0193088D01*
X0151263Y0197508D02*
X0150529Y0198242D01*
X0152731Y0198242D01*
X0152731Y0197508D02*
X0152731Y0198976D01*
X0143255Y0196766D02*
X0143255Y0195298D01*
X0142888Y0194556D02*
X0140686Y0194556D01*
X0140686Y0193088D02*
X0142888Y0193088D01*
X0142154Y0193822D01*
X0142888Y0194556D01*
X0142888Y0197508D02*
X0142888Y0198976D01*
X0142888Y0198242D02*
X0140686Y0198242D01*
X0141420Y0197508D01*
X0142888Y0186923D02*
X0142888Y0185456D01*
X0142888Y0186189D02*
X0140686Y0186189D01*
X0141420Y0185456D01*
X0141053Y0184714D02*
X0141787Y0184714D01*
X0142154Y0184347D01*
X0142154Y0183246D01*
X0142154Y0183980D02*
X0142888Y0184714D01*
X0142888Y0183246D02*
X0140686Y0183246D01*
X0140686Y0184347D01*
X0141053Y0184714D01*
X0150529Y0184347D02*
X0150896Y0184714D01*
X0151630Y0184714D01*
X0151997Y0184347D01*
X0151997Y0183246D01*
X0151997Y0183980D02*
X0152731Y0184714D01*
X0152731Y0185456D02*
X0151263Y0186923D01*
X0150896Y0186923D01*
X0150529Y0186556D01*
X0150529Y0185823D01*
X0150896Y0185456D01*
X0150529Y0184347D02*
X0150529Y0183246D01*
X0152731Y0183246D01*
X0152731Y0185456D02*
X0152731Y0186923D01*
X0151630Y0177081D02*
X0151630Y0175613D01*
X0150529Y0176714D01*
X0152731Y0176714D01*
X0152731Y0174871D02*
X0151997Y0174137D01*
X0151997Y0174504D02*
X0151997Y0173403D01*
X0152731Y0173403D02*
X0150529Y0173403D01*
X0150529Y0174504D01*
X0150896Y0174871D01*
X0151630Y0174871D01*
X0151997Y0174504D01*
X0152731Y0165511D02*
X0152731Y0164043D01*
X0151263Y0165511D01*
X0150896Y0165511D01*
X0150529Y0165144D01*
X0150529Y0164410D01*
X0150896Y0164043D01*
X0153098Y0163301D02*
X0153098Y0161834D01*
X0152364Y0161092D02*
X0151630Y0161092D01*
X0151630Y0160358D01*
X0152364Y0161092D02*
X0152731Y0160725D01*
X0152731Y0159991D01*
X0152364Y0159624D01*
X0150896Y0159624D01*
X0150529Y0159991D01*
X0150529Y0160725D01*
X0150896Y0161092D01*
X0143255Y0161834D02*
X0143255Y0163301D01*
X0142888Y0164043D02*
X0141420Y0165511D01*
X0141053Y0165511D01*
X0140686Y0165144D01*
X0140686Y0164410D01*
X0141053Y0164043D01*
X0142888Y0164043D02*
X0142888Y0165511D01*
X0142888Y0161092D02*
X0140686Y0161092D01*
X0140686Y0159624D02*
X0142888Y0159624D01*
X0142154Y0160358D01*
X0142888Y0161092D01*
X0143958Y0151866D02*
X0145059Y0151866D01*
X0145426Y0151499D01*
X0145426Y0150032D01*
X0145059Y0149665D01*
X0143958Y0149665D01*
X0143958Y0151866D01*
X0141749Y0151866D02*
X0141749Y0149665D01*
X0143217Y0149665D01*
X0146168Y0149665D02*
X0146168Y0151866D01*
X0147269Y0151866D01*
X0147636Y0151499D01*
X0147636Y0150765D01*
X0147269Y0150398D01*
X0146168Y0150398D01*
X0146902Y0150398D02*
X0147636Y0149665D01*
X0148378Y0149665D02*
X0149846Y0149665D01*
X0149112Y0149665D02*
X0149112Y0151866D01*
X0148378Y0151132D01*
X0150529Y0131805D02*
X0150896Y0131071D01*
X0151630Y0130337D01*
X0151630Y0131438D01*
X0151997Y0131805D01*
X0152364Y0131805D01*
X0152731Y0131438D01*
X0152731Y0130704D01*
X0152364Y0130337D01*
X0151630Y0130337D01*
X0151630Y0129595D02*
X0151997Y0129228D01*
X0151997Y0128128D01*
X0151997Y0128862D02*
X0152731Y0129595D01*
X0151630Y0129595D02*
X0150896Y0129595D01*
X0150529Y0129228D01*
X0150529Y0128128D01*
X0152731Y0128128D01*
X0152364Y0124173D02*
X0152731Y0123806D01*
X0152731Y0123072D01*
X0152364Y0122705D01*
X0151630Y0123439D02*
X0151630Y0123806D01*
X0151997Y0124173D01*
X0152364Y0124173D01*
X0151630Y0123806D02*
X0151263Y0124173D01*
X0150896Y0124173D01*
X0150529Y0123806D01*
X0150529Y0123072D01*
X0150896Y0122705D01*
X0153098Y0121963D02*
X0153098Y0120495D01*
X0152364Y0119753D02*
X0151630Y0119753D01*
X0151630Y0119019D01*
X0150896Y0118285D02*
X0152364Y0118285D01*
X0152731Y0118652D01*
X0152731Y0119386D01*
X0152364Y0119753D01*
X0150896Y0119753D02*
X0150529Y0119386D01*
X0150529Y0118652D01*
X0150896Y0118285D01*
X0143255Y0120495D02*
X0143255Y0121963D01*
X0142521Y0122705D02*
X0142888Y0123072D01*
X0142888Y0123806D01*
X0142521Y0124173D01*
X0142154Y0124173D01*
X0141787Y0123806D01*
X0141787Y0123439D01*
X0141787Y0123806D02*
X0141420Y0124173D01*
X0141053Y0124173D01*
X0140686Y0123806D01*
X0140686Y0123072D01*
X0141053Y0122705D01*
X0140686Y0119753D02*
X0142888Y0119753D01*
X0142154Y0119019D01*
X0142888Y0118285D01*
X0140686Y0118285D01*
X0140686Y0128128D02*
X0140686Y0129228D01*
X0141053Y0129595D01*
X0141787Y0129595D01*
X0142154Y0129228D01*
X0142154Y0128128D01*
X0142154Y0128862D02*
X0142888Y0129595D01*
X0142521Y0130337D02*
X0142888Y0130704D01*
X0142888Y0131438D01*
X0142521Y0131805D01*
X0141787Y0131805D01*
X0141420Y0131438D01*
X0141420Y0131071D01*
X0141787Y0130337D01*
X0140686Y0130337D01*
X0140686Y0131805D01*
X0140686Y0128128D02*
X0142888Y0128128D01*
X0113361Y0128128D02*
X0111159Y0128128D01*
X0111159Y0129228D01*
X0111526Y0129595D01*
X0112260Y0129595D01*
X0112627Y0129228D01*
X0112627Y0128128D01*
X0112627Y0128862D02*
X0113361Y0129595D01*
X0112994Y0130337D02*
X0113361Y0130704D01*
X0113361Y0131438D01*
X0112994Y0131805D01*
X0112627Y0131805D01*
X0112260Y0131438D01*
X0112260Y0130337D01*
X0112994Y0130337D01*
X0112260Y0130337D02*
X0111526Y0131071D01*
X0111159Y0131805D01*
X0103518Y0131438D02*
X0103518Y0130704D01*
X0103151Y0130337D01*
X0102417Y0130337D02*
X0102050Y0131071D01*
X0102050Y0131438D01*
X0102417Y0131805D01*
X0103151Y0131805D01*
X0103518Y0131438D01*
X0102417Y0130337D02*
X0101316Y0130337D01*
X0101316Y0131805D01*
X0101683Y0129595D02*
X0102417Y0129595D01*
X0102784Y0129228D01*
X0102784Y0128128D01*
X0102784Y0128862D02*
X0103518Y0129595D01*
X0103518Y0128128D02*
X0101316Y0128128D01*
X0101316Y0129228D01*
X0101683Y0129595D01*
X0101683Y0124173D02*
X0102050Y0124173D01*
X0102417Y0123806D01*
X0102784Y0124173D01*
X0103151Y0124173D01*
X0103518Y0123806D01*
X0103518Y0123072D01*
X0103151Y0122705D01*
X0102417Y0123439D02*
X0102417Y0123806D01*
X0101683Y0124173D02*
X0101316Y0123806D01*
X0101316Y0123072D01*
X0101683Y0122705D01*
X0103885Y0121963D02*
X0103885Y0120495D01*
X0103518Y0119753D02*
X0101316Y0119753D01*
X0101316Y0118285D02*
X0103518Y0118285D01*
X0102784Y0119019D01*
X0103518Y0119753D01*
X0111159Y0119386D02*
X0111159Y0118652D01*
X0111526Y0118285D01*
X0112994Y0118285D01*
X0113361Y0118652D01*
X0113361Y0119386D01*
X0112994Y0119753D01*
X0112260Y0119753D01*
X0112260Y0119019D01*
X0111526Y0119753D02*
X0111159Y0119386D01*
X0113728Y0120495D02*
X0113728Y0121963D01*
X0112994Y0122705D02*
X0113361Y0123072D01*
X0113361Y0123806D01*
X0112994Y0124173D01*
X0112627Y0124173D01*
X0112260Y0123806D01*
X0112260Y0123439D01*
X0112260Y0123806D02*
X0111893Y0124173D01*
X0111526Y0124173D01*
X0111159Y0123806D01*
X0111159Y0123072D01*
X0111526Y0122705D01*
X0115463Y0098341D02*
X0115830Y0098341D01*
X0116197Y0097974D01*
X0116197Y0097240D01*
X0115830Y0096873D01*
X0115463Y0096873D01*
X0115096Y0097240D01*
X0115096Y0097974D01*
X0115463Y0098341D01*
X0116197Y0097974D02*
X0116564Y0098341D01*
X0116931Y0098341D01*
X0117298Y0097974D01*
X0117298Y0097240D01*
X0116931Y0096873D01*
X0116564Y0096873D01*
X0116197Y0097240D01*
X0116197Y0096131D02*
X0116564Y0095764D01*
X0116564Y0094663D01*
X0117298Y0094663D02*
X0115096Y0094663D01*
X0115096Y0095764D01*
X0115463Y0096131D01*
X0116197Y0096131D01*
X0116564Y0095397D02*
X0117298Y0096131D01*
X0113361Y0086404D02*
X0111159Y0086404D01*
X0112260Y0085303D01*
X0112260Y0086771D01*
X0113728Y0084561D02*
X0113728Y0083093D01*
X0112994Y0082351D02*
X0112260Y0082351D01*
X0112260Y0081617D01*
X0112994Y0080883D02*
X0113361Y0081250D01*
X0113361Y0081984D01*
X0112994Y0082351D01*
X0112994Y0080883D02*
X0111526Y0080883D01*
X0111159Y0081250D01*
X0111159Y0081984D01*
X0111526Y0082351D01*
X0103885Y0083093D02*
X0103885Y0084561D01*
X0102417Y0085303D02*
X0101316Y0086404D01*
X0103518Y0086404D01*
X0102417Y0086771D02*
X0102417Y0085303D01*
X0103518Y0082351D02*
X0101316Y0082351D01*
X0101316Y0080883D02*
X0103518Y0080883D01*
X0102784Y0081617D01*
X0103518Y0082351D01*
X0099581Y0094663D02*
X0097379Y0094663D01*
X0097379Y0095764D01*
X0097746Y0096131D01*
X0098480Y0096131D01*
X0098847Y0095764D01*
X0098847Y0094663D01*
X0098847Y0095397D02*
X0099581Y0096131D01*
X0099581Y0096873D02*
X0099214Y0096873D01*
X0097746Y0098341D01*
X0097379Y0098341D01*
X0097379Y0096873D01*
X0077928Y0097240D02*
X0077561Y0096873D01*
X0077194Y0096873D01*
X0076827Y0097240D01*
X0076827Y0097974D01*
X0077194Y0098341D01*
X0077561Y0098341D01*
X0077928Y0097974D01*
X0077928Y0097240D01*
X0076827Y0097240D02*
X0076460Y0096873D01*
X0076093Y0096873D01*
X0075726Y0097240D01*
X0075726Y0097974D01*
X0076093Y0098341D01*
X0076460Y0098341D01*
X0076827Y0097974D01*
X0076827Y0096131D02*
X0077194Y0095764D01*
X0077194Y0094663D01*
X0077928Y0094663D02*
X0075726Y0094663D01*
X0075726Y0095764D01*
X0076093Y0096131D01*
X0076827Y0096131D01*
X0077194Y0095397D02*
X0077928Y0096131D01*
X0073991Y0086404D02*
X0071789Y0086404D01*
X0072890Y0085303D01*
X0072890Y0086771D01*
X0074357Y0084561D02*
X0074357Y0083093D01*
X0073624Y0082351D02*
X0072890Y0082351D01*
X0072890Y0081617D01*
X0072156Y0080883D02*
X0073624Y0080883D01*
X0073991Y0081250D01*
X0073991Y0081984D01*
X0073624Y0082351D01*
X0072156Y0082351D02*
X0071789Y0081984D01*
X0071789Y0081250D01*
X0072156Y0080883D01*
X0064515Y0083093D02*
X0064515Y0084561D01*
X0063047Y0085303D02*
X0063047Y0086771D01*
X0061946Y0086404D02*
X0063047Y0085303D01*
X0064148Y0086404D02*
X0061946Y0086404D01*
X0061946Y0082351D02*
X0064148Y0082351D01*
X0063414Y0081617D01*
X0064148Y0080883D01*
X0061946Y0080883D01*
X0060211Y0094663D02*
X0058009Y0094663D01*
X0058009Y0095764D01*
X0058376Y0096131D01*
X0059110Y0096131D01*
X0059477Y0095764D01*
X0059477Y0094663D01*
X0059477Y0095397D02*
X0060211Y0096131D01*
X0060211Y0096873D02*
X0059844Y0096873D01*
X0058376Y0098341D01*
X0058009Y0098341D01*
X0058009Y0096873D01*
X0061946Y0118285D02*
X0064148Y0118285D01*
X0063414Y0119019D01*
X0064148Y0119753D01*
X0061946Y0119753D01*
X0064515Y0120495D02*
X0064515Y0121963D01*
X0063781Y0122705D02*
X0064148Y0123072D01*
X0064148Y0123806D01*
X0063781Y0124173D01*
X0063414Y0124173D01*
X0063047Y0123806D01*
X0063047Y0123439D01*
X0063047Y0123806D02*
X0062680Y0124173D01*
X0062313Y0124173D01*
X0061946Y0123806D01*
X0061946Y0123072D01*
X0062313Y0122705D01*
X0061946Y0128128D02*
X0061946Y0129228D01*
X0062313Y0129595D01*
X0063047Y0129595D01*
X0063414Y0129228D01*
X0063414Y0128128D01*
X0063414Y0128862D02*
X0064148Y0129595D01*
X0063781Y0130337D02*
X0064148Y0130704D01*
X0064148Y0131438D01*
X0063781Y0131805D01*
X0063047Y0131805D01*
X0062680Y0131438D01*
X0062680Y0131071D01*
X0063047Y0130337D01*
X0061946Y0130337D01*
X0061946Y0131805D01*
X0061946Y0128128D02*
X0064148Y0128128D01*
X0071789Y0128128D02*
X0071789Y0129228D01*
X0072156Y0129595D01*
X0072890Y0129595D01*
X0073257Y0129228D01*
X0073257Y0128128D01*
X0073257Y0128862D02*
X0073991Y0129595D01*
X0073624Y0130337D02*
X0073991Y0130704D01*
X0073991Y0131438D01*
X0073624Y0131805D01*
X0073257Y0131805D01*
X0072890Y0131438D01*
X0072890Y0130337D01*
X0073624Y0130337D01*
X0072890Y0130337D02*
X0072156Y0131071D01*
X0071789Y0131805D01*
X0071789Y0128128D02*
X0073991Y0128128D01*
X0073624Y0124173D02*
X0073991Y0123806D01*
X0073991Y0123072D01*
X0073624Y0122705D01*
X0072890Y0123439D02*
X0072890Y0123806D01*
X0073257Y0124173D01*
X0073624Y0124173D01*
X0072890Y0123806D02*
X0072523Y0124173D01*
X0072156Y0124173D01*
X0071789Y0123806D01*
X0071789Y0123072D01*
X0072156Y0122705D01*
X0074357Y0121963D02*
X0074357Y0120495D01*
X0073624Y0119753D02*
X0072890Y0119753D01*
X0072890Y0119019D01*
X0072156Y0118285D02*
X0073624Y0118285D01*
X0073991Y0118652D01*
X0073991Y0119386D01*
X0073624Y0119753D01*
X0072156Y0119753D02*
X0071789Y0119386D01*
X0071789Y0118652D01*
X0072156Y0118285D01*
X0071106Y0149665D02*
X0069638Y0149665D01*
X0070372Y0149665D02*
X0070372Y0151866D01*
X0069638Y0151132D01*
X0068896Y0150765D02*
X0068529Y0150398D01*
X0067428Y0150398D01*
X0067428Y0149665D02*
X0067428Y0151866D01*
X0068529Y0151866D01*
X0068896Y0151499D01*
X0068896Y0150765D01*
X0068162Y0150398D02*
X0068896Y0149665D01*
X0066686Y0150032D02*
X0066686Y0151499D01*
X0066319Y0151866D01*
X0065218Y0151866D01*
X0065218Y0149665D01*
X0066319Y0149665D01*
X0066686Y0150032D01*
X0064476Y0149665D02*
X0063008Y0149665D01*
X0063008Y0151866D01*
X0061946Y0159624D02*
X0064148Y0159624D01*
X0063414Y0160358D01*
X0064148Y0161092D01*
X0061946Y0161092D01*
X0064515Y0161834D02*
X0064515Y0163301D01*
X0064148Y0164043D02*
X0062680Y0165511D01*
X0062313Y0165511D01*
X0061946Y0165144D01*
X0061946Y0164410D01*
X0062313Y0164043D01*
X0064148Y0164043D02*
X0064148Y0165511D01*
X0071789Y0165144D02*
X0071789Y0164410D01*
X0072156Y0164043D01*
X0071789Y0165144D02*
X0072156Y0165511D01*
X0072523Y0165511D01*
X0073991Y0164043D01*
X0073991Y0165511D01*
X0074357Y0163301D02*
X0074357Y0161834D01*
X0073624Y0161092D02*
X0072890Y0161092D01*
X0072890Y0160358D01*
X0073624Y0161092D02*
X0073991Y0160725D01*
X0073991Y0159991D01*
X0073624Y0159624D01*
X0072156Y0159624D01*
X0071789Y0159991D01*
X0071789Y0160725D01*
X0072156Y0161092D01*
X0071789Y0173403D02*
X0071789Y0174504D01*
X0072156Y0174871D01*
X0072890Y0174871D01*
X0073257Y0174504D01*
X0073257Y0173403D01*
X0073991Y0173403D02*
X0071789Y0173403D01*
X0073257Y0174137D02*
X0073991Y0174871D01*
X0072890Y0175613D02*
X0072890Y0177081D01*
X0073991Y0176714D02*
X0071789Y0176714D01*
X0072890Y0175613D01*
X0064148Y0175980D02*
X0063781Y0175613D01*
X0064148Y0175980D02*
X0064148Y0176714D01*
X0063781Y0177081D01*
X0063414Y0177081D01*
X0063047Y0176714D01*
X0063047Y0176347D01*
X0063047Y0176714D02*
X0062680Y0177081D01*
X0062313Y0177081D01*
X0061946Y0176714D01*
X0061946Y0175980D01*
X0062313Y0175613D01*
X0062313Y0174871D02*
X0063047Y0174871D01*
X0063414Y0174504D01*
X0063414Y0173403D01*
X0064148Y0173403D02*
X0061946Y0173403D01*
X0061946Y0174504D01*
X0062313Y0174871D01*
X0063414Y0174137D02*
X0064148Y0174871D01*
X0064148Y0183246D02*
X0061946Y0183246D01*
X0061946Y0184347D01*
X0062313Y0184714D01*
X0063047Y0184714D01*
X0063414Y0184347D01*
X0063414Y0183246D01*
X0063414Y0183980D02*
X0064148Y0184714D01*
X0064148Y0185456D02*
X0064148Y0186923D01*
X0064148Y0186189D02*
X0061946Y0186189D01*
X0062680Y0185456D01*
X0071789Y0185823D02*
X0072156Y0185456D01*
X0071789Y0185823D02*
X0071789Y0186556D01*
X0072156Y0186923D01*
X0072523Y0186923D01*
X0073991Y0185456D01*
X0073991Y0186923D01*
X0073991Y0184714D02*
X0073257Y0183980D01*
X0073257Y0184347D02*
X0073257Y0183246D01*
X0073991Y0183246D02*
X0071789Y0183246D01*
X0071789Y0184347D01*
X0072156Y0184714D01*
X0072890Y0184714D01*
X0073257Y0184347D01*
X0073624Y0193088D02*
X0072156Y0193088D01*
X0071789Y0193455D01*
X0071789Y0194189D01*
X0072156Y0194556D01*
X0072890Y0194556D02*
X0072890Y0193822D01*
X0072890Y0194556D02*
X0073624Y0194556D01*
X0073991Y0194189D01*
X0073991Y0193455D01*
X0073624Y0193088D01*
X0074357Y0195298D02*
X0074357Y0196766D01*
X0073991Y0197508D02*
X0073991Y0198976D01*
X0073991Y0198242D02*
X0071789Y0198242D01*
X0072523Y0197508D01*
X0064515Y0196766D02*
X0064515Y0195298D01*
X0064148Y0194556D02*
X0061946Y0194556D01*
X0061946Y0193088D02*
X0064148Y0193088D01*
X0063414Y0193822D01*
X0064148Y0194556D01*
X0064148Y0197508D02*
X0064148Y0198976D01*
X0064148Y0198242D02*
X0061946Y0198242D01*
X0062680Y0197508D01*
X0101316Y0198242D02*
X0103518Y0198242D01*
X0103518Y0197508D02*
X0103518Y0198976D01*
X0102050Y0197508D02*
X0101316Y0198242D01*
X0103885Y0196766D02*
X0103885Y0195298D01*
X0103518Y0194556D02*
X0101316Y0194556D01*
X0101316Y0193088D02*
X0103518Y0193088D01*
X0102784Y0193822D01*
X0103518Y0194556D01*
X0103518Y0186923D02*
X0103518Y0185456D01*
X0103518Y0186189D02*
X0101316Y0186189D01*
X0102050Y0185456D01*
X0101683Y0184714D02*
X0102417Y0184714D01*
X0102784Y0184347D01*
X0102784Y0183246D01*
X0102784Y0183980D02*
X0103518Y0184714D01*
X0103518Y0183246D02*
X0101316Y0183246D01*
X0101316Y0184347D01*
X0101683Y0184714D01*
X0101683Y0177081D02*
X0102050Y0177081D01*
X0102417Y0176714D01*
X0102784Y0177081D01*
X0103151Y0177081D01*
X0103518Y0176714D01*
X0103518Y0175980D01*
X0103151Y0175613D01*
X0103518Y0174871D02*
X0102784Y0174137D01*
X0102784Y0174504D02*
X0102784Y0173403D01*
X0103518Y0173403D02*
X0101316Y0173403D01*
X0101316Y0174504D01*
X0101683Y0174871D01*
X0102417Y0174871D01*
X0102784Y0174504D01*
X0101683Y0175613D02*
X0101316Y0175980D01*
X0101316Y0176714D01*
X0101683Y0177081D01*
X0102417Y0176714D02*
X0102417Y0176347D01*
X0111159Y0176714D02*
X0112260Y0175613D01*
X0112260Y0177081D01*
X0113361Y0176714D02*
X0111159Y0176714D01*
X0111526Y0174871D02*
X0112260Y0174871D01*
X0112627Y0174504D01*
X0112627Y0173403D01*
X0113361Y0173403D02*
X0111159Y0173403D01*
X0111159Y0174504D01*
X0111526Y0174871D01*
X0112627Y0174137D02*
X0113361Y0174871D01*
X0113361Y0183246D02*
X0111159Y0183246D01*
X0111159Y0184347D01*
X0111526Y0184714D01*
X0112260Y0184714D01*
X0112627Y0184347D01*
X0112627Y0183246D01*
X0112627Y0183980D02*
X0113361Y0184714D01*
X0113361Y0185456D02*
X0111893Y0186923D01*
X0111526Y0186923D01*
X0111159Y0186556D01*
X0111159Y0185823D01*
X0111526Y0185456D01*
X0113361Y0185456D02*
X0113361Y0186923D01*
X0112994Y0193088D02*
X0113361Y0193455D01*
X0113361Y0194189D01*
X0112994Y0194556D01*
X0112260Y0194556D01*
X0112260Y0193822D01*
X0111526Y0193088D02*
X0112994Y0193088D01*
X0111526Y0193088D02*
X0111159Y0193455D01*
X0111159Y0194189D01*
X0111526Y0194556D01*
X0113728Y0195298D02*
X0113728Y0196766D01*
X0113361Y0197508D02*
X0113361Y0198976D01*
X0113361Y0198242D02*
X0111159Y0198242D01*
X0111893Y0197508D01*
X0140686Y0176714D02*
X0141053Y0177081D01*
X0141420Y0177081D01*
X0141787Y0176714D01*
X0142154Y0177081D01*
X0142521Y0177081D01*
X0142888Y0176714D01*
X0142888Y0175980D01*
X0142521Y0175613D01*
X0142888Y0174871D02*
X0142154Y0174137D01*
X0142154Y0174504D02*
X0142154Y0173403D01*
X0142888Y0173403D02*
X0140686Y0173403D01*
X0140686Y0174504D01*
X0141053Y0174871D01*
X0141787Y0174871D01*
X0142154Y0174504D01*
X0141053Y0175613D02*
X0140686Y0175980D01*
X0140686Y0176714D01*
X0141787Y0176714D02*
X0141787Y0176347D01*
X0113361Y0165511D02*
X0113361Y0164043D01*
X0111893Y0165511D01*
X0111526Y0165511D01*
X0111159Y0165144D01*
X0111159Y0164410D01*
X0111526Y0164043D01*
X0113728Y0163301D02*
X0113728Y0161834D01*
X0112994Y0161092D02*
X0112260Y0161092D01*
X0112260Y0160358D01*
X0112994Y0161092D02*
X0113361Y0160725D01*
X0113361Y0159991D01*
X0112994Y0159624D01*
X0111526Y0159624D01*
X0111159Y0159991D01*
X0111159Y0160725D01*
X0111526Y0161092D01*
X0103885Y0161834D02*
X0103885Y0163301D01*
X0103518Y0164043D02*
X0102050Y0165511D01*
X0101683Y0165511D01*
X0101316Y0165144D01*
X0101316Y0164410D01*
X0101683Y0164043D01*
X0103518Y0164043D02*
X0103518Y0165511D01*
X0103518Y0161092D02*
X0101316Y0161092D01*
X0101316Y0159624D02*
X0103518Y0159624D01*
X0102784Y0160358D01*
X0103518Y0161092D01*
X0104588Y0151866D02*
X0105689Y0151866D01*
X0106056Y0151499D01*
X0106056Y0150032D01*
X0105689Y0149665D01*
X0104588Y0149665D01*
X0104588Y0151866D01*
X0102379Y0151866D02*
X0102379Y0149665D01*
X0103846Y0149665D01*
X0106798Y0149665D02*
X0106798Y0151866D01*
X0107899Y0151866D01*
X0108266Y0151499D01*
X0108266Y0150765D01*
X0107899Y0150398D01*
X0106798Y0150398D01*
X0107532Y0150398D02*
X0108266Y0149665D01*
X0109008Y0149665D02*
X0110476Y0149665D01*
X0109742Y0149665D02*
X0109742Y0151866D01*
X0109008Y0151132D01*
X0180056Y0159624D02*
X0182258Y0159624D01*
X0181524Y0160358D01*
X0182258Y0161092D01*
X0180056Y0161092D01*
X0182625Y0161834D02*
X0182625Y0163301D01*
X0182258Y0164043D02*
X0180790Y0165511D01*
X0180423Y0165511D01*
X0180056Y0165144D01*
X0180056Y0164410D01*
X0180423Y0164043D01*
X0182258Y0164043D02*
X0182258Y0165511D01*
X0189899Y0165144D02*
X0189899Y0164410D01*
X0190266Y0164043D01*
X0189899Y0165144D02*
X0190266Y0165511D01*
X0190633Y0165511D01*
X0192101Y0164043D01*
X0192101Y0165511D01*
X0192468Y0163301D02*
X0192468Y0161834D01*
X0191734Y0161092D02*
X0191000Y0161092D01*
X0191000Y0160358D01*
X0191734Y0161092D02*
X0192101Y0160725D01*
X0192101Y0159991D01*
X0191734Y0159624D01*
X0190266Y0159624D01*
X0189899Y0159991D01*
X0189899Y0160725D01*
X0190266Y0161092D01*
X0188482Y0151866D02*
X0188482Y0149665D01*
X0187748Y0149665D02*
X0189216Y0149665D01*
X0187748Y0151132D02*
X0188482Y0151866D01*
X0187006Y0151499D02*
X0187006Y0150765D01*
X0186639Y0150398D01*
X0185538Y0150398D01*
X0185538Y0149665D02*
X0185538Y0151866D01*
X0186639Y0151866D01*
X0187006Y0151499D01*
X0186272Y0150398D02*
X0187006Y0149665D01*
X0184796Y0150032D02*
X0184796Y0151499D01*
X0184430Y0151866D01*
X0183329Y0151866D01*
X0183329Y0149665D01*
X0184430Y0149665D01*
X0184796Y0150032D01*
X0182587Y0149665D02*
X0181119Y0149665D01*
X0181119Y0151866D01*
X0181157Y0131805D02*
X0180790Y0131438D01*
X0180790Y0131071D01*
X0181157Y0130337D01*
X0180056Y0130337D01*
X0180056Y0131805D01*
X0181157Y0131805D02*
X0181891Y0131805D01*
X0182258Y0131438D01*
X0182258Y0130704D01*
X0181891Y0130337D01*
X0182258Y0129595D02*
X0181524Y0128862D01*
X0181524Y0129228D02*
X0181524Y0128128D01*
X0182258Y0128128D02*
X0180056Y0128128D01*
X0180056Y0129228D01*
X0180423Y0129595D01*
X0181157Y0129595D01*
X0181524Y0129228D01*
X0181524Y0124173D02*
X0181891Y0124173D01*
X0182258Y0123806D01*
X0182258Y0123072D01*
X0181891Y0122705D01*
X0181157Y0123439D02*
X0181157Y0123806D01*
X0181524Y0124173D01*
X0181157Y0123806D02*
X0180790Y0124173D01*
X0180423Y0124173D01*
X0180056Y0123806D01*
X0180056Y0123072D01*
X0180423Y0122705D01*
X0182625Y0121963D02*
X0182625Y0120495D01*
X0182258Y0119753D02*
X0180056Y0119753D01*
X0180056Y0118285D02*
X0182258Y0118285D01*
X0181524Y0119019D01*
X0182258Y0119753D01*
X0189899Y0119386D02*
X0189899Y0118652D01*
X0190266Y0118285D01*
X0191734Y0118285D01*
X0192101Y0118652D01*
X0192101Y0119386D01*
X0191734Y0119753D01*
X0191000Y0119753D01*
X0191000Y0119019D01*
X0190266Y0119753D02*
X0189899Y0119386D01*
X0192468Y0120495D02*
X0192468Y0121963D01*
X0191734Y0122705D02*
X0192101Y0123072D01*
X0192101Y0123806D01*
X0191734Y0124173D01*
X0191367Y0124173D01*
X0191000Y0123806D01*
X0191000Y0123439D01*
X0191000Y0123806D02*
X0190633Y0124173D01*
X0190266Y0124173D01*
X0189899Y0123806D01*
X0189899Y0123072D01*
X0190266Y0122705D01*
X0189899Y0128128D02*
X0189899Y0129228D01*
X0190266Y0129595D01*
X0191000Y0129595D01*
X0191367Y0129228D01*
X0191367Y0128128D01*
X0191367Y0128862D02*
X0192101Y0129595D01*
X0191734Y0130337D02*
X0192101Y0130704D01*
X0192101Y0131438D01*
X0191734Y0131805D01*
X0191367Y0131805D01*
X0191000Y0131438D01*
X0191000Y0130337D01*
X0191734Y0130337D01*
X0191000Y0130337D02*
X0190266Y0131071D01*
X0189899Y0131805D01*
X0189899Y0128128D02*
X0192101Y0128128D01*
X0219426Y0128128D02*
X0219426Y0129228D01*
X0219793Y0129595D01*
X0220527Y0129595D01*
X0220894Y0129228D01*
X0220894Y0128128D01*
X0220894Y0128862D02*
X0221628Y0129595D01*
X0221261Y0130337D02*
X0221628Y0130704D01*
X0221628Y0131438D01*
X0221261Y0131805D01*
X0220527Y0131805D01*
X0220160Y0131438D01*
X0220160Y0131071D01*
X0220527Y0130337D01*
X0219426Y0130337D01*
X0219426Y0131805D01*
X0219426Y0128128D02*
X0221628Y0128128D01*
X0221261Y0124173D02*
X0221628Y0123806D01*
X0221628Y0123072D01*
X0221261Y0122705D01*
X0220527Y0123439D02*
X0220527Y0123806D01*
X0220894Y0124173D01*
X0221261Y0124173D01*
X0220527Y0123806D02*
X0220160Y0124173D01*
X0219793Y0124173D01*
X0219426Y0123806D01*
X0219426Y0123072D01*
X0219793Y0122705D01*
X0221995Y0121963D02*
X0221995Y0120495D01*
X0221628Y0119753D02*
X0219426Y0119753D01*
X0219426Y0118285D02*
X0221628Y0118285D01*
X0220894Y0119019D01*
X0221628Y0119753D01*
X0229269Y0119386D02*
X0229269Y0118652D01*
X0229636Y0118285D01*
X0231104Y0118285D01*
X0231471Y0118652D01*
X0231471Y0119386D01*
X0231104Y0119753D01*
X0230370Y0119753D01*
X0230370Y0119019D01*
X0229636Y0119753D02*
X0229269Y0119386D01*
X0231838Y0120495D02*
X0231838Y0121963D01*
X0231104Y0122705D02*
X0231471Y0123072D01*
X0231471Y0123806D01*
X0231104Y0124173D01*
X0230737Y0124173D01*
X0230370Y0123806D01*
X0230370Y0123439D01*
X0230370Y0123806D02*
X0230003Y0124173D01*
X0229636Y0124173D01*
X0229269Y0123806D01*
X0229269Y0123072D01*
X0229636Y0122705D01*
X0229269Y0128128D02*
X0229269Y0129228D01*
X0229636Y0129595D01*
X0230370Y0129595D01*
X0230737Y0129228D01*
X0230737Y0128128D01*
X0230737Y0128862D02*
X0231471Y0129595D01*
X0231104Y0130337D02*
X0231471Y0130704D01*
X0231471Y0131438D01*
X0231104Y0131805D01*
X0230737Y0131805D01*
X0230370Y0131438D01*
X0230370Y0130337D01*
X0231104Y0130337D01*
X0230370Y0130337D02*
X0229636Y0131071D01*
X0229269Y0131805D01*
X0229269Y0128128D02*
X0231471Y0128128D01*
X0228586Y0149665D02*
X0227118Y0149665D01*
X0227852Y0149665D02*
X0227852Y0151866D01*
X0227118Y0151132D01*
X0226376Y0150765D02*
X0226009Y0150398D01*
X0224909Y0150398D01*
X0224909Y0149665D02*
X0224909Y0151866D01*
X0226009Y0151866D01*
X0226376Y0151499D01*
X0226376Y0150765D01*
X0225642Y0150398D02*
X0226376Y0149665D01*
X0224167Y0150032D02*
X0224167Y0151499D01*
X0223800Y0151866D01*
X0222699Y0151866D01*
X0222699Y0149665D01*
X0223800Y0149665D01*
X0224167Y0150032D01*
X0221957Y0149665D02*
X0220489Y0149665D01*
X0220489Y0151866D01*
X0219426Y0159624D02*
X0221628Y0159624D01*
X0220894Y0160358D01*
X0221628Y0161092D01*
X0219426Y0161092D01*
X0221995Y0161834D02*
X0221995Y0163301D01*
X0221628Y0164043D02*
X0220160Y0165511D01*
X0219793Y0165511D01*
X0219426Y0165144D01*
X0219426Y0164410D01*
X0219793Y0164043D01*
X0221628Y0164043D02*
X0221628Y0165511D01*
X0229269Y0165144D02*
X0229269Y0164410D01*
X0229636Y0164043D01*
X0229269Y0165144D02*
X0229636Y0165511D01*
X0230003Y0165511D01*
X0231471Y0164043D01*
X0231471Y0165511D01*
X0231838Y0163301D02*
X0231838Y0161834D01*
X0231104Y0161092D02*
X0230370Y0161092D01*
X0230370Y0160358D01*
X0231104Y0161092D02*
X0231471Y0160725D01*
X0231471Y0159991D01*
X0231104Y0159624D01*
X0229636Y0159624D01*
X0229269Y0159991D01*
X0229269Y0160725D01*
X0229636Y0161092D01*
X0229269Y0173403D02*
X0229269Y0174504D01*
X0229636Y0174871D01*
X0230370Y0174871D01*
X0230737Y0174504D01*
X0230737Y0173403D01*
X0231471Y0173403D02*
X0229269Y0173403D01*
X0230737Y0174137D02*
X0231471Y0174871D01*
X0230370Y0175613D02*
X0230370Y0177081D01*
X0231471Y0176714D02*
X0229269Y0176714D01*
X0230370Y0175613D01*
X0221628Y0175980D02*
X0221261Y0175613D01*
X0221628Y0175980D02*
X0221628Y0176714D01*
X0221261Y0177081D01*
X0220894Y0177081D01*
X0220527Y0176714D01*
X0220527Y0176347D01*
X0220527Y0176714D02*
X0220160Y0177081D01*
X0219793Y0177081D01*
X0219426Y0176714D01*
X0219426Y0175980D01*
X0219793Y0175613D01*
X0219793Y0174871D02*
X0220527Y0174871D01*
X0220894Y0174504D01*
X0220894Y0173403D01*
X0220894Y0174137D02*
X0221628Y0174871D01*
X0221628Y0173403D02*
X0219426Y0173403D01*
X0219426Y0174504D01*
X0219793Y0174871D01*
X0219426Y0183246D02*
X0219426Y0184347D01*
X0219793Y0184714D01*
X0220527Y0184714D01*
X0220894Y0184347D01*
X0220894Y0183246D01*
X0220894Y0183980D02*
X0221628Y0184714D01*
X0221628Y0185456D02*
X0221628Y0186923D01*
X0221628Y0186189D02*
X0219426Y0186189D01*
X0220160Y0185456D01*
X0219426Y0183246D02*
X0221628Y0183246D01*
X0229269Y0183246D02*
X0229269Y0184347D01*
X0229636Y0184714D01*
X0230370Y0184714D01*
X0230737Y0184347D01*
X0230737Y0183246D01*
X0230737Y0183980D02*
X0231471Y0184714D01*
X0231471Y0185456D02*
X0230003Y0186923D01*
X0229636Y0186923D01*
X0229269Y0186556D01*
X0229269Y0185823D01*
X0229636Y0185456D01*
X0231471Y0185456D02*
X0231471Y0186923D01*
X0231471Y0183246D02*
X0229269Y0183246D01*
X0229636Y0193088D02*
X0231104Y0193088D01*
X0231471Y0193455D01*
X0231471Y0194189D01*
X0231104Y0194556D01*
X0230370Y0194556D01*
X0230370Y0193822D01*
X0229636Y0193088D02*
X0229269Y0193455D01*
X0229269Y0194189D01*
X0229636Y0194556D01*
X0231838Y0195298D02*
X0231838Y0196766D01*
X0231471Y0197508D02*
X0231471Y0198976D01*
X0231471Y0198242D02*
X0229269Y0198242D01*
X0230003Y0197508D01*
X0221995Y0196766D02*
X0221995Y0195298D01*
X0221628Y0194556D02*
X0219426Y0194556D01*
X0219426Y0193088D02*
X0221628Y0193088D01*
X0220894Y0193822D01*
X0221628Y0194556D01*
X0221628Y0197508D02*
X0221628Y0198976D01*
X0221628Y0198242D02*
X0219426Y0198242D01*
X0220160Y0197508D01*
X0215856Y0098341D02*
X0215489Y0098341D01*
X0215489Y0096873D01*
X0215856Y0096131D02*
X0215489Y0095764D01*
X0215489Y0094663D01*
X0217691Y0094663D01*
X0216957Y0094663D02*
X0216957Y0095764D01*
X0216590Y0096131D01*
X0215856Y0096131D01*
X0216957Y0095397D02*
X0217691Y0096131D01*
X0217691Y0096873D02*
X0217324Y0096873D01*
X0215856Y0098341D01*
X0233206Y0097974D02*
X0233206Y0097240D01*
X0233573Y0096873D01*
X0233940Y0096873D01*
X0234307Y0097240D01*
X0234307Y0097974D01*
X0234674Y0098341D01*
X0235041Y0098341D01*
X0235408Y0097974D01*
X0235408Y0097240D01*
X0235041Y0096873D01*
X0234674Y0096873D01*
X0234307Y0097240D01*
X0234307Y0097974D02*
X0233940Y0098341D01*
X0233573Y0098341D01*
X0233206Y0097974D01*
X0233573Y0096131D02*
X0233206Y0095764D01*
X0233206Y0094663D01*
X0235408Y0094663D01*
X0234674Y0094663D02*
X0234674Y0095764D01*
X0234307Y0096131D01*
X0233573Y0096131D01*
X0234674Y0095397D02*
X0235408Y0096131D01*
X0231471Y0086404D02*
X0229269Y0086404D01*
X0230370Y0085303D01*
X0230370Y0086771D01*
X0231838Y0084561D02*
X0231838Y0083093D01*
X0231104Y0082351D02*
X0230370Y0082351D01*
X0230370Y0081617D01*
X0229636Y0080883D02*
X0231104Y0080883D01*
X0231471Y0081250D01*
X0231471Y0081984D01*
X0231104Y0082351D01*
X0229636Y0082351D02*
X0229269Y0081984D01*
X0229269Y0081250D01*
X0229636Y0080883D01*
X0221995Y0083093D02*
X0221995Y0084561D01*
X0220527Y0085303D02*
X0220527Y0086771D01*
X0219426Y0086404D02*
X0220527Y0085303D01*
X0221628Y0086404D02*
X0219426Y0086404D01*
X0219426Y0082351D02*
X0221628Y0082351D01*
X0220894Y0081617D01*
X0221628Y0080883D01*
X0219426Y0080883D01*
X0196038Y0094663D02*
X0193836Y0094663D01*
X0193836Y0095764D01*
X0194203Y0096131D01*
X0194937Y0096131D01*
X0195304Y0095764D01*
X0195304Y0094663D01*
X0195304Y0095397D02*
X0196038Y0096131D01*
X0195671Y0096873D02*
X0195304Y0096873D01*
X0194937Y0097240D01*
X0194937Y0097974D01*
X0195304Y0098341D01*
X0195671Y0098341D01*
X0196038Y0097974D01*
X0196038Y0097240D01*
X0195671Y0096873D01*
X0194937Y0097240D02*
X0194570Y0096873D01*
X0194203Y0096873D01*
X0193836Y0097240D01*
X0193836Y0097974D01*
X0194203Y0098341D01*
X0194570Y0098341D01*
X0194937Y0097974D01*
X0178321Y0096873D02*
X0177954Y0096873D01*
X0176486Y0098341D01*
X0176119Y0098341D01*
X0176119Y0096873D01*
X0176486Y0096131D02*
X0177220Y0096131D01*
X0177587Y0095764D01*
X0177587Y0094663D01*
X0177587Y0095397D02*
X0178321Y0096131D01*
X0178321Y0094663D02*
X0176119Y0094663D01*
X0176119Y0095764D01*
X0176486Y0096131D01*
X0180056Y0086404D02*
X0181157Y0085303D01*
X0181157Y0086771D01*
X0182258Y0086404D02*
X0180056Y0086404D01*
X0182625Y0084561D02*
X0182625Y0083093D01*
X0182258Y0082351D02*
X0180056Y0082351D01*
X0180056Y0080883D02*
X0182258Y0080883D01*
X0181524Y0081617D01*
X0182258Y0082351D01*
X0189899Y0081984D02*
X0189899Y0081250D01*
X0190266Y0080883D01*
X0191734Y0080883D01*
X0192101Y0081250D01*
X0192101Y0081984D01*
X0191734Y0082351D01*
X0191000Y0082351D01*
X0191000Y0081617D01*
X0190266Y0082351D02*
X0189899Y0081984D01*
X0192468Y0083093D02*
X0192468Y0084561D01*
X0191000Y0085303D02*
X0191000Y0086771D01*
X0192101Y0086404D02*
X0189899Y0086404D01*
X0191000Y0085303D01*
X0156668Y0094663D02*
X0154466Y0094663D01*
X0154466Y0095764D01*
X0154833Y0096131D01*
X0155567Y0096131D01*
X0155934Y0095764D01*
X0155934Y0094663D01*
X0155934Y0095397D02*
X0156668Y0096131D01*
X0156301Y0096873D02*
X0155934Y0096873D01*
X0155567Y0097240D01*
X0155567Y0097974D01*
X0155934Y0098341D01*
X0156301Y0098341D01*
X0156668Y0097974D01*
X0156668Y0097240D01*
X0156301Y0096873D01*
X0155567Y0097240D02*
X0155200Y0096873D01*
X0154833Y0096873D01*
X0154466Y0097240D01*
X0154466Y0097974D01*
X0154833Y0098341D01*
X0155200Y0098341D01*
X0155567Y0097974D01*
X0151630Y0086771D02*
X0151630Y0085303D01*
X0150529Y0086404D01*
X0152731Y0086404D01*
X0153098Y0084561D02*
X0153098Y0083093D01*
X0152364Y0082351D02*
X0151630Y0082351D01*
X0151630Y0081617D01*
X0150896Y0080883D02*
X0152364Y0080883D01*
X0152731Y0081250D01*
X0152731Y0081984D01*
X0152364Y0082351D01*
X0150896Y0082351D02*
X0150529Y0081984D01*
X0150529Y0081250D01*
X0150896Y0080883D01*
X0143255Y0083093D02*
X0143255Y0084561D01*
X0141787Y0085303D02*
X0141787Y0086771D01*
X0140686Y0086404D02*
X0141787Y0085303D01*
X0142888Y0086404D02*
X0140686Y0086404D01*
X0140686Y0082351D02*
X0142888Y0082351D01*
X0142154Y0081617D01*
X0142888Y0080883D01*
X0140686Y0080883D01*
X0138951Y0094663D02*
X0136749Y0094663D01*
X0136749Y0095764D01*
X0137116Y0096131D01*
X0137850Y0096131D01*
X0138217Y0095764D01*
X0138217Y0094663D01*
X0138217Y0095397D02*
X0138951Y0096131D01*
X0138951Y0096873D02*
X0138584Y0096873D01*
X0137116Y0098341D01*
X0136749Y0098341D01*
X0136749Y0096873D01*
X0140686Y0041496D02*
X0140686Y0040028D01*
X0141787Y0040028D01*
X0141420Y0040762D01*
X0141420Y0041129D01*
X0141787Y0041496D01*
X0142521Y0041496D01*
X0142888Y0041129D01*
X0142888Y0040395D01*
X0142521Y0040028D01*
X0143255Y0039286D02*
X0143255Y0037818D01*
X0142888Y0037076D02*
X0140686Y0037076D01*
X0140686Y0035608D02*
X0142888Y0035608D01*
X0142154Y0036342D01*
X0142888Y0037076D01*
X0150529Y0036709D02*
X0150529Y0035975D01*
X0150896Y0035608D01*
X0152364Y0035608D01*
X0152731Y0035975D01*
X0152731Y0036709D01*
X0152364Y0037076D01*
X0151630Y0037076D01*
X0151630Y0036342D01*
X0150896Y0037076D02*
X0150529Y0036709D01*
X0153098Y0037818D02*
X0153098Y0039286D01*
X0152364Y0040028D02*
X0152731Y0040395D01*
X0152731Y0041129D01*
X0152364Y0041496D01*
X0151630Y0041496D01*
X0151263Y0041129D01*
X0151263Y0040762D01*
X0151630Y0040028D01*
X0150529Y0040028D01*
X0150529Y0041496D01*
X0150896Y0029685D02*
X0152364Y0028217D01*
X0152731Y0028584D01*
X0152731Y0029318D01*
X0152364Y0029685D01*
X0150896Y0029685D01*
X0150529Y0029318D01*
X0150529Y0028584D01*
X0150896Y0028217D01*
X0152364Y0028217D01*
X0152731Y0027475D02*
X0152731Y0026007D01*
X0152731Y0026741D02*
X0150529Y0026741D01*
X0151263Y0026007D01*
X0151630Y0025265D02*
X0151997Y0024898D01*
X0151997Y0023797D01*
X0152731Y0023797D02*
X0150529Y0023797D01*
X0150529Y0024898D01*
X0150896Y0025265D01*
X0151630Y0025265D01*
X0151997Y0024531D02*
X0152731Y0025265D01*
X0142888Y0025765D02*
X0140686Y0025765D01*
X0140686Y0026866D01*
X0141053Y0027233D01*
X0141787Y0027233D01*
X0142154Y0026866D01*
X0142154Y0025765D01*
X0142154Y0026499D02*
X0142888Y0027233D01*
X0142521Y0027975D02*
X0142888Y0028342D01*
X0142888Y0029076D01*
X0142521Y0029443D01*
X0141053Y0029443D01*
X0140686Y0029076D01*
X0140686Y0028342D01*
X0141053Y0027975D01*
X0141420Y0027975D01*
X0141787Y0028342D01*
X0141787Y0029443D01*
X0113361Y0029318D02*
X0113361Y0028584D01*
X0112994Y0028217D01*
X0111526Y0029685D01*
X0112994Y0029685D01*
X0113361Y0029318D01*
X0112994Y0028217D02*
X0111526Y0028217D01*
X0111159Y0028584D01*
X0111159Y0029318D01*
X0111526Y0029685D01*
X0113361Y0027475D02*
X0113361Y0026007D01*
X0113361Y0026741D02*
X0111159Y0026741D01*
X0111893Y0026007D01*
X0112260Y0025265D02*
X0112627Y0024898D01*
X0112627Y0023797D01*
X0113361Y0023797D02*
X0111159Y0023797D01*
X0111159Y0024898D01*
X0111526Y0025265D01*
X0112260Y0025265D01*
X0112627Y0024531D02*
X0113361Y0025265D01*
X0103518Y0025765D02*
X0101316Y0025765D01*
X0101316Y0026866D01*
X0101683Y0027233D01*
X0102417Y0027233D01*
X0102784Y0026866D01*
X0102784Y0025765D01*
X0102784Y0026499D02*
X0103518Y0027233D01*
X0103151Y0027975D02*
X0103518Y0028342D01*
X0103518Y0029076D01*
X0103151Y0029443D01*
X0101683Y0029443D01*
X0101316Y0029076D01*
X0101316Y0028342D01*
X0101683Y0027975D01*
X0102050Y0027975D01*
X0102417Y0028342D01*
X0102417Y0029443D01*
X0101316Y0035608D02*
X0103518Y0035608D01*
X0102784Y0036342D01*
X0103518Y0037076D01*
X0101316Y0037076D01*
X0103885Y0037818D02*
X0103885Y0039286D01*
X0103151Y0040028D02*
X0103518Y0040395D01*
X0103518Y0041129D01*
X0103151Y0041496D01*
X0102417Y0041496D01*
X0102050Y0041129D01*
X0102050Y0040762D01*
X0102417Y0040028D01*
X0101316Y0040028D01*
X0101316Y0041496D01*
X0111159Y0041496D02*
X0111159Y0040028D01*
X0112260Y0040028D01*
X0111893Y0040762D01*
X0111893Y0041129D01*
X0112260Y0041496D01*
X0112994Y0041496D01*
X0113361Y0041129D01*
X0113361Y0040395D01*
X0112994Y0040028D01*
X0113728Y0039286D02*
X0113728Y0037818D01*
X0112994Y0037076D02*
X0112260Y0037076D01*
X0112260Y0036342D01*
X0112994Y0037076D02*
X0113361Y0036709D01*
X0113361Y0035975D01*
X0112994Y0035608D01*
X0111526Y0035608D01*
X0111159Y0035975D01*
X0111159Y0036709D01*
X0111526Y0037076D01*
X0074357Y0037818D02*
X0074357Y0039286D01*
X0073624Y0040028D02*
X0073991Y0040395D01*
X0073991Y0041129D01*
X0073624Y0041496D01*
X0072890Y0041496D01*
X0072523Y0041129D01*
X0072523Y0040762D01*
X0072890Y0040028D01*
X0071789Y0040028D01*
X0071789Y0041496D01*
X0072156Y0037076D02*
X0071789Y0036709D01*
X0071789Y0035975D01*
X0072156Y0035608D01*
X0073624Y0035608D01*
X0073991Y0035975D01*
X0073991Y0036709D01*
X0073624Y0037076D01*
X0072890Y0037076D01*
X0072890Y0036342D01*
X0064515Y0037818D02*
X0064515Y0039286D01*
X0063781Y0040028D02*
X0064148Y0040395D01*
X0064148Y0041129D01*
X0063781Y0041496D01*
X0063047Y0041496D01*
X0062680Y0041129D01*
X0062680Y0040762D01*
X0063047Y0040028D01*
X0061946Y0040028D01*
X0061946Y0041496D01*
X0061946Y0037076D02*
X0064148Y0037076D01*
X0063414Y0036342D01*
X0064148Y0035608D01*
X0061946Y0035608D01*
X0062313Y0029443D02*
X0061946Y0029076D01*
X0061946Y0028342D01*
X0062313Y0027975D01*
X0062680Y0027975D01*
X0063047Y0028342D01*
X0063047Y0029443D01*
X0063781Y0029443D02*
X0062313Y0029443D01*
X0063781Y0029443D02*
X0064148Y0029076D01*
X0064148Y0028342D01*
X0063781Y0027975D01*
X0064148Y0027233D02*
X0063414Y0026499D01*
X0063414Y0026866D02*
X0063414Y0025765D01*
X0064148Y0025765D02*
X0061946Y0025765D01*
X0061946Y0026866D01*
X0062313Y0027233D01*
X0063047Y0027233D01*
X0063414Y0026866D01*
X0071789Y0026741D02*
X0073991Y0026741D01*
X0073991Y0026007D02*
X0073991Y0027475D01*
X0073624Y0028217D02*
X0072156Y0028217D01*
X0071789Y0028584D01*
X0071789Y0029318D01*
X0072156Y0029685D01*
X0073624Y0028217D01*
X0073991Y0028584D01*
X0073991Y0029318D01*
X0073624Y0029685D01*
X0072156Y0029685D01*
X0071789Y0026741D02*
X0072523Y0026007D01*
X0072890Y0025265D02*
X0073257Y0024898D01*
X0073257Y0023797D01*
X0073991Y0023797D02*
X0071789Y0023797D01*
X0071789Y0024898D01*
X0072156Y0025265D01*
X0072890Y0025265D01*
X0073257Y0024531D02*
X0073991Y0025265D01*
X0180056Y0025765D02*
X0180056Y0026866D01*
X0180423Y0027233D01*
X0181157Y0027233D01*
X0181524Y0026866D01*
X0181524Y0025765D01*
X0182258Y0025765D02*
X0180056Y0025765D01*
X0181524Y0026499D02*
X0182258Y0027233D01*
X0181891Y0027975D02*
X0182258Y0028342D01*
X0182258Y0029076D01*
X0181891Y0029443D01*
X0180423Y0029443D01*
X0180056Y0029076D01*
X0180056Y0028342D01*
X0180423Y0027975D01*
X0180790Y0027975D01*
X0181157Y0028342D01*
X0181157Y0029443D01*
X0180056Y0035608D02*
X0182258Y0035608D01*
X0181524Y0036342D01*
X0182258Y0037076D01*
X0180056Y0037076D01*
X0182625Y0037818D02*
X0182625Y0039286D01*
X0181891Y0040028D02*
X0182258Y0040395D01*
X0182258Y0041129D01*
X0181891Y0041496D01*
X0181157Y0041496D01*
X0180790Y0041129D01*
X0180790Y0040762D01*
X0181157Y0040028D01*
X0180056Y0040028D01*
X0180056Y0041496D01*
X0189899Y0041496D02*
X0189899Y0040028D01*
X0191000Y0040028D01*
X0190633Y0040762D01*
X0190633Y0041129D01*
X0191000Y0041496D01*
X0191734Y0041496D01*
X0192101Y0041129D01*
X0192101Y0040395D01*
X0191734Y0040028D01*
X0192468Y0039286D02*
X0192468Y0037818D01*
X0191734Y0037076D02*
X0191000Y0037076D01*
X0191000Y0036342D01*
X0191734Y0037076D02*
X0192101Y0036709D01*
X0192101Y0035975D01*
X0191734Y0035608D01*
X0190266Y0035608D01*
X0189899Y0035975D01*
X0189899Y0036709D01*
X0190266Y0037076D01*
X0190266Y0029685D02*
X0191734Y0028217D01*
X0192101Y0028584D01*
X0192101Y0029318D01*
X0191734Y0029685D01*
X0190266Y0029685D01*
X0189899Y0029318D01*
X0189899Y0028584D01*
X0190266Y0028217D01*
X0191734Y0028217D01*
X0192101Y0027475D02*
X0192101Y0026007D01*
X0192101Y0026741D02*
X0189899Y0026741D01*
X0190633Y0026007D01*
X0191000Y0025265D02*
X0191367Y0024898D01*
X0191367Y0023797D01*
X0192101Y0023797D02*
X0189899Y0023797D01*
X0189899Y0024898D01*
X0190266Y0025265D01*
X0191000Y0025265D01*
X0191367Y0024531D02*
X0192101Y0025265D01*
X0219426Y0025765D02*
X0219426Y0026866D01*
X0219793Y0027233D01*
X0220527Y0027233D01*
X0220894Y0026866D01*
X0220894Y0025765D01*
X0220894Y0026499D02*
X0221628Y0027233D01*
X0221261Y0027975D02*
X0221628Y0028342D01*
X0221628Y0029076D01*
X0221261Y0029443D01*
X0219793Y0029443D01*
X0219426Y0029076D01*
X0219426Y0028342D01*
X0219793Y0027975D01*
X0220160Y0027975D01*
X0220527Y0028342D01*
X0220527Y0029443D01*
X0221628Y0025765D02*
X0219426Y0025765D01*
X0229269Y0024898D02*
X0229636Y0025265D01*
X0230370Y0025265D01*
X0230737Y0024898D01*
X0230737Y0023797D01*
X0230737Y0024531D02*
X0231471Y0025265D01*
X0231471Y0026007D02*
X0231471Y0027475D01*
X0231471Y0026741D02*
X0229269Y0026741D01*
X0230003Y0026007D01*
X0229269Y0024898D02*
X0229269Y0023797D01*
X0231471Y0023797D01*
X0231104Y0028217D02*
X0229636Y0028217D01*
X0229269Y0028584D01*
X0229269Y0029318D01*
X0229636Y0029685D01*
X0231104Y0028217D01*
X0231471Y0028584D01*
X0231471Y0029318D01*
X0231104Y0029685D01*
X0229636Y0029685D01*
X0229636Y0035608D02*
X0231104Y0035608D01*
X0231471Y0035975D01*
X0231471Y0036709D01*
X0231104Y0037076D01*
X0230370Y0037076D01*
X0230370Y0036342D01*
X0229636Y0037076D02*
X0229269Y0036709D01*
X0229269Y0035975D01*
X0229636Y0035608D01*
X0231838Y0037818D02*
X0231838Y0039286D01*
X0231104Y0040028D02*
X0231471Y0040395D01*
X0231471Y0041129D01*
X0231104Y0041496D01*
X0230370Y0041496D01*
X0230003Y0041129D01*
X0230003Y0040762D01*
X0230370Y0040028D01*
X0229269Y0040028D01*
X0229269Y0041496D01*
X0221995Y0039286D02*
X0221995Y0037818D01*
X0221628Y0037076D02*
X0219426Y0037076D01*
X0219426Y0035608D02*
X0221628Y0035608D01*
X0220894Y0036342D01*
X0221628Y0037076D01*
X0221261Y0040028D02*
X0221628Y0040395D01*
X0221628Y0041129D01*
X0221261Y0041496D01*
X0220527Y0041496D01*
X0220160Y0041129D01*
X0220160Y0040762D01*
X0220527Y0040028D01*
X0219426Y0040028D01*
X0219426Y0041496D01*
D14*
X0234850Y0061826D02*
X0237752Y0063761D01*
X0237752Y0064773D02*
X0237752Y0066708D01*
X0237752Y0065740D02*
X0234850Y0065740D01*
X0235817Y0064773D01*
X0234850Y0063761D02*
X0237752Y0061826D01*
X0198382Y0061826D02*
X0195480Y0063761D01*
X0196447Y0064773D02*
X0195480Y0065740D01*
X0198382Y0065740D01*
X0198382Y0064773D02*
X0198382Y0066708D01*
X0198382Y0063761D02*
X0195480Y0061826D01*
X0159012Y0061826D02*
X0156110Y0063761D01*
X0157077Y0064773D02*
X0156110Y0065740D01*
X0159012Y0065740D01*
X0159012Y0064773D02*
X0159012Y0066708D01*
X0159012Y0063761D02*
X0156110Y0061826D01*
X0119642Y0061826D02*
X0116740Y0063761D01*
X0117707Y0064773D02*
X0116740Y0065740D01*
X0119642Y0065740D01*
X0119642Y0064773D02*
X0119642Y0066708D01*
X0119642Y0063761D02*
X0116740Y0061826D01*
X0080272Y0061826D02*
X0077370Y0063761D01*
X0078337Y0064773D02*
X0077370Y0065740D01*
X0080272Y0065740D01*
X0080272Y0064773D02*
X0080272Y0066708D01*
X0080272Y0063761D02*
X0077370Y0061826D01*
X0076944Y0108493D02*
X0079846Y0110428D01*
X0079846Y0111439D02*
X0077911Y0113374D01*
X0077427Y0113374D01*
X0076944Y0112890D01*
X0076944Y0111923D01*
X0077427Y0111439D01*
X0076944Y0110428D02*
X0079846Y0108493D01*
X0079846Y0111439D02*
X0079846Y0113374D01*
X0116314Y0112890D02*
X0116314Y0111923D01*
X0116797Y0111439D01*
X0116314Y0110428D02*
X0119216Y0108493D01*
X0119216Y0110428D02*
X0116314Y0108493D01*
X0119216Y0111439D02*
X0117281Y0113374D01*
X0116797Y0113374D01*
X0116314Y0112890D01*
X0119216Y0113374D02*
X0119216Y0111439D01*
X0155684Y0111923D02*
X0156168Y0111439D01*
X0155684Y0111923D02*
X0155684Y0112890D01*
X0156168Y0113374D01*
X0156651Y0113374D01*
X0158586Y0111439D01*
X0158586Y0113374D01*
X0158586Y0110428D02*
X0155684Y0108493D01*
X0155684Y0110428D02*
X0158586Y0108493D01*
X0195054Y0108493D02*
X0197956Y0110428D01*
X0197956Y0111439D02*
X0196021Y0113374D01*
X0195538Y0113374D01*
X0195054Y0112890D01*
X0195054Y0111923D01*
X0195538Y0111439D01*
X0195054Y0110428D02*
X0197956Y0108493D01*
X0197956Y0111439D02*
X0197956Y0113374D01*
X0234424Y0112890D02*
X0234424Y0111923D01*
X0234908Y0111439D01*
X0234424Y0110428D02*
X0237326Y0108493D01*
X0237326Y0110428D02*
X0234424Y0108493D01*
X0237326Y0111439D02*
X0235391Y0113374D01*
X0234908Y0113374D01*
X0234424Y0112890D01*
X0237326Y0113374D02*
X0237326Y0111439D01*
D15*
X0236886Y0119366D02*
X0236886Y0120941D01*
X0234130Y0120941D02*
X0234130Y0119366D01*
X0217201Y0119366D02*
X0217201Y0120941D01*
X0214445Y0120941D02*
X0214445Y0119366D01*
X0197516Y0119366D02*
X0197516Y0120941D01*
X0194760Y0120941D02*
X0194760Y0119366D01*
X0177831Y0119366D02*
X0177831Y0120941D01*
X0175075Y0120941D02*
X0175075Y0119366D01*
X0158146Y0119366D02*
X0158146Y0120941D01*
X0155390Y0120941D02*
X0155390Y0119366D01*
X0138461Y0119366D02*
X0138461Y0120941D01*
X0135705Y0120941D02*
X0135705Y0119366D01*
X0118776Y0119366D02*
X0118776Y0120941D01*
X0116020Y0120941D02*
X0116020Y0119366D01*
X0099091Y0119366D02*
X0099091Y0120941D01*
X0096335Y0120941D02*
X0096335Y0119366D01*
X0079406Y0119366D02*
X0079406Y0120941D01*
X0076650Y0120941D02*
X0076650Y0119366D01*
X0059720Y0119366D02*
X0059720Y0120941D01*
X0056965Y0120941D02*
X0056965Y0119366D01*
X0056965Y0081571D02*
X0056965Y0079996D01*
X0059720Y0079996D02*
X0059720Y0081571D01*
X0076650Y0081571D02*
X0076650Y0079996D01*
X0079406Y0079996D02*
X0079406Y0081571D01*
X0096335Y0081571D02*
X0096335Y0079996D01*
X0099091Y0079996D02*
X0099091Y0081571D01*
X0116020Y0081571D02*
X0116020Y0079996D01*
X0118776Y0079996D02*
X0118776Y0081571D01*
X0135705Y0081571D02*
X0135705Y0079996D01*
X0138461Y0079996D02*
X0138461Y0081571D01*
X0155390Y0081571D02*
X0155390Y0079996D01*
X0158146Y0079996D02*
X0158146Y0081571D01*
X0175075Y0081571D02*
X0175075Y0079996D01*
X0177831Y0079996D02*
X0177831Y0081571D01*
X0194760Y0081571D02*
X0194760Y0079996D01*
X0197516Y0079996D02*
X0197516Y0081571D01*
X0214445Y0081571D02*
X0214445Y0079996D01*
X0217201Y0079996D02*
X0217201Y0081571D01*
X0234130Y0081571D02*
X0234130Y0079996D01*
X0236886Y0079996D02*
X0236886Y0081571D01*
X0236886Y0042201D02*
X0236886Y0040626D01*
X0234130Y0040626D02*
X0234130Y0042201D01*
X0217201Y0042201D02*
X0217201Y0040626D01*
X0214445Y0040626D02*
X0214445Y0042201D01*
X0197516Y0042201D02*
X0197516Y0040626D01*
X0194760Y0040626D02*
X0194760Y0042201D01*
X0177831Y0042201D02*
X0177831Y0040626D01*
X0175075Y0040626D02*
X0175075Y0042201D01*
X0158146Y0042201D02*
X0158146Y0040626D01*
X0155390Y0040626D02*
X0155390Y0042201D01*
X0138461Y0042201D02*
X0138461Y0040626D01*
X0135705Y0040626D02*
X0135705Y0042201D01*
X0118776Y0042201D02*
X0118776Y0040626D01*
X0116020Y0040626D02*
X0116020Y0042201D01*
X0099091Y0042201D02*
X0099091Y0040626D01*
X0096335Y0040626D02*
X0096335Y0042201D01*
X0079406Y0042201D02*
X0079406Y0040626D01*
X0076650Y0040626D02*
X0076650Y0042201D01*
X0059720Y0042201D02*
X0059720Y0040626D01*
X0056965Y0040626D02*
X0056965Y0042201D01*
X0056965Y0158736D02*
X0056965Y0160311D01*
X0059720Y0160311D02*
X0059720Y0158736D01*
X0076650Y0158736D02*
X0076650Y0160311D01*
X0079406Y0160311D02*
X0079406Y0158736D01*
X0096335Y0158736D02*
X0096335Y0160311D01*
X0099091Y0160311D02*
X0099091Y0158736D01*
X0116020Y0158736D02*
X0116020Y0160311D01*
X0118776Y0160311D02*
X0118776Y0158736D01*
X0135705Y0158736D02*
X0135705Y0160311D01*
X0138461Y0160311D02*
X0138461Y0158736D01*
X0155390Y0158736D02*
X0155390Y0160311D01*
X0158146Y0160311D02*
X0158146Y0158736D01*
X0175075Y0158736D02*
X0175075Y0160311D01*
X0177831Y0160311D02*
X0177831Y0158736D01*
X0194760Y0158736D02*
X0194760Y0160311D01*
X0197516Y0160311D02*
X0197516Y0158736D01*
X0214445Y0158736D02*
X0214445Y0160311D01*
X0217201Y0160311D02*
X0217201Y0158736D01*
X0234130Y0158736D02*
X0234130Y0160311D01*
X0236886Y0160311D02*
X0236886Y0158736D01*
X0236886Y0198106D02*
X0236886Y0199681D01*
X0234130Y0199681D02*
X0234130Y0198106D01*
X0217201Y0198106D02*
X0217201Y0199681D01*
X0214445Y0199681D02*
X0214445Y0198106D01*
X0197516Y0198106D02*
X0197516Y0199681D01*
X0194760Y0199681D02*
X0194760Y0198106D01*
X0177831Y0198106D02*
X0177831Y0199681D01*
X0175075Y0199681D02*
X0175075Y0198106D01*
X0158146Y0198106D02*
X0158146Y0199681D01*
X0155390Y0199681D02*
X0155390Y0198106D01*
X0138461Y0198106D02*
X0138461Y0199681D01*
X0135705Y0199681D02*
X0135705Y0198106D01*
X0118776Y0198106D02*
X0118776Y0199681D01*
X0116020Y0199681D02*
X0116020Y0198106D01*
X0099091Y0198106D02*
X0099091Y0199681D01*
X0096335Y0199681D02*
X0096335Y0198106D01*
X0079406Y0198106D02*
X0079406Y0199681D01*
X0076650Y0199681D02*
X0076650Y0198106D01*
X0059720Y0198106D02*
X0059720Y0199681D01*
X0056965Y0199681D02*
X0056965Y0198106D01*
D16*
X0059474Y0199386D03*
X0079159Y0199386D03*
X0098844Y0199386D03*
X0118530Y0199386D03*
X0138215Y0199386D03*
X0157900Y0199386D03*
X0177585Y0199386D03*
X0197270Y0199386D03*
X0216955Y0199386D03*
X0236640Y0199386D03*
X0234376Y0159031D03*
X0214691Y0159031D03*
X0195006Y0159031D03*
X0175321Y0159031D03*
X0155636Y0159031D03*
X0135951Y0159031D03*
X0116266Y0159031D03*
X0096581Y0159031D03*
X0076896Y0159031D03*
X0057211Y0159031D03*
X0057211Y0119661D03*
X0076896Y0119661D03*
X0096581Y0119661D03*
X0116266Y0119661D03*
X0135951Y0119661D03*
X0155636Y0119661D03*
X0175321Y0119661D03*
X0195006Y0119661D03*
X0214691Y0119661D03*
X0234376Y0119661D03*
X0234376Y0080291D03*
X0214691Y0080291D03*
X0195006Y0080291D03*
X0175321Y0080291D03*
X0155636Y0080291D03*
X0135951Y0080291D03*
X0116266Y0080291D03*
X0096581Y0080291D03*
X0076896Y0080291D03*
X0057211Y0080291D03*
X0059474Y0041906D03*
X0079159Y0041906D03*
X0098844Y0041906D03*
X0118530Y0041906D03*
X0138215Y0041906D03*
X0157900Y0041906D03*
X0177585Y0041906D03*
X0197270Y0041906D03*
X0216955Y0041906D03*
X0236640Y0041906D03*
D17*
X0230417Y0048728D02*
X0230417Y0053728D01*
X0227917Y0056228D01*
X0230417Y0058728D01*
X0230417Y0063728D01*
X0227917Y0066228D01*
X0230417Y0068728D01*
X0230417Y0073728D01*
X0227917Y0076228D01*
X0222917Y0076228D01*
X0220417Y0073728D01*
X0220417Y0068728D01*
X0222917Y0066228D01*
X0227917Y0066228D01*
X0222917Y0066228D02*
X0220417Y0063728D01*
X0220417Y0058728D01*
X0222917Y0056228D01*
X0227917Y0056228D01*
X0222917Y0056228D02*
X0220417Y0053728D01*
X0220417Y0048728D01*
X0222917Y0046228D01*
X0227917Y0046228D01*
X0230417Y0048728D01*
X0191047Y0048728D02*
X0191047Y0053728D01*
X0188547Y0056228D01*
X0191047Y0058728D01*
X0191047Y0063728D01*
X0188547Y0066228D01*
X0191047Y0068728D01*
X0191047Y0073728D01*
X0188547Y0076228D01*
X0183547Y0076228D01*
X0181047Y0073728D01*
X0181047Y0068728D01*
X0183547Y0066228D01*
X0188547Y0066228D01*
X0183547Y0066228D02*
X0181047Y0063728D01*
X0181047Y0058728D01*
X0183547Y0056228D01*
X0188547Y0056228D01*
X0183547Y0056228D02*
X0181047Y0053728D01*
X0181047Y0048728D01*
X0183547Y0046228D01*
X0188547Y0046228D01*
X0191047Y0048728D01*
X0151677Y0048728D02*
X0151677Y0053728D01*
X0149177Y0056228D01*
X0151677Y0058728D01*
X0151677Y0063728D01*
X0149177Y0066228D01*
X0151677Y0068728D01*
X0151677Y0073728D01*
X0149177Y0076228D01*
X0144177Y0076228D01*
X0141677Y0073728D01*
X0141677Y0068728D01*
X0144177Y0066228D01*
X0149177Y0066228D01*
X0144177Y0066228D02*
X0141677Y0063728D01*
X0141677Y0058728D01*
X0144177Y0056228D01*
X0149177Y0056228D01*
X0144177Y0056228D02*
X0141677Y0053728D01*
X0141677Y0048728D01*
X0144177Y0046228D01*
X0149177Y0046228D01*
X0151677Y0048728D01*
X0112307Y0048728D02*
X0112307Y0053728D01*
X0109807Y0056228D01*
X0112307Y0058728D01*
X0112307Y0063728D01*
X0109807Y0066228D01*
X0112307Y0068728D01*
X0112307Y0073728D01*
X0109807Y0076228D01*
X0104807Y0076228D01*
X0102307Y0073728D01*
X0102307Y0068728D01*
X0104807Y0066228D01*
X0109807Y0066228D01*
X0104807Y0066228D02*
X0102307Y0063728D01*
X0102307Y0058728D01*
X0104807Y0056228D01*
X0109807Y0056228D01*
X0104807Y0056228D02*
X0102307Y0053728D01*
X0102307Y0048728D01*
X0104807Y0046228D01*
X0109807Y0046228D01*
X0112307Y0048728D01*
X0072937Y0048728D02*
X0072937Y0053728D01*
X0070437Y0056228D01*
X0072937Y0058728D01*
X0072937Y0063728D01*
X0070437Y0066228D01*
X0072937Y0068728D01*
X0072937Y0073728D01*
X0070437Y0076228D01*
X0065437Y0076228D01*
X0062937Y0073728D01*
X0062937Y0068728D01*
X0065437Y0066228D01*
X0070437Y0066228D01*
X0065437Y0066228D02*
X0062937Y0063728D01*
X0062937Y0058728D01*
X0065437Y0056228D01*
X0070437Y0056228D01*
X0065437Y0056228D02*
X0062937Y0053728D01*
X0062937Y0048728D01*
X0065437Y0046228D01*
X0070437Y0046228D01*
X0072937Y0048728D01*
X0070685Y0096374D02*
X0065685Y0096374D01*
X0063185Y0098874D01*
X0063185Y0103874D01*
X0065685Y0106374D01*
X0063185Y0108874D01*
X0063185Y0113874D01*
X0065685Y0116374D01*
X0070685Y0116374D01*
X0073185Y0113874D01*
X0073185Y0108874D01*
X0070685Y0106374D01*
X0073185Y0103874D01*
X0073185Y0098874D01*
X0070685Y0096374D01*
X0070685Y0106374D02*
X0065685Y0106374D01*
X0102555Y0103874D02*
X0102555Y0098874D01*
X0105055Y0096374D01*
X0110055Y0096374D01*
X0112555Y0098874D01*
X0112555Y0103874D01*
X0110055Y0106374D01*
X0112555Y0108874D01*
X0112555Y0113874D01*
X0110055Y0116374D01*
X0105055Y0116374D01*
X0102555Y0113874D01*
X0102555Y0108874D01*
X0105055Y0106374D01*
X0110055Y0106374D01*
X0105055Y0106374D02*
X0102555Y0103874D01*
X0141925Y0103874D02*
X0141925Y0098874D01*
X0144425Y0096374D01*
X0149425Y0096374D01*
X0151925Y0098874D01*
X0151925Y0103874D01*
X0149425Y0106374D01*
X0151925Y0108874D01*
X0151925Y0113874D01*
X0149425Y0116374D01*
X0144425Y0116374D01*
X0141925Y0113874D01*
X0141925Y0108874D01*
X0144425Y0106374D01*
X0149425Y0106374D01*
X0144425Y0106374D02*
X0141925Y0103874D01*
X0181295Y0103874D02*
X0181295Y0098874D01*
X0183795Y0096374D01*
X0188795Y0096374D01*
X0191295Y0098874D01*
X0191295Y0103874D01*
X0188795Y0106374D01*
X0191295Y0108874D01*
X0191295Y0113874D01*
X0188795Y0116374D01*
X0183795Y0116374D01*
X0181295Y0113874D01*
X0181295Y0108874D01*
X0183795Y0106374D01*
X0188795Y0106374D01*
X0183795Y0106374D02*
X0181295Y0103874D01*
X0220665Y0103874D02*
X0220665Y0098874D01*
X0223165Y0096374D01*
X0228165Y0096374D01*
X0230665Y0098874D01*
X0230665Y0103874D01*
X0228165Y0106374D01*
X0230665Y0108874D01*
X0230665Y0113874D01*
X0228165Y0116374D01*
X0223165Y0116374D01*
X0220665Y0113874D01*
X0220665Y0108874D01*
X0223165Y0106374D01*
X0228165Y0106374D01*
X0223165Y0106374D02*
X0220665Y0103874D01*
D18*
X0220025Y0137870D02*
X0231306Y0137870D01*
X0231306Y0140528D01*
X0227257Y0140062D02*
X0223013Y0140062D01*
X0222962Y0140064D01*
X0222912Y0140070D01*
X0222862Y0140079D01*
X0222813Y0140093D01*
X0222765Y0140110D01*
X0222719Y0140131D01*
X0222674Y0140155D01*
X0222632Y0140183D01*
X0222591Y0140214D01*
X0222553Y0140247D01*
X0222518Y0140284D01*
X0222486Y0140323D01*
X0222457Y0140365D01*
X0222431Y0140408D01*
X0222408Y0140454D01*
X0222389Y0140501D01*
X0222374Y0140549D01*
X0222362Y0140599D01*
X0222354Y0140649D01*
X0222350Y0140700D01*
X0222350Y0140750D01*
X0222354Y0140801D01*
X0222362Y0140851D01*
X0222374Y0140901D01*
X0222389Y0140949D01*
X0222408Y0140996D01*
X0222431Y0141042D01*
X0222457Y0141085D01*
X0222486Y0141127D01*
X0222518Y0141166D01*
X0222553Y0141203D01*
X0222591Y0141236D01*
X0222632Y0141267D01*
X0222674Y0141295D01*
X0222719Y0141319D01*
X0222765Y0141340D01*
X0222813Y0141357D01*
X0222862Y0141371D01*
X0222912Y0141380D01*
X0222962Y0141386D01*
X0223013Y0141388D01*
X0223013Y0141389D02*
X0226461Y0141389D01*
X0226512Y0141391D01*
X0226562Y0141397D01*
X0226612Y0141406D01*
X0226661Y0141420D01*
X0226709Y0141437D01*
X0226755Y0141458D01*
X0226800Y0141482D01*
X0226842Y0141510D01*
X0226883Y0141541D01*
X0226921Y0141574D01*
X0226956Y0141611D01*
X0226988Y0141650D01*
X0227017Y0141692D01*
X0227043Y0141735D01*
X0227066Y0141781D01*
X0227085Y0141828D01*
X0227100Y0141876D01*
X0227112Y0141926D01*
X0227120Y0141976D01*
X0227124Y0142027D01*
X0227124Y0142077D01*
X0227120Y0142128D01*
X0227112Y0142178D01*
X0227100Y0142228D01*
X0227085Y0142276D01*
X0227066Y0142323D01*
X0227043Y0142369D01*
X0227017Y0142412D01*
X0226988Y0142454D01*
X0226956Y0142493D01*
X0226921Y0142530D01*
X0226883Y0142563D01*
X0226842Y0142594D01*
X0226800Y0142622D01*
X0226755Y0142646D01*
X0226709Y0142667D01*
X0226661Y0142684D01*
X0226612Y0142698D01*
X0226562Y0142707D01*
X0226512Y0142713D01*
X0226461Y0142715D01*
X0224870Y0142715D01*
X0224819Y0142717D01*
X0224769Y0142723D01*
X0224719Y0142732D01*
X0224670Y0142746D01*
X0224622Y0142763D01*
X0224576Y0142784D01*
X0224531Y0142808D01*
X0224489Y0142836D01*
X0224448Y0142867D01*
X0224410Y0142900D01*
X0224375Y0142937D01*
X0224343Y0142976D01*
X0224314Y0143018D01*
X0224288Y0143061D01*
X0224265Y0143107D01*
X0224246Y0143154D01*
X0224231Y0143202D01*
X0224219Y0143252D01*
X0224211Y0143302D01*
X0224207Y0143353D01*
X0224207Y0143403D01*
X0224211Y0143454D01*
X0224219Y0143504D01*
X0224231Y0143554D01*
X0224246Y0143602D01*
X0224265Y0143649D01*
X0224288Y0143695D01*
X0224314Y0143738D01*
X0224343Y0143780D01*
X0224375Y0143819D01*
X0224410Y0143856D01*
X0224448Y0143889D01*
X0224489Y0143920D01*
X0224531Y0143948D01*
X0224576Y0143972D01*
X0224622Y0143993D01*
X0224670Y0144010D01*
X0224719Y0144024D01*
X0224769Y0144033D01*
X0224819Y0144039D01*
X0224870Y0144041D01*
X0226461Y0144041D01*
X0226512Y0144043D01*
X0226562Y0144049D01*
X0226612Y0144058D01*
X0226661Y0144072D01*
X0226709Y0144089D01*
X0226755Y0144110D01*
X0226800Y0144134D01*
X0226842Y0144162D01*
X0226883Y0144193D01*
X0226921Y0144226D01*
X0226956Y0144263D01*
X0226988Y0144302D01*
X0227017Y0144344D01*
X0227043Y0144387D01*
X0227066Y0144433D01*
X0227085Y0144480D01*
X0227100Y0144528D01*
X0227112Y0144578D01*
X0227120Y0144628D01*
X0227124Y0144679D01*
X0227124Y0144729D01*
X0227120Y0144780D01*
X0227112Y0144830D01*
X0227100Y0144880D01*
X0227085Y0144928D01*
X0227066Y0144975D01*
X0227043Y0145021D01*
X0227017Y0145064D01*
X0226988Y0145106D01*
X0226956Y0145145D01*
X0226921Y0145182D01*
X0226883Y0145215D01*
X0226842Y0145246D01*
X0226800Y0145274D01*
X0226755Y0145298D01*
X0226709Y0145319D01*
X0226661Y0145336D01*
X0226612Y0145350D01*
X0226562Y0145359D01*
X0226512Y0145365D01*
X0226461Y0145367D01*
X0225135Y0145367D01*
X0225084Y0145369D01*
X0225034Y0145375D01*
X0224984Y0145384D01*
X0224935Y0145398D01*
X0224887Y0145415D01*
X0224841Y0145436D01*
X0224796Y0145460D01*
X0224754Y0145488D01*
X0224713Y0145519D01*
X0224675Y0145552D01*
X0224640Y0145589D01*
X0224608Y0145628D01*
X0224579Y0145670D01*
X0224553Y0145713D01*
X0224530Y0145759D01*
X0224511Y0145806D01*
X0224496Y0145854D01*
X0224484Y0145904D01*
X0224476Y0145954D01*
X0224472Y0146005D01*
X0224472Y0146055D01*
X0224476Y0146106D01*
X0224484Y0146156D01*
X0224496Y0146206D01*
X0224511Y0146254D01*
X0224530Y0146301D01*
X0224553Y0146347D01*
X0224579Y0146390D01*
X0224608Y0146432D01*
X0224640Y0146471D01*
X0224675Y0146508D01*
X0224713Y0146541D01*
X0224754Y0146572D01*
X0224796Y0146600D01*
X0224841Y0146624D01*
X0224887Y0146645D01*
X0224935Y0146662D01*
X0224984Y0146676D01*
X0225034Y0146685D01*
X0225084Y0146691D01*
X0225135Y0146693D01*
X0228318Y0146693D01*
X0228369Y0146695D01*
X0228419Y0146701D01*
X0228469Y0146710D01*
X0228518Y0146724D01*
X0228566Y0146741D01*
X0228612Y0146762D01*
X0228657Y0146786D01*
X0228699Y0146814D01*
X0228740Y0146845D01*
X0228778Y0146878D01*
X0228813Y0146915D01*
X0228845Y0146954D01*
X0228874Y0146996D01*
X0228900Y0147039D01*
X0228923Y0147085D01*
X0228942Y0147132D01*
X0228957Y0147180D01*
X0228969Y0147230D01*
X0228977Y0147280D01*
X0228981Y0147331D01*
X0228981Y0147381D01*
X0228977Y0147432D01*
X0228969Y0147482D01*
X0228957Y0147532D01*
X0228942Y0147580D01*
X0228923Y0147627D01*
X0228900Y0147673D01*
X0228874Y0147716D01*
X0228845Y0147758D01*
X0228813Y0147797D01*
X0228778Y0147834D01*
X0228740Y0147867D01*
X0228699Y0147898D01*
X0228657Y0147926D01*
X0228612Y0147950D01*
X0228566Y0147971D01*
X0228518Y0147988D01*
X0228469Y0148002D01*
X0228419Y0148011D01*
X0228369Y0148017D01*
X0228318Y0148019D01*
X0223278Y0148019D01*
X0223213Y0148021D01*
X0223148Y0148027D01*
X0223084Y0148036D01*
X0223021Y0148050D01*
X0222958Y0148067D01*
X0222896Y0148088D01*
X0222836Y0148113D01*
X0222778Y0148141D01*
X0222721Y0148172D01*
X0222666Y0148207D01*
X0222613Y0148246D01*
X0222563Y0148287D01*
X0222516Y0148331D01*
X0222471Y0148378D01*
X0222428Y0148427D01*
X0222389Y0148479D01*
X0222354Y0148533D01*
X0222321Y0148590D01*
X0222292Y0148648D01*
X0222266Y0148707D01*
X0222244Y0148768D01*
X0222226Y0148831D01*
X0222211Y0148894D01*
X0222200Y0148958D01*
X0222193Y0149023D01*
X0222190Y0149088D01*
X0222191Y0149153D01*
X0222196Y0149217D01*
X0222204Y0149282D01*
X0222216Y0149346D01*
X0220025Y0149681D02*
X0220025Y0147024D01*
X0220025Y0149681D02*
X0231306Y0149681D01*
X0231306Y0147024D01*
X0215626Y0143776D02*
X0215629Y0144022D01*
X0215638Y0144269D01*
X0215653Y0144515D01*
X0215674Y0144760D01*
X0215701Y0145005D01*
X0215735Y0145249D01*
X0215774Y0145492D01*
X0215819Y0145735D01*
X0215870Y0145976D01*
X0215927Y0146215D01*
X0215990Y0146454D01*
X0216058Y0146690D01*
X0216133Y0146925D01*
X0216213Y0147158D01*
X0216299Y0147389D01*
X0216390Y0147618D01*
X0216487Y0147844D01*
X0216590Y0148068D01*
X0216698Y0148290D01*
X0216811Y0148508D01*
X0216930Y0148724D01*
X0217054Y0148937D01*
X0217184Y0149147D01*
X0217318Y0149353D01*
X0217457Y0149557D01*
X0217602Y0149756D01*
X0217751Y0149952D01*
X0217905Y0150145D01*
X0218063Y0150333D01*
X0218227Y0150518D01*
X0218394Y0150698D01*
X0218566Y0150875D01*
X0218743Y0151047D01*
X0218923Y0151214D01*
X0219108Y0151378D01*
X0219296Y0151536D01*
X0219489Y0151690D01*
X0219685Y0151839D01*
X0219884Y0151984D01*
X0220088Y0152123D01*
X0220294Y0152257D01*
X0220504Y0152387D01*
X0220717Y0152511D01*
X0220933Y0152630D01*
X0221151Y0152743D01*
X0221373Y0152851D01*
X0221597Y0152954D01*
X0221823Y0153051D01*
X0222052Y0153142D01*
X0222283Y0153228D01*
X0222516Y0153308D01*
X0222751Y0153383D01*
X0222987Y0153451D01*
X0223226Y0153514D01*
X0223465Y0153571D01*
X0223706Y0153622D01*
X0223949Y0153667D01*
X0224192Y0153706D01*
X0224436Y0153740D01*
X0224681Y0153767D01*
X0224926Y0153788D01*
X0225172Y0153803D01*
X0225419Y0153812D01*
X0225665Y0153815D01*
X0225911Y0153812D01*
X0226158Y0153803D01*
X0226404Y0153788D01*
X0226649Y0153767D01*
X0226894Y0153740D01*
X0227138Y0153706D01*
X0227381Y0153667D01*
X0227624Y0153622D01*
X0227865Y0153571D01*
X0228104Y0153514D01*
X0228343Y0153451D01*
X0228579Y0153383D01*
X0228814Y0153308D01*
X0229047Y0153228D01*
X0229278Y0153142D01*
X0229507Y0153051D01*
X0229733Y0152954D01*
X0229957Y0152851D01*
X0230179Y0152743D01*
X0230397Y0152630D01*
X0230613Y0152511D01*
X0230826Y0152387D01*
X0231036Y0152257D01*
X0231242Y0152123D01*
X0231446Y0151984D01*
X0231645Y0151839D01*
X0231841Y0151690D01*
X0232034Y0151536D01*
X0232222Y0151378D01*
X0232407Y0151214D01*
X0232587Y0151047D01*
X0232764Y0150875D01*
X0232936Y0150698D01*
X0233103Y0150518D01*
X0233267Y0150333D01*
X0233425Y0150145D01*
X0233579Y0149952D01*
X0233728Y0149756D01*
X0233873Y0149557D01*
X0234012Y0149353D01*
X0234146Y0149147D01*
X0234276Y0148937D01*
X0234400Y0148724D01*
X0234519Y0148508D01*
X0234632Y0148290D01*
X0234740Y0148068D01*
X0234843Y0147844D01*
X0234940Y0147618D01*
X0235031Y0147389D01*
X0235117Y0147158D01*
X0235197Y0146925D01*
X0235272Y0146690D01*
X0235340Y0146454D01*
X0235403Y0146215D01*
X0235460Y0145976D01*
X0235511Y0145735D01*
X0235556Y0145492D01*
X0235595Y0145249D01*
X0235629Y0145005D01*
X0235656Y0144760D01*
X0235677Y0144515D01*
X0235692Y0144269D01*
X0235701Y0144022D01*
X0235704Y0143776D01*
X0235701Y0143530D01*
X0235692Y0143283D01*
X0235677Y0143037D01*
X0235656Y0142792D01*
X0235629Y0142547D01*
X0235595Y0142303D01*
X0235556Y0142060D01*
X0235511Y0141817D01*
X0235460Y0141576D01*
X0235403Y0141337D01*
X0235340Y0141098D01*
X0235272Y0140862D01*
X0235197Y0140627D01*
X0235117Y0140394D01*
X0235031Y0140163D01*
X0234940Y0139934D01*
X0234843Y0139708D01*
X0234740Y0139484D01*
X0234632Y0139262D01*
X0234519Y0139044D01*
X0234400Y0138828D01*
X0234276Y0138615D01*
X0234146Y0138405D01*
X0234012Y0138199D01*
X0233873Y0137995D01*
X0233728Y0137796D01*
X0233579Y0137600D01*
X0233425Y0137407D01*
X0233267Y0137219D01*
X0233103Y0137034D01*
X0232936Y0136854D01*
X0232764Y0136677D01*
X0232587Y0136505D01*
X0232407Y0136338D01*
X0232222Y0136174D01*
X0232034Y0136016D01*
X0231841Y0135862D01*
X0231645Y0135713D01*
X0231446Y0135568D01*
X0231242Y0135429D01*
X0231036Y0135295D01*
X0230826Y0135165D01*
X0230613Y0135041D01*
X0230397Y0134922D01*
X0230179Y0134809D01*
X0229957Y0134701D01*
X0229733Y0134598D01*
X0229507Y0134501D01*
X0229278Y0134410D01*
X0229047Y0134324D01*
X0228814Y0134244D01*
X0228579Y0134169D01*
X0228343Y0134101D01*
X0228104Y0134038D01*
X0227865Y0133981D01*
X0227624Y0133930D01*
X0227381Y0133885D01*
X0227138Y0133846D01*
X0226894Y0133812D01*
X0226649Y0133785D01*
X0226404Y0133764D01*
X0226158Y0133749D01*
X0225911Y0133740D01*
X0225665Y0133737D01*
X0225419Y0133740D01*
X0225172Y0133749D01*
X0224926Y0133764D01*
X0224681Y0133785D01*
X0224436Y0133812D01*
X0224192Y0133846D01*
X0223949Y0133885D01*
X0223706Y0133930D01*
X0223465Y0133981D01*
X0223226Y0134038D01*
X0222987Y0134101D01*
X0222751Y0134169D01*
X0222516Y0134244D01*
X0222283Y0134324D01*
X0222052Y0134410D01*
X0221823Y0134501D01*
X0221597Y0134598D01*
X0221373Y0134701D01*
X0221151Y0134809D01*
X0220933Y0134922D01*
X0220717Y0135041D01*
X0220504Y0135165D01*
X0220294Y0135295D01*
X0220088Y0135429D01*
X0219884Y0135568D01*
X0219685Y0135713D01*
X0219489Y0135862D01*
X0219296Y0136016D01*
X0219108Y0136174D01*
X0218923Y0136338D01*
X0218743Y0136505D01*
X0218566Y0136677D01*
X0218394Y0136854D01*
X0218227Y0137034D01*
X0218063Y0137219D01*
X0217905Y0137407D01*
X0217751Y0137600D01*
X0217602Y0137796D01*
X0217457Y0137995D01*
X0217318Y0138199D01*
X0217184Y0138405D01*
X0217054Y0138615D01*
X0216930Y0138828D01*
X0216811Y0139044D01*
X0216698Y0139262D01*
X0216590Y0139484D01*
X0216487Y0139708D01*
X0216390Y0139934D01*
X0216299Y0140163D01*
X0216213Y0140394D01*
X0216133Y0140627D01*
X0216058Y0140862D01*
X0215990Y0141098D01*
X0215927Y0141337D01*
X0215870Y0141576D01*
X0215819Y0141817D01*
X0215774Y0142060D01*
X0215735Y0142303D01*
X0215701Y0142547D01*
X0215674Y0142792D01*
X0215653Y0143037D01*
X0215638Y0143283D01*
X0215629Y0143530D01*
X0215626Y0143776D01*
X0220025Y0140528D02*
X0220025Y0137870D01*
X0227257Y0140062D02*
X0227340Y0140060D01*
X0227423Y0140055D01*
X0227506Y0140045D01*
X0227588Y0140032D01*
X0227670Y0140016D01*
X0227751Y0139995D01*
X0227830Y0139971D01*
X0227909Y0139944D01*
X0227986Y0139913D01*
X0228062Y0139878D01*
X0228136Y0139840D01*
X0228209Y0139799D01*
X0228279Y0139755D01*
X0228348Y0139708D01*
X0228414Y0139657D01*
X0228478Y0139604D01*
X0228539Y0139548D01*
X0228598Y0139489D01*
X0228655Y0139427D01*
X0228708Y0139363D01*
X0228758Y0139297D01*
X0228806Y0139229D01*
X0228850Y0139158D01*
X0228891Y0139086D01*
X0228929Y0139011D01*
X0228964Y0138936D01*
X0228995Y0138858D01*
X0229022Y0138780D01*
X0229046Y0138700D01*
X0229066Y0138619D01*
X0229083Y0138538D01*
X0229096Y0138455D01*
X0229106Y0138373D01*
X0229111Y0138289D01*
X0229113Y0138206D01*
X0213460Y0143776D02*
X0213464Y0144076D01*
X0213475Y0144375D01*
X0213493Y0144674D01*
X0213519Y0144972D01*
X0213552Y0145270D01*
X0213592Y0145567D01*
X0213640Y0145863D01*
X0213695Y0146157D01*
X0213757Y0146450D01*
X0213826Y0146742D01*
X0213902Y0147031D01*
X0213986Y0147319D01*
X0214076Y0147604D01*
X0214173Y0147888D01*
X0214278Y0148169D01*
X0214389Y0148447D01*
X0214507Y0148722D01*
X0214632Y0148994D01*
X0214763Y0149264D01*
X0214901Y0149529D01*
X0215046Y0149792D01*
X0215196Y0150051D01*
X0215354Y0150306D01*
X0215517Y0150557D01*
X0215686Y0150804D01*
X0215862Y0151047D01*
X0216043Y0151285D01*
X0216230Y0151519D01*
X0216423Y0151748D01*
X0216622Y0151972D01*
X0216826Y0152192D01*
X0217035Y0152406D01*
X0217249Y0152615D01*
X0217469Y0152819D01*
X0217693Y0153018D01*
X0217922Y0153211D01*
X0218156Y0153398D01*
X0218394Y0153579D01*
X0218637Y0153755D01*
X0218884Y0153924D01*
X0219135Y0154087D01*
X0219390Y0154245D01*
X0219649Y0154395D01*
X0219912Y0154540D01*
X0220177Y0154678D01*
X0220447Y0154809D01*
X0220719Y0154934D01*
X0220994Y0155052D01*
X0221272Y0155163D01*
X0221553Y0155268D01*
X0221837Y0155365D01*
X0222122Y0155455D01*
X0222410Y0155539D01*
X0222699Y0155615D01*
X0222991Y0155684D01*
X0223284Y0155746D01*
X0223578Y0155801D01*
X0223874Y0155849D01*
X0224171Y0155889D01*
X0224469Y0155922D01*
X0224767Y0155948D01*
X0225066Y0155966D01*
X0225365Y0155977D01*
X0225665Y0155981D01*
X0225965Y0155977D01*
X0226264Y0155966D01*
X0226563Y0155948D01*
X0226861Y0155922D01*
X0227159Y0155889D01*
X0227456Y0155849D01*
X0227752Y0155801D01*
X0228046Y0155746D01*
X0228339Y0155684D01*
X0228631Y0155615D01*
X0228920Y0155539D01*
X0229208Y0155455D01*
X0229493Y0155365D01*
X0229777Y0155268D01*
X0230058Y0155163D01*
X0230336Y0155052D01*
X0230611Y0154934D01*
X0230883Y0154809D01*
X0231153Y0154678D01*
X0231418Y0154540D01*
X0231681Y0154395D01*
X0231940Y0154245D01*
X0232195Y0154087D01*
X0232446Y0153924D01*
X0232693Y0153755D01*
X0232936Y0153579D01*
X0233174Y0153398D01*
X0233408Y0153211D01*
X0233637Y0153018D01*
X0233861Y0152819D01*
X0234081Y0152615D01*
X0234295Y0152406D01*
X0234504Y0152192D01*
X0234708Y0151972D01*
X0234907Y0151748D01*
X0235100Y0151519D01*
X0235287Y0151285D01*
X0235468Y0151047D01*
X0235644Y0150804D01*
X0235813Y0150557D01*
X0235976Y0150306D01*
X0236134Y0150051D01*
X0236284Y0149792D01*
X0236429Y0149529D01*
X0236567Y0149264D01*
X0236698Y0148994D01*
X0236823Y0148722D01*
X0236941Y0148447D01*
X0237052Y0148169D01*
X0237157Y0147888D01*
X0237254Y0147604D01*
X0237344Y0147319D01*
X0237428Y0147031D01*
X0237504Y0146742D01*
X0237573Y0146450D01*
X0237635Y0146157D01*
X0237690Y0145863D01*
X0237738Y0145567D01*
X0237778Y0145270D01*
X0237811Y0144972D01*
X0237837Y0144674D01*
X0237855Y0144375D01*
X0237866Y0144076D01*
X0237870Y0143776D01*
X0237866Y0143476D01*
X0237855Y0143177D01*
X0237837Y0142878D01*
X0237811Y0142580D01*
X0237778Y0142282D01*
X0237738Y0141985D01*
X0237690Y0141689D01*
X0237635Y0141395D01*
X0237573Y0141102D01*
X0237504Y0140810D01*
X0237428Y0140521D01*
X0237344Y0140233D01*
X0237254Y0139948D01*
X0237157Y0139664D01*
X0237052Y0139383D01*
X0236941Y0139105D01*
X0236823Y0138830D01*
X0236698Y0138558D01*
X0236567Y0138288D01*
X0236429Y0138023D01*
X0236284Y0137760D01*
X0236134Y0137501D01*
X0235976Y0137246D01*
X0235813Y0136995D01*
X0235644Y0136748D01*
X0235468Y0136505D01*
X0235287Y0136267D01*
X0235100Y0136033D01*
X0234907Y0135804D01*
X0234708Y0135580D01*
X0234504Y0135360D01*
X0234295Y0135146D01*
X0234081Y0134937D01*
X0233861Y0134733D01*
X0233637Y0134534D01*
X0233408Y0134341D01*
X0233174Y0134154D01*
X0232936Y0133973D01*
X0232693Y0133797D01*
X0232446Y0133628D01*
X0232195Y0133465D01*
X0231940Y0133307D01*
X0231681Y0133157D01*
X0231418Y0133012D01*
X0231153Y0132874D01*
X0230883Y0132743D01*
X0230611Y0132618D01*
X0230336Y0132500D01*
X0230058Y0132389D01*
X0229777Y0132284D01*
X0229493Y0132187D01*
X0229208Y0132097D01*
X0228920Y0132013D01*
X0228631Y0131937D01*
X0228339Y0131868D01*
X0228046Y0131806D01*
X0227752Y0131751D01*
X0227456Y0131703D01*
X0227159Y0131663D01*
X0226861Y0131630D01*
X0226563Y0131604D01*
X0226264Y0131586D01*
X0225965Y0131575D01*
X0225665Y0131571D01*
X0225365Y0131575D01*
X0225066Y0131586D01*
X0224767Y0131604D01*
X0224469Y0131630D01*
X0224171Y0131663D01*
X0223874Y0131703D01*
X0223578Y0131751D01*
X0223284Y0131806D01*
X0222991Y0131868D01*
X0222699Y0131937D01*
X0222410Y0132013D01*
X0222122Y0132097D01*
X0221837Y0132187D01*
X0221553Y0132284D01*
X0221272Y0132389D01*
X0220994Y0132500D01*
X0220719Y0132618D01*
X0220447Y0132743D01*
X0220177Y0132874D01*
X0219912Y0133012D01*
X0219649Y0133157D01*
X0219390Y0133307D01*
X0219135Y0133465D01*
X0218884Y0133628D01*
X0218637Y0133797D01*
X0218394Y0133973D01*
X0218156Y0134154D01*
X0217922Y0134341D01*
X0217693Y0134534D01*
X0217469Y0134733D01*
X0217249Y0134937D01*
X0217035Y0135146D01*
X0216826Y0135360D01*
X0216622Y0135580D01*
X0216423Y0135804D01*
X0216230Y0136033D01*
X0216043Y0136267D01*
X0215862Y0136505D01*
X0215686Y0136748D01*
X0215517Y0136995D01*
X0215354Y0137246D01*
X0215196Y0137501D01*
X0215046Y0137760D01*
X0214901Y0138023D01*
X0214763Y0138288D01*
X0214632Y0138558D01*
X0214507Y0138830D01*
X0214389Y0139105D01*
X0214278Y0139383D01*
X0214173Y0139664D01*
X0214076Y0139948D01*
X0213986Y0140233D01*
X0213902Y0140521D01*
X0213826Y0140810D01*
X0213757Y0141102D01*
X0213695Y0141395D01*
X0213640Y0141689D01*
X0213592Y0141985D01*
X0213552Y0142282D01*
X0213519Y0142580D01*
X0213493Y0142878D01*
X0213475Y0143177D01*
X0213464Y0143476D01*
X0213460Y0143776D01*
X0191935Y0147024D02*
X0191935Y0149681D01*
X0180655Y0149681D01*
X0180655Y0147024D01*
X0183908Y0148019D02*
X0188948Y0148019D01*
X0188999Y0148017D01*
X0189049Y0148011D01*
X0189099Y0148002D01*
X0189148Y0147988D01*
X0189196Y0147971D01*
X0189242Y0147950D01*
X0189287Y0147926D01*
X0189329Y0147898D01*
X0189370Y0147867D01*
X0189408Y0147834D01*
X0189443Y0147797D01*
X0189475Y0147758D01*
X0189504Y0147716D01*
X0189530Y0147673D01*
X0189553Y0147627D01*
X0189572Y0147580D01*
X0189587Y0147532D01*
X0189599Y0147482D01*
X0189607Y0147432D01*
X0189611Y0147381D01*
X0189611Y0147331D01*
X0189607Y0147280D01*
X0189599Y0147230D01*
X0189587Y0147180D01*
X0189572Y0147132D01*
X0189553Y0147085D01*
X0189530Y0147039D01*
X0189504Y0146996D01*
X0189475Y0146954D01*
X0189443Y0146915D01*
X0189408Y0146878D01*
X0189370Y0146845D01*
X0189329Y0146814D01*
X0189287Y0146786D01*
X0189242Y0146762D01*
X0189196Y0146741D01*
X0189148Y0146724D01*
X0189099Y0146710D01*
X0189049Y0146701D01*
X0188999Y0146695D01*
X0188948Y0146693D01*
X0185765Y0146693D01*
X0185714Y0146691D01*
X0185664Y0146685D01*
X0185614Y0146676D01*
X0185565Y0146662D01*
X0185517Y0146645D01*
X0185471Y0146624D01*
X0185426Y0146600D01*
X0185384Y0146572D01*
X0185343Y0146541D01*
X0185305Y0146508D01*
X0185270Y0146471D01*
X0185238Y0146432D01*
X0185209Y0146390D01*
X0185183Y0146347D01*
X0185160Y0146301D01*
X0185141Y0146254D01*
X0185126Y0146206D01*
X0185114Y0146156D01*
X0185106Y0146106D01*
X0185102Y0146055D01*
X0185102Y0146005D01*
X0185106Y0145954D01*
X0185114Y0145904D01*
X0185126Y0145854D01*
X0185141Y0145806D01*
X0185160Y0145759D01*
X0185183Y0145713D01*
X0185209Y0145670D01*
X0185238Y0145628D01*
X0185270Y0145589D01*
X0185305Y0145552D01*
X0185343Y0145519D01*
X0185384Y0145488D01*
X0185426Y0145460D01*
X0185471Y0145436D01*
X0185517Y0145415D01*
X0185565Y0145398D01*
X0185614Y0145384D01*
X0185664Y0145375D01*
X0185714Y0145369D01*
X0185765Y0145367D01*
X0187091Y0145367D01*
X0187142Y0145365D01*
X0187192Y0145359D01*
X0187242Y0145350D01*
X0187291Y0145336D01*
X0187339Y0145319D01*
X0187385Y0145298D01*
X0187430Y0145274D01*
X0187472Y0145246D01*
X0187513Y0145215D01*
X0187551Y0145182D01*
X0187586Y0145145D01*
X0187618Y0145106D01*
X0187647Y0145064D01*
X0187673Y0145021D01*
X0187696Y0144975D01*
X0187715Y0144928D01*
X0187730Y0144880D01*
X0187742Y0144830D01*
X0187750Y0144780D01*
X0187754Y0144729D01*
X0187754Y0144679D01*
X0187750Y0144628D01*
X0187742Y0144578D01*
X0187730Y0144528D01*
X0187715Y0144480D01*
X0187696Y0144433D01*
X0187673Y0144387D01*
X0187647Y0144344D01*
X0187618Y0144302D01*
X0187586Y0144263D01*
X0187551Y0144226D01*
X0187513Y0144193D01*
X0187472Y0144162D01*
X0187430Y0144134D01*
X0187385Y0144110D01*
X0187339Y0144089D01*
X0187291Y0144072D01*
X0187242Y0144058D01*
X0187192Y0144049D01*
X0187142Y0144043D01*
X0187091Y0144041D01*
X0185500Y0144041D01*
X0185449Y0144039D01*
X0185399Y0144033D01*
X0185349Y0144024D01*
X0185300Y0144010D01*
X0185252Y0143993D01*
X0185206Y0143972D01*
X0185161Y0143948D01*
X0185119Y0143920D01*
X0185078Y0143889D01*
X0185040Y0143856D01*
X0185005Y0143819D01*
X0184973Y0143780D01*
X0184944Y0143738D01*
X0184918Y0143695D01*
X0184895Y0143649D01*
X0184876Y0143602D01*
X0184861Y0143554D01*
X0184849Y0143504D01*
X0184841Y0143454D01*
X0184837Y0143403D01*
X0184837Y0143353D01*
X0184841Y0143302D01*
X0184849Y0143252D01*
X0184861Y0143202D01*
X0184876Y0143154D01*
X0184895Y0143107D01*
X0184918Y0143061D01*
X0184944Y0143018D01*
X0184973Y0142976D01*
X0185005Y0142937D01*
X0185040Y0142900D01*
X0185078Y0142867D01*
X0185119Y0142836D01*
X0185161Y0142808D01*
X0185206Y0142784D01*
X0185252Y0142763D01*
X0185300Y0142746D01*
X0185349Y0142732D01*
X0185399Y0142723D01*
X0185449Y0142717D01*
X0185500Y0142715D01*
X0187091Y0142715D01*
X0187142Y0142713D01*
X0187192Y0142707D01*
X0187242Y0142698D01*
X0187291Y0142684D01*
X0187339Y0142667D01*
X0187385Y0142646D01*
X0187430Y0142622D01*
X0187472Y0142594D01*
X0187513Y0142563D01*
X0187551Y0142530D01*
X0187586Y0142493D01*
X0187618Y0142454D01*
X0187647Y0142412D01*
X0187673Y0142369D01*
X0187696Y0142323D01*
X0187715Y0142276D01*
X0187730Y0142228D01*
X0187742Y0142178D01*
X0187750Y0142128D01*
X0187754Y0142077D01*
X0187754Y0142027D01*
X0187750Y0141976D01*
X0187742Y0141926D01*
X0187730Y0141876D01*
X0187715Y0141828D01*
X0187696Y0141781D01*
X0187673Y0141735D01*
X0187647Y0141692D01*
X0187618Y0141650D01*
X0187586Y0141611D01*
X0187551Y0141574D01*
X0187513Y0141541D01*
X0187472Y0141510D01*
X0187430Y0141482D01*
X0187385Y0141458D01*
X0187339Y0141437D01*
X0187291Y0141420D01*
X0187242Y0141406D01*
X0187192Y0141397D01*
X0187142Y0141391D01*
X0187091Y0141389D01*
X0183643Y0141389D01*
X0183643Y0141388D02*
X0183592Y0141386D01*
X0183542Y0141380D01*
X0183492Y0141371D01*
X0183443Y0141357D01*
X0183395Y0141340D01*
X0183349Y0141319D01*
X0183304Y0141295D01*
X0183262Y0141267D01*
X0183221Y0141236D01*
X0183183Y0141203D01*
X0183148Y0141166D01*
X0183116Y0141127D01*
X0183087Y0141085D01*
X0183061Y0141042D01*
X0183038Y0140996D01*
X0183019Y0140949D01*
X0183004Y0140901D01*
X0182992Y0140851D01*
X0182984Y0140801D01*
X0182980Y0140750D01*
X0182980Y0140700D01*
X0182984Y0140649D01*
X0182992Y0140599D01*
X0183004Y0140549D01*
X0183019Y0140501D01*
X0183038Y0140454D01*
X0183061Y0140408D01*
X0183087Y0140365D01*
X0183116Y0140323D01*
X0183148Y0140284D01*
X0183183Y0140247D01*
X0183221Y0140214D01*
X0183262Y0140183D01*
X0183304Y0140155D01*
X0183349Y0140131D01*
X0183395Y0140110D01*
X0183443Y0140093D01*
X0183492Y0140079D01*
X0183542Y0140070D01*
X0183592Y0140064D01*
X0183643Y0140062D01*
X0187887Y0140062D01*
X0187970Y0140060D01*
X0188053Y0140055D01*
X0188136Y0140045D01*
X0188218Y0140032D01*
X0188300Y0140016D01*
X0188381Y0139995D01*
X0188460Y0139971D01*
X0188539Y0139944D01*
X0188616Y0139913D01*
X0188692Y0139878D01*
X0188766Y0139840D01*
X0188839Y0139799D01*
X0188909Y0139755D01*
X0188978Y0139708D01*
X0189044Y0139657D01*
X0189108Y0139604D01*
X0189169Y0139548D01*
X0189228Y0139489D01*
X0189285Y0139427D01*
X0189338Y0139363D01*
X0189388Y0139297D01*
X0189436Y0139229D01*
X0189480Y0139158D01*
X0189521Y0139086D01*
X0189559Y0139011D01*
X0189594Y0138936D01*
X0189625Y0138858D01*
X0189652Y0138780D01*
X0189676Y0138700D01*
X0189696Y0138619D01*
X0189713Y0138538D01*
X0189726Y0138455D01*
X0189736Y0138373D01*
X0189741Y0138289D01*
X0189743Y0138206D01*
X0191935Y0137870D02*
X0191935Y0140528D01*
X0191935Y0137870D02*
X0180655Y0137870D01*
X0180655Y0140528D01*
X0176256Y0143776D02*
X0176259Y0144022D01*
X0176268Y0144269D01*
X0176283Y0144515D01*
X0176304Y0144760D01*
X0176331Y0145005D01*
X0176365Y0145249D01*
X0176404Y0145492D01*
X0176449Y0145735D01*
X0176500Y0145976D01*
X0176557Y0146215D01*
X0176620Y0146454D01*
X0176688Y0146690D01*
X0176763Y0146925D01*
X0176843Y0147158D01*
X0176929Y0147389D01*
X0177020Y0147618D01*
X0177117Y0147844D01*
X0177220Y0148068D01*
X0177328Y0148290D01*
X0177441Y0148508D01*
X0177560Y0148724D01*
X0177684Y0148937D01*
X0177814Y0149147D01*
X0177948Y0149353D01*
X0178087Y0149557D01*
X0178232Y0149756D01*
X0178381Y0149952D01*
X0178535Y0150145D01*
X0178693Y0150333D01*
X0178857Y0150518D01*
X0179024Y0150698D01*
X0179196Y0150875D01*
X0179373Y0151047D01*
X0179553Y0151214D01*
X0179738Y0151378D01*
X0179926Y0151536D01*
X0180119Y0151690D01*
X0180315Y0151839D01*
X0180514Y0151984D01*
X0180718Y0152123D01*
X0180924Y0152257D01*
X0181134Y0152387D01*
X0181347Y0152511D01*
X0181563Y0152630D01*
X0181781Y0152743D01*
X0182003Y0152851D01*
X0182227Y0152954D01*
X0182453Y0153051D01*
X0182682Y0153142D01*
X0182913Y0153228D01*
X0183146Y0153308D01*
X0183381Y0153383D01*
X0183617Y0153451D01*
X0183856Y0153514D01*
X0184095Y0153571D01*
X0184336Y0153622D01*
X0184579Y0153667D01*
X0184822Y0153706D01*
X0185066Y0153740D01*
X0185311Y0153767D01*
X0185556Y0153788D01*
X0185802Y0153803D01*
X0186049Y0153812D01*
X0186295Y0153815D01*
X0186541Y0153812D01*
X0186788Y0153803D01*
X0187034Y0153788D01*
X0187279Y0153767D01*
X0187524Y0153740D01*
X0187768Y0153706D01*
X0188011Y0153667D01*
X0188254Y0153622D01*
X0188495Y0153571D01*
X0188734Y0153514D01*
X0188973Y0153451D01*
X0189209Y0153383D01*
X0189444Y0153308D01*
X0189677Y0153228D01*
X0189908Y0153142D01*
X0190137Y0153051D01*
X0190363Y0152954D01*
X0190587Y0152851D01*
X0190809Y0152743D01*
X0191027Y0152630D01*
X0191243Y0152511D01*
X0191456Y0152387D01*
X0191666Y0152257D01*
X0191872Y0152123D01*
X0192076Y0151984D01*
X0192275Y0151839D01*
X0192471Y0151690D01*
X0192664Y0151536D01*
X0192852Y0151378D01*
X0193037Y0151214D01*
X0193217Y0151047D01*
X0193394Y0150875D01*
X0193566Y0150698D01*
X0193733Y0150518D01*
X0193897Y0150333D01*
X0194055Y0150145D01*
X0194209Y0149952D01*
X0194358Y0149756D01*
X0194503Y0149557D01*
X0194642Y0149353D01*
X0194776Y0149147D01*
X0194906Y0148937D01*
X0195030Y0148724D01*
X0195149Y0148508D01*
X0195262Y0148290D01*
X0195370Y0148068D01*
X0195473Y0147844D01*
X0195570Y0147618D01*
X0195661Y0147389D01*
X0195747Y0147158D01*
X0195827Y0146925D01*
X0195902Y0146690D01*
X0195970Y0146454D01*
X0196033Y0146215D01*
X0196090Y0145976D01*
X0196141Y0145735D01*
X0196186Y0145492D01*
X0196225Y0145249D01*
X0196259Y0145005D01*
X0196286Y0144760D01*
X0196307Y0144515D01*
X0196322Y0144269D01*
X0196331Y0144022D01*
X0196334Y0143776D01*
X0196331Y0143530D01*
X0196322Y0143283D01*
X0196307Y0143037D01*
X0196286Y0142792D01*
X0196259Y0142547D01*
X0196225Y0142303D01*
X0196186Y0142060D01*
X0196141Y0141817D01*
X0196090Y0141576D01*
X0196033Y0141337D01*
X0195970Y0141098D01*
X0195902Y0140862D01*
X0195827Y0140627D01*
X0195747Y0140394D01*
X0195661Y0140163D01*
X0195570Y0139934D01*
X0195473Y0139708D01*
X0195370Y0139484D01*
X0195262Y0139262D01*
X0195149Y0139044D01*
X0195030Y0138828D01*
X0194906Y0138615D01*
X0194776Y0138405D01*
X0194642Y0138199D01*
X0194503Y0137995D01*
X0194358Y0137796D01*
X0194209Y0137600D01*
X0194055Y0137407D01*
X0193897Y0137219D01*
X0193733Y0137034D01*
X0193566Y0136854D01*
X0193394Y0136677D01*
X0193217Y0136505D01*
X0193037Y0136338D01*
X0192852Y0136174D01*
X0192664Y0136016D01*
X0192471Y0135862D01*
X0192275Y0135713D01*
X0192076Y0135568D01*
X0191872Y0135429D01*
X0191666Y0135295D01*
X0191456Y0135165D01*
X0191243Y0135041D01*
X0191027Y0134922D01*
X0190809Y0134809D01*
X0190587Y0134701D01*
X0190363Y0134598D01*
X0190137Y0134501D01*
X0189908Y0134410D01*
X0189677Y0134324D01*
X0189444Y0134244D01*
X0189209Y0134169D01*
X0188973Y0134101D01*
X0188734Y0134038D01*
X0188495Y0133981D01*
X0188254Y0133930D01*
X0188011Y0133885D01*
X0187768Y0133846D01*
X0187524Y0133812D01*
X0187279Y0133785D01*
X0187034Y0133764D01*
X0186788Y0133749D01*
X0186541Y0133740D01*
X0186295Y0133737D01*
X0186049Y0133740D01*
X0185802Y0133749D01*
X0185556Y0133764D01*
X0185311Y0133785D01*
X0185066Y0133812D01*
X0184822Y0133846D01*
X0184579Y0133885D01*
X0184336Y0133930D01*
X0184095Y0133981D01*
X0183856Y0134038D01*
X0183617Y0134101D01*
X0183381Y0134169D01*
X0183146Y0134244D01*
X0182913Y0134324D01*
X0182682Y0134410D01*
X0182453Y0134501D01*
X0182227Y0134598D01*
X0182003Y0134701D01*
X0181781Y0134809D01*
X0181563Y0134922D01*
X0181347Y0135041D01*
X0181134Y0135165D01*
X0180924Y0135295D01*
X0180718Y0135429D01*
X0180514Y0135568D01*
X0180315Y0135713D01*
X0180119Y0135862D01*
X0179926Y0136016D01*
X0179738Y0136174D01*
X0179553Y0136338D01*
X0179373Y0136505D01*
X0179196Y0136677D01*
X0179024Y0136854D01*
X0178857Y0137034D01*
X0178693Y0137219D01*
X0178535Y0137407D01*
X0178381Y0137600D01*
X0178232Y0137796D01*
X0178087Y0137995D01*
X0177948Y0138199D01*
X0177814Y0138405D01*
X0177684Y0138615D01*
X0177560Y0138828D01*
X0177441Y0139044D01*
X0177328Y0139262D01*
X0177220Y0139484D01*
X0177117Y0139708D01*
X0177020Y0139934D01*
X0176929Y0140163D01*
X0176843Y0140394D01*
X0176763Y0140627D01*
X0176688Y0140862D01*
X0176620Y0141098D01*
X0176557Y0141337D01*
X0176500Y0141576D01*
X0176449Y0141817D01*
X0176404Y0142060D01*
X0176365Y0142303D01*
X0176331Y0142547D01*
X0176304Y0142792D01*
X0176283Y0143037D01*
X0176268Y0143283D01*
X0176259Y0143530D01*
X0176256Y0143776D01*
X0182846Y0149346D02*
X0182834Y0149282D01*
X0182826Y0149217D01*
X0182821Y0149153D01*
X0182820Y0149088D01*
X0182823Y0149023D01*
X0182830Y0148958D01*
X0182841Y0148894D01*
X0182856Y0148831D01*
X0182874Y0148768D01*
X0182896Y0148707D01*
X0182922Y0148648D01*
X0182951Y0148590D01*
X0182984Y0148533D01*
X0183019Y0148479D01*
X0183058Y0148427D01*
X0183101Y0148378D01*
X0183146Y0148331D01*
X0183193Y0148287D01*
X0183243Y0148246D01*
X0183296Y0148207D01*
X0183351Y0148172D01*
X0183408Y0148141D01*
X0183466Y0148113D01*
X0183526Y0148088D01*
X0183588Y0148067D01*
X0183651Y0148050D01*
X0183714Y0148036D01*
X0183778Y0148027D01*
X0183843Y0148021D01*
X0183908Y0148019D01*
X0174090Y0143776D02*
X0174094Y0144076D01*
X0174105Y0144375D01*
X0174123Y0144674D01*
X0174149Y0144972D01*
X0174182Y0145270D01*
X0174222Y0145567D01*
X0174270Y0145863D01*
X0174325Y0146157D01*
X0174387Y0146450D01*
X0174456Y0146742D01*
X0174532Y0147031D01*
X0174616Y0147319D01*
X0174706Y0147604D01*
X0174803Y0147888D01*
X0174908Y0148169D01*
X0175019Y0148447D01*
X0175137Y0148722D01*
X0175262Y0148994D01*
X0175393Y0149264D01*
X0175531Y0149529D01*
X0175676Y0149792D01*
X0175826Y0150051D01*
X0175984Y0150306D01*
X0176147Y0150557D01*
X0176316Y0150804D01*
X0176492Y0151047D01*
X0176673Y0151285D01*
X0176860Y0151519D01*
X0177053Y0151748D01*
X0177252Y0151972D01*
X0177456Y0152192D01*
X0177665Y0152406D01*
X0177879Y0152615D01*
X0178099Y0152819D01*
X0178323Y0153018D01*
X0178552Y0153211D01*
X0178786Y0153398D01*
X0179024Y0153579D01*
X0179267Y0153755D01*
X0179514Y0153924D01*
X0179765Y0154087D01*
X0180020Y0154245D01*
X0180279Y0154395D01*
X0180542Y0154540D01*
X0180807Y0154678D01*
X0181077Y0154809D01*
X0181349Y0154934D01*
X0181624Y0155052D01*
X0181902Y0155163D01*
X0182183Y0155268D01*
X0182467Y0155365D01*
X0182752Y0155455D01*
X0183040Y0155539D01*
X0183329Y0155615D01*
X0183621Y0155684D01*
X0183914Y0155746D01*
X0184208Y0155801D01*
X0184504Y0155849D01*
X0184801Y0155889D01*
X0185099Y0155922D01*
X0185397Y0155948D01*
X0185696Y0155966D01*
X0185995Y0155977D01*
X0186295Y0155981D01*
X0186595Y0155977D01*
X0186894Y0155966D01*
X0187193Y0155948D01*
X0187491Y0155922D01*
X0187789Y0155889D01*
X0188086Y0155849D01*
X0188382Y0155801D01*
X0188676Y0155746D01*
X0188969Y0155684D01*
X0189261Y0155615D01*
X0189550Y0155539D01*
X0189838Y0155455D01*
X0190123Y0155365D01*
X0190407Y0155268D01*
X0190688Y0155163D01*
X0190966Y0155052D01*
X0191241Y0154934D01*
X0191513Y0154809D01*
X0191783Y0154678D01*
X0192048Y0154540D01*
X0192311Y0154395D01*
X0192570Y0154245D01*
X0192825Y0154087D01*
X0193076Y0153924D01*
X0193323Y0153755D01*
X0193566Y0153579D01*
X0193804Y0153398D01*
X0194038Y0153211D01*
X0194267Y0153018D01*
X0194491Y0152819D01*
X0194711Y0152615D01*
X0194925Y0152406D01*
X0195134Y0152192D01*
X0195338Y0151972D01*
X0195537Y0151748D01*
X0195730Y0151519D01*
X0195917Y0151285D01*
X0196098Y0151047D01*
X0196274Y0150804D01*
X0196443Y0150557D01*
X0196606Y0150306D01*
X0196764Y0150051D01*
X0196914Y0149792D01*
X0197059Y0149529D01*
X0197197Y0149264D01*
X0197328Y0148994D01*
X0197453Y0148722D01*
X0197571Y0148447D01*
X0197682Y0148169D01*
X0197787Y0147888D01*
X0197884Y0147604D01*
X0197974Y0147319D01*
X0198058Y0147031D01*
X0198134Y0146742D01*
X0198203Y0146450D01*
X0198265Y0146157D01*
X0198320Y0145863D01*
X0198368Y0145567D01*
X0198408Y0145270D01*
X0198441Y0144972D01*
X0198467Y0144674D01*
X0198485Y0144375D01*
X0198496Y0144076D01*
X0198500Y0143776D01*
X0198496Y0143476D01*
X0198485Y0143177D01*
X0198467Y0142878D01*
X0198441Y0142580D01*
X0198408Y0142282D01*
X0198368Y0141985D01*
X0198320Y0141689D01*
X0198265Y0141395D01*
X0198203Y0141102D01*
X0198134Y0140810D01*
X0198058Y0140521D01*
X0197974Y0140233D01*
X0197884Y0139948D01*
X0197787Y0139664D01*
X0197682Y0139383D01*
X0197571Y0139105D01*
X0197453Y0138830D01*
X0197328Y0138558D01*
X0197197Y0138288D01*
X0197059Y0138023D01*
X0196914Y0137760D01*
X0196764Y0137501D01*
X0196606Y0137246D01*
X0196443Y0136995D01*
X0196274Y0136748D01*
X0196098Y0136505D01*
X0195917Y0136267D01*
X0195730Y0136033D01*
X0195537Y0135804D01*
X0195338Y0135580D01*
X0195134Y0135360D01*
X0194925Y0135146D01*
X0194711Y0134937D01*
X0194491Y0134733D01*
X0194267Y0134534D01*
X0194038Y0134341D01*
X0193804Y0134154D01*
X0193566Y0133973D01*
X0193323Y0133797D01*
X0193076Y0133628D01*
X0192825Y0133465D01*
X0192570Y0133307D01*
X0192311Y0133157D01*
X0192048Y0133012D01*
X0191783Y0132874D01*
X0191513Y0132743D01*
X0191241Y0132618D01*
X0190966Y0132500D01*
X0190688Y0132389D01*
X0190407Y0132284D01*
X0190123Y0132187D01*
X0189838Y0132097D01*
X0189550Y0132013D01*
X0189261Y0131937D01*
X0188969Y0131868D01*
X0188676Y0131806D01*
X0188382Y0131751D01*
X0188086Y0131703D01*
X0187789Y0131663D01*
X0187491Y0131630D01*
X0187193Y0131604D01*
X0186894Y0131586D01*
X0186595Y0131575D01*
X0186295Y0131571D01*
X0185995Y0131575D01*
X0185696Y0131586D01*
X0185397Y0131604D01*
X0185099Y0131630D01*
X0184801Y0131663D01*
X0184504Y0131703D01*
X0184208Y0131751D01*
X0183914Y0131806D01*
X0183621Y0131868D01*
X0183329Y0131937D01*
X0183040Y0132013D01*
X0182752Y0132097D01*
X0182467Y0132187D01*
X0182183Y0132284D01*
X0181902Y0132389D01*
X0181624Y0132500D01*
X0181349Y0132618D01*
X0181077Y0132743D01*
X0180807Y0132874D01*
X0180542Y0133012D01*
X0180279Y0133157D01*
X0180020Y0133307D01*
X0179765Y0133465D01*
X0179514Y0133628D01*
X0179267Y0133797D01*
X0179024Y0133973D01*
X0178786Y0134154D01*
X0178552Y0134341D01*
X0178323Y0134534D01*
X0178099Y0134733D01*
X0177879Y0134937D01*
X0177665Y0135146D01*
X0177456Y0135360D01*
X0177252Y0135580D01*
X0177053Y0135804D01*
X0176860Y0136033D01*
X0176673Y0136267D01*
X0176492Y0136505D01*
X0176316Y0136748D01*
X0176147Y0136995D01*
X0175984Y0137246D01*
X0175826Y0137501D01*
X0175676Y0137760D01*
X0175531Y0138023D01*
X0175393Y0138288D01*
X0175262Y0138558D01*
X0175137Y0138830D01*
X0175019Y0139105D01*
X0174908Y0139383D01*
X0174803Y0139664D01*
X0174706Y0139948D01*
X0174616Y0140233D01*
X0174532Y0140521D01*
X0174456Y0140810D01*
X0174387Y0141102D01*
X0174325Y0141395D01*
X0174270Y0141689D01*
X0174222Y0141985D01*
X0174182Y0142282D01*
X0174149Y0142580D01*
X0174123Y0142878D01*
X0174105Y0143177D01*
X0174094Y0143476D01*
X0174090Y0143776D01*
X0152565Y0147024D02*
X0152565Y0149681D01*
X0141285Y0149681D01*
X0141285Y0147024D01*
X0144538Y0148019D02*
X0149578Y0148019D01*
X0149629Y0148017D01*
X0149679Y0148011D01*
X0149729Y0148002D01*
X0149778Y0147988D01*
X0149826Y0147971D01*
X0149872Y0147950D01*
X0149917Y0147926D01*
X0149959Y0147898D01*
X0150000Y0147867D01*
X0150038Y0147834D01*
X0150073Y0147797D01*
X0150105Y0147758D01*
X0150134Y0147716D01*
X0150160Y0147673D01*
X0150183Y0147627D01*
X0150202Y0147580D01*
X0150217Y0147532D01*
X0150229Y0147482D01*
X0150237Y0147432D01*
X0150241Y0147381D01*
X0150241Y0147331D01*
X0150237Y0147280D01*
X0150229Y0147230D01*
X0150217Y0147180D01*
X0150202Y0147132D01*
X0150183Y0147085D01*
X0150160Y0147039D01*
X0150134Y0146996D01*
X0150105Y0146954D01*
X0150073Y0146915D01*
X0150038Y0146878D01*
X0150000Y0146845D01*
X0149959Y0146814D01*
X0149917Y0146786D01*
X0149872Y0146762D01*
X0149826Y0146741D01*
X0149778Y0146724D01*
X0149729Y0146710D01*
X0149679Y0146701D01*
X0149629Y0146695D01*
X0149578Y0146693D01*
X0146395Y0146693D01*
X0146344Y0146691D01*
X0146294Y0146685D01*
X0146244Y0146676D01*
X0146195Y0146662D01*
X0146147Y0146645D01*
X0146101Y0146624D01*
X0146056Y0146600D01*
X0146014Y0146572D01*
X0145973Y0146541D01*
X0145935Y0146508D01*
X0145900Y0146471D01*
X0145868Y0146432D01*
X0145839Y0146390D01*
X0145813Y0146347D01*
X0145790Y0146301D01*
X0145771Y0146254D01*
X0145756Y0146206D01*
X0145744Y0146156D01*
X0145736Y0146106D01*
X0145732Y0146055D01*
X0145732Y0146005D01*
X0145736Y0145954D01*
X0145744Y0145904D01*
X0145756Y0145854D01*
X0145771Y0145806D01*
X0145790Y0145759D01*
X0145813Y0145713D01*
X0145839Y0145670D01*
X0145868Y0145628D01*
X0145900Y0145589D01*
X0145935Y0145552D01*
X0145973Y0145519D01*
X0146014Y0145488D01*
X0146056Y0145460D01*
X0146101Y0145436D01*
X0146147Y0145415D01*
X0146195Y0145398D01*
X0146244Y0145384D01*
X0146294Y0145375D01*
X0146344Y0145369D01*
X0146395Y0145367D01*
X0147721Y0145367D01*
X0147772Y0145365D01*
X0147822Y0145359D01*
X0147872Y0145350D01*
X0147921Y0145336D01*
X0147969Y0145319D01*
X0148015Y0145298D01*
X0148060Y0145274D01*
X0148102Y0145246D01*
X0148143Y0145215D01*
X0148181Y0145182D01*
X0148216Y0145145D01*
X0148248Y0145106D01*
X0148277Y0145064D01*
X0148303Y0145021D01*
X0148326Y0144975D01*
X0148345Y0144928D01*
X0148360Y0144880D01*
X0148372Y0144830D01*
X0148380Y0144780D01*
X0148384Y0144729D01*
X0148384Y0144679D01*
X0148380Y0144628D01*
X0148372Y0144578D01*
X0148360Y0144528D01*
X0148345Y0144480D01*
X0148326Y0144433D01*
X0148303Y0144387D01*
X0148277Y0144344D01*
X0148248Y0144302D01*
X0148216Y0144263D01*
X0148181Y0144226D01*
X0148143Y0144193D01*
X0148102Y0144162D01*
X0148060Y0144134D01*
X0148015Y0144110D01*
X0147969Y0144089D01*
X0147921Y0144072D01*
X0147872Y0144058D01*
X0147822Y0144049D01*
X0147772Y0144043D01*
X0147721Y0144041D01*
X0146130Y0144041D01*
X0146079Y0144039D01*
X0146029Y0144033D01*
X0145979Y0144024D01*
X0145930Y0144010D01*
X0145882Y0143993D01*
X0145836Y0143972D01*
X0145791Y0143948D01*
X0145749Y0143920D01*
X0145708Y0143889D01*
X0145670Y0143856D01*
X0145635Y0143819D01*
X0145603Y0143780D01*
X0145574Y0143738D01*
X0145548Y0143695D01*
X0145525Y0143649D01*
X0145506Y0143602D01*
X0145491Y0143554D01*
X0145479Y0143504D01*
X0145471Y0143454D01*
X0145467Y0143403D01*
X0145467Y0143353D01*
X0145471Y0143302D01*
X0145479Y0143252D01*
X0145491Y0143202D01*
X0145506Y0143154D01*
X0145525Y0143107D01*
X0145548Y0143061D01*
X0145574Y0143018D01*
X0145603Y0142976D01*
X0145635Y0142937D01*
X0145670Y0142900D01*
X0145708Y0142867D01*
X0145749Y0142836D01*
X0145791Y0142808D01*
X0145836Y0142784D01*
X0145882Y0142763D01*
X0145930Y0142746D01*
X0145979Y0142732D01*
X0146029Y0142723D01*
X0146079Y0142717D01*
X0146130Y0142715D01*
X0147721Y0142715D01*
X0147772Y0142713D01*
X0147822Y0142707D01*
X0147872Y0142698D01*
X0147921Y0142684D01*
X0147969Y0142667D01*
X0148015Y0142646D01*
X0148060Y0142622D01*
X0148102Y0142594D01*
X0148143Y0142563D01*
X0148181Y0142530D01*
X0148216Y0142493D01*
X0148248Y0142454D01*
X0148277Y0142412D01*
X0148303Y0142369D01*
X0148326Y0142323D01*
X0148345Y0142276D01*
X0148360Y0142228D01*
X0148372Y0142178D01*
X0148380Y0142128D01*
X0148384Y0142077D01*
X0148384Y0142027D01*
X0148380Y0141976D01*
X0148372Y0141926D01*
X0148360Y0141876D01*
X0148345Y0141828D01*
X0148326Y0141781D01*
X0148303Y0141735D01*
X0148277Y0141692D01*
X0148248Y0141650D01*
X0148216Y0141611D01*
X0148181Y0141574D01*
X0148143Y0141541D01*
X0148102Y0141510D01*
X0148060Y0141482D01*
X0148015Y0141458D01*
X0147969Y0141437D01*
X0147921Y0141420D01*
X0147872Y0141406D01*
X0147822Y0141397D01*
X0147772Y0141391D01*
X0147721Y0141389D01*
X0144273Y0141389D01*
X0144273Y0141388D02*
X0144222Y0141386D01*
X0144172Y0141380D01*
X0144122Y0141371D01*
X0144073Y0141357D01*
X0144025Y0141340D01*
X0143979Y0141319D01*
X0143934Y0141295D01*
X0143892Y0141267D01*
X0143851Y0141236D01*
X0143813Y0141203D01*
X0143778Y0141166D01*
X0143746Y0141127D01*
X0143717Y0141085D01*
X0143691Y0141042D01*
X0143668Y0140996D01*
X0143649Y0140949D01*
X0143634Y0140901D01*
X0143622Y0140851D01*
X0143614Y0140801D01*
X0143610Y0140750D01*
X0143610Y0140700D01*
X0143614Y0140649D01*
X0143622Y0140599D01*
X0143634Y0140549D01*
X0143649Y0140501D01*
X0143668Y0140454D01*
X0143691Y0140408D01*
X0143717Y0140365D01*
X0143746Y0140323D01*
X0143778Y0140284D01*
X0143813Y0140247D01*
X0143851Y0140214D01*
X0143892Y0140183D01*
X0143934Y0140155D01*
X0143979Y0140131D01*
X0144025Y0140110D01*
X0144073Y0140093D01*
X0144122Y0140079D01*
X0144172Y0140070D01*
X0144222Y0140064D01*
X0144273Y0140062D01*
X0148517Y0140062D01*
X0148600Y0140060D01*
X0148683Y0140055D01*
X0148766Y0140045D01*
X0148848Y0140032D01*
X0148930Y0140016D01*
X0149011Y0139995D01*
X0149090Y0139971D01*
X0149169Y0139944D01*
X0149246Y0139913D01*
X0149322Y0139878D01*
X0149396Y0139840D01*
X0149469Y0139799D01*
X0149539Y0139755D01*
X0149608Y0139708D01*
X0149674Y0139657D01*
X0149738Y0139604D01*
X0149799Y0139548D01*
X0149858Y0139489D01*
X0149915Y0139427D01*
X0149968Y0139363D01*
X0150018Y0139297D01*
X0150066Y0139229D01*
X0150110Y0139158D01*
X0150151Y0139086D01*
X0150189Y0139011D01*
X0150224Y0138936D01*
X0150255Y0138858D01*
X0150282Y0138780D01*
X0150306Y0138700D01*
X0150326Y0138619D01*
X0150343Y0138538D01*
X0150356Y0138455D01*
X0150366Y0138373D01*
X0150371Y0138289D01*
X0150373Y0138206D01*
X0152565Y0137870D02*
X0152565Y0140528D01*
X0152565Y0137870D02*
X0141285Y0137870D01*
X0141285Y0140528D01*
X0136886Y0143776D02*
X0136889Y0144022D01*
X0136898Y0144269D01*
X0136913Y0144515D01*
X0136934Y0144760D01*
X0136961Y0145005D01*
X0136995Y0145249D01*
X0137034Y0145492D01*
X0137079Y0145735D01*
X0137130Y0145976D01*
X0137187Y0146215D01*
X0137250Y0146454D01*
X0137318Y0146690D01*
X0137393Y0146925D01*
X0137473Y0147158D01*
X0137559Y0147389D01*
X0137650Y0147618D01*
X0137747Y0147844D01*
X0137850Y0148068D01*
X0137958Y0148290D01*
X0138071Y0148508D01*
X0138190Y0148724D01*
X0138314Y0148937D01*
X0138444Y0149147D01*
X0138578Y0149353D01*
X0138717Y0149557D01*
X0138862Y0149756D01*
X0139011Y0149952D01*
X0139165Y0150145D01*
X0139323Y0150333D01*
X0139487Y0150518D01*
X0139654Y0150698D01*
X0139826Y0150875D01*
X0140003Y0151047D01*
X0140183Y0151214D01*
X0140368Y0151378D01*
X0140556Y0151536D01*
X0140749Y0151690D01*
X0140945Y0151839D01*
X0141144Y0151984D01*
X0141348Y0152123D01*
X0141554Y0152257D01*
X0141764Y0152387D01*
X0141977Y0152511D01*
X0142193Y0152630D01*
X0142411Y0152743D01*
X0142633Y0152851D01*
X0142857Y0152954D01*
X0143083Y0153051D01*
X0143312Y0153142D01*
X0143543Y0153228D01*
X0143776Y0153308D01*
X0144011Y0153383D01*
X0144247Y0153451D01*
X0144486Y0153514D01*
X0144725Y0153571D01*
X0144966Y0153622D01*
X0145209Y0153667D01*
X0145452Y0153706D01*
X0145696Y0153740D01*
X0145941Y0153767D01*
X0146186Y0153788D01*
X0146432Y0153803D01*
X0146679Y0153812D01*
X0146925Y0153815D01*
X0147171Y0153812D01*
X0147418Y0153803D01*
X0147664Y0153788D01*
X0147909Y0153767D01*
X0148154Y0153740D01*
X0148398Y0153706D01*
X0148641Y0153667D01*
X0148884Y0153622D01*
X0149125Y0153571D01*
X0149364Y0153514D01*
X0149603Y0153451D01*
X0149839Y0153383D01*
X0150074Y0153308D01*
X0150307Y0153228D01*
X0150538Y0153142D01*
X0150767Y0153051D01*
X0150993Y0152954D01*
X0151217Y0152851D01*
X0151439Y0152743D01*
X0151657Y0152630D01*
X0151873Y0152511D01*
X0152086Y0152387D01*
X0152296Y0152257D01*
X0152502Y0152123D01*
X0152706Y0151984D01*
X0152905Y0151839D01*
X0153101Y0151690D01*
X0153294Y0151536D01*
X0153482Y0151378D01*
X0153667Y0151214D01*
X0153847Y0151047D01*
X0154024Y0150875D01*
X0154196Y0150698D01*
X0154363Y0150518D01*
X0154527Y0150333D01*
X0154685Y0150145D01*
X0154839Y0149952D01*
X0154988Y0149756D01*
X0155133Y0149557D01*
X0155272Y0149353D01*
X0155406Y0149147D01*
X0155536Y0148937D01*
X0155660Y0148724D01*
X0155779Y0148508D01*
X0155892Y0148290D01*
X0156000Y0148068D01*
X0156103Y0147844D01*
X0156200Y0147618D01*
X0156291Y0147389D01*
X0156377Y0147158D01*
X0156457Y0146925D01*
X0156532Y0146690D01*
X0156600Y0146454D01*
X0156663Y0146215D01*
X0156720Y0145976D01*
X0156771Y0145735D01*
X0156816Y0145492D01*
X0156855Y0145249D01*
X0156889Y0145005D01*
X0156916Y0144760D01*
X0156937Y0144515D01*
X0156952Y0144269D01*
X0156961Y0144022D01*
X0156964Y0143776D01*
X0156961Y0143530D01*
X0156952Y0143283D01*
X0156937Y0143037D01*
X0156916Y0142792D01*
X0156889Y0142547D01*
X0156855Y0142303D01*
X0156816Y0142060D01*
X0156771Y0141817D01*
X0156720Y0141576D01*
X0156663Y0141337D01*
X0156600Y0141098D01*
X0156532Y0140862D01*
X0156457Y0140627D01*
X0156377Y0140394D01*
X0156291Y0140163D01*
X0156200Y0139934D01*
X0156103Y0139708D01*
X0156000Y0139484D01*
X0155892Y0139262D01*
X0155779Y0139044D01*
X0155660Y0138828D01*
X0155536Y0138615D01*
X0155406Y0138405D01*
X0155272Y0138199D01*
X0155133Y0137995D01*
X0154988Y0137796D01*
X0154839Y0137600D01*
X0154685Y0137407D01*
X0154527Y0137219D01*
X0154363Y0137034D01*
X0154196Y0136854D01*
X0154024Y0136677D01*
X0153847Y0136505D01*
X0153667Y0136338D01*
X0153482Y0136174D01*
X0153294Y0136016D01*
X0153101Y0135862D01*
X0152905Y0135713D01*
X0152706Y0135568D01*
X0152502Y0135429D01*
X0152296Y0135295D01*
X0152086Y0135165D01*
X0151873Y0135041D01*
X0151657Y0134922D01*
X0151439Y0134809D01*
X0151217Y0134701D01*
X0150993Y0134598D01*
X0150767Y0134501D01*
X0150538Y0134410D01*
X0150307Y0134324D01*
X0150074Y0134244D01*
X0149839Y0134169D01*
X0149603Y0134101D01*
X0149364Y0134038D01*
X0149125Y0133981D01*
X0148884Y0133930D01*
X0148641Y0133885D01*
X0148398Y0133846D01*
X0148154Y0133812D01*
X0147909Y0133785D01*
X0147664Y0133764D01*
X0147418Y0133749D01*
X0147171Y0133740D01*
X0146925Y0133737D01*
X0146679Y0133740D01*
X0146432Y0133749D01*
X0146186Y0133764D01*
X0145941Y0133785D01*
X0145696Y0133812D01*
X0145452Y0133846D01*
X0145209Y0133885D01*
X0144966Y0133930D01*
X0144725Y0133981D01*
X0144486Y0134038D01*
X0144247Y0134101D01*
X0144011Y0134169D01*
X0143776Y0134244D01*
X0143543Y0134324D01*
X0143312Y0134410D01*
X0143083Y0134501D01*
X0142857Y0134598D01*
X0142633Y0134701D01*
X0142411Y0134809D01*
X0142193Y0134922D01*
X0141977Y0135041D01*
X0141764Y0135165D01*
X0141554Y0135295D01*
X0141348Y0135429D01*
X0141144Y0135568D01*
X0140945Y0135713D01*
X0140749Y0135862D01*
X0140556Y0136016D01*
X0140368Y0136174D01*
X0140183Y0136338D01*
X0140003Y0136505D01*
X0139826Y0136677D01*
X0139654Y0136854D01*
X0139487Y0137034D01*
X0139323Y0137219D01*
X0139165Y0137407D01*
X0139011Y0137600D01*
X0138862Y0137796D01*
X0138717Y0137995D01*
X0138578Y0138199D01*
X0138444Y0138405D01*
X0138314Y0138615D01*
X0138190Y0138828D01*
X0138071Y0139044D01*
X0137958Y0139262D01*
X0137850Y0139484D01*
X0137747Y0139708D01*
X0137650Y0139934D01*
X0137559Y0140163D01*
X0137473Y0140394D01*
X0137393Y0140627D01*
X0137318Y0140862D01*
X0137250Y0141098D01*
X0137187Y0141337D01*
X0137130Y0141576D01*
X0137079Y0141817D01*
X0137034Y0142060D01*
X0136995Y0142303D01*
X0136961Y0142547D01*
X0136934Y0142792D01*
X0136913Y0143037D01*
X0136898Y0143283D01*
X0136889Y0143530D01*
X0136886Y0143776D01*
X0143476Y0149346D02*
X0143464Y0149282D01*
X0143456Y0149217D01*
X0143451Y0149153D01*
X0143450Y0149088D01*
X0143453Y0149023D01*
X0143460Y0148958D01*
X0143471Y0148894D01*
X0143486Y0148831D01*
X0143504Y0148768D01*
X0143526Y0148707D01*
X0143552Y0148648D01*
X0143581Y0148590D01*
X0143614Y0148533D01*
X0143649Y0148479D01*
X0143688Y0148427D01*
X0143731Y0148378D01*
X0143776Y0148331D01*
X0143823Y0148287D01*
X0143873Y0148246D01*
X0143926Y0148207D01*
X0143981Y0148172D01*
X0144038Y0148141D01*
X0144096Y0148113D01*
X0144156Y0148088D01*
X0144218Y0148067D01*
X0144281Y0148050D01*
X0144344Y0148036D01*
X0144408Y0148027D01*
X0144473Y0148021D01*
X0144538Y0148019D01*
X0134720Y0143776D02*
X0134724Y0144076D01*
X0134735Y0144375D01*
X0134753Y0144674D01*
X0134779Y0144972D01*
X0134812Y0145270D01*
X0134852Y0145567D01*
X0134900Y0145863D01*
X0134955Y0146157D01*
X0135017Y0146450D01*
X0135086Y0146742D01*
X0135162Y0147031D01*
X0135246Y0147319D01*
X0135336Y0147604D01*
X0135433Y0147888D01*
X0135538Y0148169D01*
X0135649Y0148447D01*
X0135767Y0148722D01*
X0135892Y0148994D01*
X0136023Y0149264D01*
X0136161Y0149529D01*
X0136306Y0149792D01*
X0136456Y0150051D01*
X0136614Y0150306D01*
X0136777Y0150557D01*
X0136946Y0150804D01*
X0137122Y0151047D01*
X0137303Y0151285D01*
X0137490Y0151519D01*
X0137683Y0151748D01*
X0137882Y0151972D01*
X0138086Y0152192D01*
X0138295Y0152406D01*
X0138509Y0152615D01*
X0138729Y0152819D01*
X0138953Y0153018D01*
X0139182Y0153211D01*
X0139416Y0153398D01*
X0139654Y0153579D01*
X0139897Y0153755D01*
X0140144Y0153924D01*
X0140395Y0154087D01*
X0140650Y0154245D01*
X0140909Y0154395D01*
X0141172Y0154540D01*
X0141437Y0154678D01*
X0141707Y0154809D01*
X0141979Y0154934D01*
X0142254Y0155052D01*
X0142532Y0155163D01*
X0142813Y0155268D01*
X0143097Y0155365D01*
X0143382Y0155455D01*
X0143670Y0155539D01*
X0143959Y0155615D01*
X0144251Y0155684D01*
X0144544Y0155746D01*
X0144838Y0155801D01*
X0145134Y0155849D01*
X0145431Y0155889D01*
X0145729Y0155922D01*
X0146027Y0155948D01*
X0146326Y0155966D01*
X0146625Y0155977D01*
X0146925Y0155981D01*
X0147225Y0155977D01*
X0147524Y0155966D01*
X0147823Y0155948D01*
X0148121Y0155922D01*
X0148419Y0155889D01*
X0148716Y0155849D01*
X0149012Y0155801D01*
X0149306Y0155746D01*
X0149599Y0155684D01*
X0149891Y0155615D01*
X0150180Y0155539D01*
X0150468Y0155455D01*
X0150753Y0155365D01*
X0151037Y0155268D01*
X0151318Y0155163D01*
X0151596Y0155052D01*
X0151871Y0154934D01*
X0152143Y0154809D01*
X0152413Y0154678D01*
X0152678Y0154540D01*
X0152941Y0154395D01*
X0153200Y0154245D01*
X0153455Y0154087D01*
X0153706Y0153924D01*
X0153953Y0153755D01*
X0154196Y0153579D01*
X0154434Y0153398D01*
X0154668Y0153211D01*
X0154897Y0153018D01*
X0155121Y0152819D01*
X0155341Y0152615D01*
X0155555Y0152406D01*
X0155764Y0152192D01*
X0155968Y0151972D01*
X0156167Y0151748D01*
X0156360Y0151519D01*
X0156547Y0151285D01*
X0156728Y0151047D01*
X0156904Y0150804D01*
X0157073Y0150557D01*
X0157236Y0150306D01*
X0157394Y0150051D01*
X0157544Y0149792D01*
X0157689Y0149529D01*
X0157827Y0149264D01*
X0157958Y0148994D01*
X0158083Y0148722D01*
X0158201Y0148447D01*
X0158312Y0148169D01*
X0158417Y0147888D01*
X0158514Y0147604D01*
X0158604Y0147319D01*
X0158688Y0147031D01*
X0158764Y0146742D01*
X0158833Y0146450D01*
X0158895Y0146157D01*
X0158950Y0145863D01*
X0158998Y0145567D01*
X0159038Y0145270D01*
X0159071Y0144972D01*
X0159097Y0144674D01*
X0159115Y0144375D01*
X0159126Y0144076D01*
X0159130Y0143776D01*
X0159126Y0143476D01*
X0159115Y0143177D01*
X0159097Y0142878D01*
X0159071Y0142580D01*
X0159038Y0142282D01*
X0158998Y0141985D01*
X0158950Y0141689D01*
X0158895Y0141395D01*
X0158833Y0141102D01*
X0158764Y0140810D01*
X0158688Y0140521D01*
X0158604Y0140233D01*
X0158514Y0139948D01*
X0158417Y0139664D01*
X0158312Y0139383D01*
X0158201Y0139105D01*
X0158083Y0138830D01*
X0157958Y0138558D01*
X0157827Y0138288D01*
X0157689Y0138023D01*
X0157544Y0137760D01*
X0157394Y0137501D01*
X0157236Y0137246D01*
X0157073Y0136995D01*
X0156904Y0136748D01*
X0156728Y0136505D01*
X0156547Y0136267D01*
X0156360Y0136033D01*
X0156167Y0135804D01*
X0155968Y0135580D01*
X0155764Y0135360D01*
X0155555Y0135146D01*
X0155341Y0134937D01*
X0155121Y0134733D01*
X0154897Y0134534D01*
X0154668Y0134341D01*
X0154434Y0134154D01*
X0154196Y0133973D01*
X0153953Y0133797D01*
X0153706Y0133628D01*
X0153455Y0133465D01*
X0153200Y0133307D01*
X0152941Y0133157D01*
X0152678Y0133012D01*
X0152413Y0132874D01*
X0152143Y0132743D01*
X0151871Y0132618D01*
X0151596Y0132500D01*
X0151318Y0132389D01*
X0151037Y0132284D01*
X0150753Y0132187D01*
X0150468Y0132097D01*
X0150180Y0132013D01*
X0149891Y0131937D01*
X0149599Y0131868D01*
X0149306Y0131806D01*
X0149012Y0131751D01*
X0148716Y0131703D01*
X0148419Y0131663D01*
X0148121Y0131630D01*
X0147823Y0131604D01*
X0147524Y0131586D01*
X0147225Y0131575D01*
X0146925Y0131571D01*
X0146625Y0131575D01*
X0146326Y0131586D01*
X0146027Y0131604D01*
X0145729Y0131630D01*
X0145431Y0131663D01*
X0145134Y0131703D01*
X0144838Y0131751D01*
X0144544Y0131806D01*
X0144251Y0131868D01*
X0143959Y0131937D01*
X0143670Y0132013D01*
X0143382Y0132097D01*
X0143097Y0132187D01*
X0142813Y0132284D01*
X0142532Y0132389D01*
X0142254Y0132500D01*
X0141979Y0132618D01*
X0141707Y0132743D01*
X0141437Y0132874D01*
X0141172Y0133012D01*
X0140909Y0133157D01*
X0140650Y0133307D01*
X0140395Y0133465D01*
X0140144Y0133628D01*
X0139897Y0133797D01*
X0139654Y0133973D01*
X0139416Y0134154D01*
X0139182Y0134341D01*
X0138953Y0134534D01*
X0138729Y0134733D01*
X0138509Y0134937D01*
X0138295Y0135146D01*
X0138086Y0135360D01*
X0137882Y0135580D01*
X0137683Y0135804D01*
X0137490Y0136033D01*
X0137303Y0136267D01*
X0137122Y0136505D01*
X0136946Y0136748D01*
X0136777Y0136995D01*
X0136614Y0137246D01*
X0136456Y0137501D01*
X0136306Y0137760D01*
X0136161Y0138023D01*
X0136023Y0138288D01*
X0135892Y0138558D01*
X0135767Y0138830D01*
X0135649Y0139105D01*
X0135538Y0139383D01*
X0135433Y0139664D01*
X0135336Y0139948D01*
X0135246Y0140233D01*
X0135162Y0140521D01*
X0135086Y0140810D01*
X0135017Y0141102D01*
X0134955Y0141395D01*
X0134900Y0141689D01*
X0134852Y0141985D01*
X0134812Y0142282D01*
X0134779Y0142580D01*
X0134753Y0142878D01*
X0134735Y0143177D01*
X0134724Y0143476D01*
X0134720Y0143776D01*
X0113195Y0147024D02*
X0113195Y0149681D01*
X0101915Y0149681D01*
X0101915Y0147024D01*
X0105168Y0148019D02*
X0110207Y0148019D01*
X0110258Y0148017D01*
X0110308Y0148011D01*
X0110358Y0148002D01*
X0110407Y0147988D01*
X0110455Y0147971D01*
X0110501Y0147950D01*
X0110546Y0147926D01*
X0110588Y0147898D01*
X0110629Y0147867D01*
X0110667Y0147834D01*
X0110702Y0147797D01*
X0110734Y0147758D01*
X0110763Y0147716D01*
X0110789Y0147673D01*
X0110812Y0147627D01*
X0110831Y0147580D01*
X0110846Y0147532D01*
X0110858Y0147482D01*
X0110866Y0147432D01*
X0110870Y0147381D01*
X0110870Y0147331D01*
X0110866Y0147280D01*
X0110858Y0147230D01*
X0110846Y0147180D01*
X0110831Y0147132D01*
X0110812Y0147085D01*
X0110789Y0147039D01*
X0110763Y0146996D01*
X0110734Y0146954D01*
X0110702Y0146915D01*
X0110667Y0146878D01*
X0110629Y0146845D01*
X0110588Y0146814D01*
X0110546Y0146786D01*
X0110501Y0146762D01*
X0110455Y0146741D01*
X0110407Y0146724D01*
X0110358Y0146710D01*
X0110308Y0146701D01*
X0110258Y0146695D01*
X0110207Y0146693D01*
X0107025Y0146693D01*
X0106974Y0146691D01*
X0106924Y0146685D01*
X0106874Y0146676D01*
X0106825Y0146662D01*
X0106777Y0146645D01*
X0106731Y0146624D01*
X0106686Y0146600D01*
X0106644Y0146572D01*
X0106603Y0146541D01*
X0106565Y0146508D01*
X0106530Y0146471D01*
X0106498Y0146432D01*
X0106469Y0146390D01*
X0106443Y0146347D01*
X0106420Y0146301D01*
X0106401Y0146254D01*
X0106386Y0146206D01*
X0106374Y0146156D01*
X0106366Y0146106D01*
X0106362Y0146055D01*
X0106362Y0146005D01*
X0106366Y0145954D01*
X0106374Y0145904D01*
X0106386Y0145854D01*
X0106401Y0145806D01*
X0106420Y0145759D01*
X0106443Y0145713D01*
X0106469Y0145670D01*
X0106498Y0145628D01*
X0106530Y0145589D01*
X0106565Y0145552D01*
X0106603Y0145519D01*
X0106644Y0145488D01*
X0106686Y0145460D01*
X0106731Y0145436D01*
X0106777Y0145415D01*
X0106825Y0145398D01*
X0106874Y0145384D01*
X0106924Y0145375D01*
X0106974Y0145369D01*
X0107025Y0145367D01*
X0108351Y0145367D01*
X0108402Y0145365D01*
X0108452Y0145359D01*
X0108502Y0145350D01*
X0108551Y0145336D01*
X0108599Y0145319D01*
X0108645Y0145298D01*
X0108690Y0145274D01*
X0108732Y0145246D01*
X0108773Y0145215D01*
X0108811Y0145182D01*
X0108846Y0145145D01*
X0108878Y0145106D01*
X0108907Y0145064D01*
X0108933Y0145021D01*
X0108956Y0144975D01*
X0108975Y0144928D01*
X0108990Y0144880D01*
X0109002Y0144830D01*
X0109010Y0144780D01*
X0109014Y0144729D01*
X0109014Y0144679D01*
X0109010Y0144628D01*
X0109002Y0144578D01*
X0108990Y0144528D01*
X0108975Y0144480D01*
X0108956Y0144433D01*
X0108933Y0144387D01*
X0108907Y0144344D01*
X0108878Y0144302D01*
X0108846Y0144263D01*
X0108811Y0144226D01*
X0108773Y0144193D01*
X0108732Y0144162D01*
X0108690Y0144134D01*
X0108645Y0144110D01*
X0108599Y0144089D01*
X0108551Y0144072D01*
X0108502Y0144058D01*
X0108452Y0144049D01*
X0108402Y0144043D01*
X0108351Y0144041D01*
X0106759Y0144041D01*
X0106708Y0144039D01*
X0106658Y0144033D01*
X0106608Y0144024D01*
X0106559Y0144010D01*
X0106511Y0143993D01*
X0106465Y0143972D01*
X0106420Y0143948D01*
X0106378Y0143920D01*
X0106337Y0143889D01*
X0106299Y0143856D01*
X0106264Y0143819D01*
X0106232Y0143780D01*
X0106203Y0143738D01*
X0106177Y0143695D01*
X0106154Y0143649D01*
X0106135Y0143602D01*
X0106120Y0143554D01*
X0106108Y0143504D01*
X0106100Y0143454D01*
X0106096Y0143403D01*
X0106096Y0143353D01*
X0106100Y0143302D01*
X0106108Y0143252D01*
X0106120Y0143202D01*
X0106135Y0143154D01*
X0106154Y0143107D01*
X0106177Y0143061D01*
X0106203Y0143018D01*
X0106232Y0142976D01*
X0106264Y0142937D01*
X0106299Y0142900D01*
X0106337Y0142867D01*
X0106378Y0142836D01*
X0106420Y0142808D01*
X0106465Y0142784D01*
X0106511Y0142763D01*
X0106559Y0142746D01*
X0106608Y0142732D01*
X0106658Y0142723D01*
X0106708Y0142717D01*
X0106759Y0142715D01*
X0108351Y0142715D01*
X0108402Y0142713D01*
X0108452Y0142707D01*
X0108502Y0142698D01*
X0108551Y0142684D01*
X0108599Y0142667D01*
X0108645Y0142646D01*
X0108690Y0142622D01*
X0108732Y0142594D01*
X0108773Y0142563D01*
X0108811Y0142530D01*
X0108846Y0142493D01*
X0108878Y0142454D01*
X0108907Y0142412D01*
X0108933Y0142369D01*
X0108956Y0142323D01*
X0108975Y0142276D01*
X0108990Y0142228D01*
X0109002Y0142178D01*
X0109010Y0142128D01*
X0109014Y0142077D01*
X0109014Y0142027D01*
X0109010Y0141976D01*
X0109002Y0141926D01*
X0108990Y0141876D01*
X0108975Y0141828D01*
X0108956Y0141781D01*
X0108933Y0141735D01*
X0108907Y0141692D01*
X0108878Y0141650D01*
X0108846Y0141611D01*
X0108811Y0141574D01*
X0108773Y0141541D01*
X0108732Y0141510D01*
X0108690Y0141482D01*
X0108645Y0141458D01*
X0108599Y0141437D01*
X0108551Y0141420D01*
X0108502Y0141406D01*
X0108452Y0141397D01*
X0108402Y0141391D01*
X0108351Y0141389D01*
X0104903Y0141389D01*
X0104903Y0141388D02*
X0104852Y0141386D01*
X0104802Y0141380D01*
X0104752Y0141371D01*
X0104703Y0141357D01*
X0104655Y0141340D01*
X0104609Y0141319D01*
X0104564Y0141295D01*
X0104522Y0141267D01*
X0104481Y0141236D01*
X0104443Y0141203D01*
X0104408Y0141166D01*
X0104376Y0141127D01*
X0104347Y0141085D01*
X0104321Y0141042D01*
X0104298Y0140996D01*
X0104279Y0140949D01*
X0104264Y0140901D01*
X0104252Y0140851D01*
X0104244Y0140801D01*
X0104240Y0140750D01*
X0104240Y0140700D01*
X0104244Y0140649D01*
X0104252Y0140599D01*
X0104264Y0140549D01*
X0104279Y0140501D01*
X0104298Y0140454D01*
X0104321Y0140408D01*
X0104347Y0140365D01*
X0104376Y0140323D01*
X0104408Y0140284D01*
X0104443Y0140247D01*
X0104481Y0140214D01*
X0104522Y0140183D01*
X0104564Y0140155D01*
X0104609Y0140131D01*
X0104655Y0140110D01*
X0104703Y0140093D01*
X0104752Y0140079D01*
X0104802Y0140070D01*
X0104852Y0140064D01*
X0104903Y0140062D01*
X0109146Y0140062D01*
X0109147Y0140062D02*
X0109230Y0140060D01*
X0109313Y0140055D01*
X0109396Y0140045D01*
X0109478Y0140032D01*
X0109560Y0140016D01*
X0109641Y0139995D01*
X0109720Y0139971D01*
X0109799Y0139944D01*
X0109876Y0139913D01*
X0109952Y0139878D01*
X0110026Y0139840D01*
X0110099Y0139799D01*
X0110169Y0139755D01*
X0110238Y0139708D01*
X0110304Y0139657D01*
X0110368Y0139604D01*
X0110429Y0139548D01*
X0110488Y0139489D01*
X0110545Y0139427D01*
X0110598Y0139363D01*
X0110648Y0139297D01*
X0110696Y0139229D01*
X0110740Y0139158D01*
X0110781Y0139086D01*
X0110819Y0139011D01*
X0110854Y0138936D01*
X0110885Y0138858D01*
X0110912Y0138780D01*
X0110936Y0138700D01*
X0110956Y0138619D01*
X0110973Y0138538D01*
X0110986Y0138455D01*
X0110996Y0138373D01*
X0111001Y0138289D01*
X0111003Y0138206D01*
X0113195Y0137870D02*
X0113195Y0140528D01*
X0113195Y0137870D02*
X0101915Y0137870D01*
X0101915Y0140528D01*
X0097516Y0143776D02*
X0097519Y0144022D01*
X0097528Y0144269D01*
X0097543Y0144515D01*
X0097564Y0144760D01*
X0097591Y0145005D01*
X0097625Y0145249D01*
X0097664Y0145492D01*
X0097709Y0145735D01*
X0097760Y0145976D01*
X0097817Y0146215D01*
X0097880Y0146454D01*
X0097948Y0146690D01*
X0098023Y0146925D01*
X0098103Y0147158D01*
X0098189Y0147389D01*
X0098280Y0147618D01*
X0098377Y0147844D01*
X0098480Y0148068D01*
X0098588Y0148290D01*
X0098701Y0148508D01*
X0098820Y0148724D01*
X0098944Y0148937D01*
X0099074Y0149147D01*
X0099208Y0149353D01*
X0099347Y0149557D01*
X0099492Y0149756D01*
X0099641Y0149952D01*
X0099795Y0150145D01*
X0099953Y0150333D01*
X0100117Y0150518D01*
X0100284Y0150698D01*
X0100456Y0150875D01*
X0100633Y0151047D01*
X0100813Y0151214D01*
X0100998Y0151378D01*
X0101186Y0151536D01*
X0101379Y0151690D01*
X0101575Y0151839D01*
X0101774Y0151984D01*
X0101978Y0152123D01*
X0102184Y0152257D01*
X0102394Y0152387D01*
X0102607Y0152511D01*
X0102823Y0152630D01*
X0103041Y0152743D01*
X0103263Y0152851D01*
X0103487Y0152954D01*
X0103713Y0153051D01*
X0103942Y0153142D01*
X0104173Y0153228D01*
X0104406Y0153308D01*
X0104641Y0153383D01*
X0104877Y0153451D01*
X0105116Y0153514D01*
X0105355Y0153571D01*
X0105596Y0153622D01*
X0105839Y0153667D01*
X0106082Y0153706D01*
X0106326Y0153740D01*
X0106571Y0153767D01*
X0106816Y0153788D01*
X0107062Y0153803D01*
X0107309Y0153812D01*
X0107555Y0153815D01*
X0107801Y0153812D01*
X0108048Y0153803D01*
X0108294Y0153788D01*
X0108539Y0153767D01*
X0108784Y0153740D01*
X0109028Y0153706D01*
X0109271Y0153667D01*
X0109514Y0153622D01*
X0109755Y0153571D01*
X0109994Y0153514D01*
X0110233Y0153451D01*
X0110469Y0153383D01*
X0110704Y0153308D01*
X0110937Y0153228D01*
X0111168Y0153142D01*
X0111397Y0153051D01*
X0111623Y0152954D01*
X0111847Y0152851D01*
X0112069Y0152743D01*
X0112287Y0152630D01*
X0112503Y0152511D01*
X0112716Y0152387D01*
X0112926Y0152257D01*
X0113132Y0152123D01*
X0113336Y0151984D01*
X0113535Y0151839D01*
X0113731Y0151690D01*
X0113924Y0151536D01*
X0114112Y0151378D01*
X0114297Y0151214D01*
X0114477Y0151047D01*
X0114654Y0150875D01*
X0114826Y0150698D01*
X0114993Y0150518D01*
X0115157Y0150333D01*
X0115315Y0150145D01*
X0115469Y0149952D01*
X0115618Y0149756D01*
X0115763Y0149557D01*
X0115902Y0149353D01*
X0116036Y0149147D01*
X0116166Y0148937D01*
X0116290Y0148724D01*
X0116409Y0148508D01*
X0116522Y0148290D01*
X0116630Y0148068D01*
X0116733Y0147844D01*
X0116830Y0147618D01*
X0116921Y0147389D01*
X0117007Y0147158D01*
X0117087Y0146925D01*
X0117162Y0146690D01*
X0117230Y0146454D01*
X0117293Y0146215D01*
X0117350Y0145976D01*
X0117401Y0145735D01*
X0117446Y0145492D01*
X0117485Y0145249D01*
X0117519Y0145005D01*
X0117546Y0144760D01*
X0117567Y0144515D01*
X0117582Y0144269D01*
X0117591Y0144022D01*
X0117594Y0143776D01*
X0117591Y0143530D01*
X0117582Y0143283D01*
X0117567Y0143037D01*
X0117546Y0142792D01*
X0117519Y0142547D01*
X0117485Y0142303D01*
X0117446Y0142060D01*
X0117401Y0141817D01*
X0117350Y0141576D01*
X0117293Y0141337D01*
X0117230Y0141098D01*
X0117162Y0140862D01*
X0117087Y0140627D01*
X0117007Y0140394D01*
X0116921Y0140163D01*
X0116830Y0139934D01*
X0116733Y0139708D01*
X0116630Y0139484D01*
X0116522Y0139262D01*
X0116409Y0139044D01*
X0116290Y0138828D01*
X0116166Y0138615D01*
X0116036Y0138405D01*
X0115902Y0138199D01*
X0115763Y0137995D01*
X0115618Y0137796D01*
X0115469Y0137600D01*
X0115315Y0137407D01*
X0115157Y0137219D01*
X0114993Y0137034D01*
X0114826Y0136854D01*
X0114654Y0136677D01*
X0114477Y0136505D01*
X0114297Y0136338D01*
X0114112Y0136174D01*
X0113924Y0136016D01*
X0113731Y0135862D01*
X0113535Y0135713D01*
X0113336Y0135568D01*
X0113132Y0135429D01*
X0112926Y0135295D01*
X0112716Y0135165D01*
X0112503Y0135041D01*
X0112287Y0134922D01*
X0112069Y0134809D01*
X0111847Y0134701D01*
X0111623Y0134598D01*
X0111397Y0134501D01*
X0111168Y0134410D01*
X0110937Y0134324D01*
X0110704Y0134244D01*
X0110469Y0134169D01*
X0110233Y0134101D01*
X0109994Y0134038D01*
X0109755Y0133981D01*
X0109514Y0133930D01*
X0109271Y0133885D01*
X0109028Y0133846D01*
X0108784Y0133812D01*
X0108539Y0133785D01*
X0108294Y0133764D01*
X0108048Y0133749D01*
X0107801Y0133740D01*
X0107555Y0133737D01*
X0107309Y0133740D01*
X0107062Y0133749D01*
X0106816Y0133764D01*
X0106571Y0133785D01*
X0106326Y0133812D01*
X0106082Y0133846D01*
X0105839Y0133885D01*
X0105596Y0133930D01*
X0105355Y0133981D01*
X0105116Y0134038D01*
X0104877Y0134101D01*
X0104641Y0134169D01*
X0104406Y0134244D01*
X0104173Y0134324D01*
X0103942Y0134410D01*
X0103713Y0134501D01*
X0103487Y0134598D01*
X0103263Y0134701D01*
X0103041Y0134809D01*
X0102823Y0134922D01*
X0102607Y0135041D01*
X0102394Y0135165D01*
X0102184Y0135295D01*
X0101978Y0135429D01*
X0101774Y0135568D01*
X0101575Y0135713D01*
X0101379Y0135862D01*
X0101186Y0136016D01*
X0100998Y0136174D01*
X0100813Y0136338D01*
X0100633Y0136505D01*
X0100456Y0136677D01*
X0100284Y0136854D01*
X0100117Y0137034D01*
X0099953Y0137219D01*
X0099795Y0137407D01*
X0099641Y0137600D01*
X0099492Y0137796D01*
X0099347Y0137995D01*
X0099208Y0138199D01*
X0099074Y0138405D01*
X0098944Y0138615D01*
X0098820Y0138828D01*
X0098701Y0139044D01*
X0098588Y0139262D01*
X0098480Y0139484D01*
X0098377Y0139708D01*
X0098280Y0139934D01*
X0098189Y0140163D01*
X0098103Y0140394D01*
X0098023Y0140627D01*
X0097948Y0140862D01*
X0097880Y0141098D01*
X0097817Y0141337D01*
X0097760Y0141576D01*
X0097709Y0141817D01*
X0097664Y0142060D01*
X0097625Y0142303D01*
X0097591Y0142547D01*
X0097564Y0142792D01*
X0097543Y0143037D01*
X0097528Y0143283D01*
X0097519Y0143530D01*
X0097516Y0143776D01*
X0104106Y0149346D02*
X0104094Y0149282D01*
X0104086Y0149217D01*
X0104081Y0149153D01*
X0104080Y0149088D01*
X0104083Y0149023D01*
X0104090Y0148958D01*
X0104101Y0148894D01*
X0104116Y0148831D01*
X0104134Y0148768D01*
X0104156Y0148707D01*
X0104182Y0148648D01*
X0104211Y0148590D01*
X0104244Y0148533D01*
X0104279Y0148479D01*
X0104318Y0148427D01*
X0104361Y0148378D01*
X0104406Y0148331D01*
X0104453Y0148287D01*
X0104503Y0148246D01*
X0104556Y0148207D01*
X0104611Y0148172D01*
X0104668Y0148141D01*
X0104726Y0148113D01*
X0104786Y0148088D01*
X0104848Y0148067D01*
X0104911Y0148050D01*
X0104974Y0148036D01*
X0105038Y0148027D01*
X0105103Y0148021D01*
X0105168Y0148019D01*
X0095350Y0143776D02*
X0095354Y0144076D01*
X0095365Y0144375D01*
X0095383Y0144674D01*
X0095409Y0144972D01*
X0095442Y0145270D01*
X0095482Y0145567D01*
X0095530Y0145863D01*
X0095585Y0146157D01*
X0095647Y0146450D01*
X0095716Y0146742D01*
X0095792Y0147031D01*
X0095876Y0147319D01*
X0095966Y0147604D01*
X0096063Y0147888D01*
X0096168Y0148169D01*
X0096279Y0148447D01*
X0096397Y0148722D01*
X0096522Y0148994D01*
X0096653Y0149264D01*
X0096791Y0149529D01*
X0096936Y0149792D01*
X0097086Y0150051D01*
X0097244Y0150306D01*
X0097407Y0150557D01*
X0097576Y0150804D01*
X0097752Y0151047D01*
X0097933Y0151285D01*
X0098120Y0151519D01*
X0098313Y0151748D01*
X0098512Y0151972D01*
X0098716Y0152192D01*
X0098925Y0152406D01*
X0099139Y0152615D01*
X0099359Y0152819D01*
X0099583Y0153018D01*
X0099812Y0153211D01*
X0100046Y0153398D01*
X0100284Y0153579D01*
X0100527Y0153755D01*
X0100774Y0153924D01*
X0101025Y0154087D01*
X0101280Y0154245D01*
X0101539Y0154395D01*
X0101802Y0154540D01*
X0102067Y0154678D01*
X0102337Y0154809D01*
X0102609Y0154934D01*
X0102884Y0155052D01*
X0103162Y0155163D01*
X0103443Y0155268D01*
X0103727Y0155365D01*
X0104012Y0155455D01*
X0104300Y0155539D01*
X0104589Y0155615D01*
X0104881Y0155684D01*
X0105174Y0155746D01*
X0105468Y0155801D01*
X0105764Y0155849D01*
X0106061Y0155889D01*
X0106359Y0155922D01*
X0106657Y0155948D01*
X0106956Y0155966D01*
X0107255Y0155977D01*
X0107555Y0155981D01*
X0107855Y0155977D01*
X0108154Y0155966D01*
X0108453Y0155948D01*
X0108751Y0155922D01*
X0109049Y0155889D01*
X0109346Y0155849D01*
X0109642Y0155801D01*
X0109936Y0155746D01*
X0110229Y0155684D01*
X0110521Y0155615D01*
X0110810Y0155539D01*
X0111098Y0155455D01*
X0111383Y0155365D01*
X0111667Y0155268D01*
X0111948Y0155163D01*
X0112226Y0155052D01*
X0112501Y0154934D01*
X0112773Y0154809D01*
X0113043Y0154678D01*
X0113308Y0154540D01*
X0113571Y0154395D01*
X0113830Y0154245D01*
X0114085Y0154087D01*
X0114336Y0153924D01*
X0114583Y0153755D01*
X0114826Y0153579D01*
X0115064Y0153398D01*
X0115298Y0153211D01*
X0115527Y0153018D01*
X0115751Y0152819D01*
X0115971Y0152615D01*
X0116185Y0152406D01*
X0116394Y0152192D01*
X0116598Y0151972D01*
X0116797Y0151748D01*
X0116990Y0151519D01*
X0117177Y0151285D01*
X0117358Y0151047D01*
X0117534Y0150804D01*
X0117703Y0150557D01*
X0117866Y0150306D01*
X0118024Y0150051D01*
X0118174Y0149792D01*
X0118319Y0149529D01*
X0118457Y0149264D01*
X0118588Y0148994D01*
X0118713Y0148722D01*
X0118831Y0148447D01*
X0118942Y0148169D01*
X0119047Y0147888D01*
X0119144Y0147604D01*
X0119234Y0147319D01*
X0119318Y0147031D01*
X0119394Y0146742D01*
X0119463Y0146450D01*
X0119525Y0146157D01*
X0119580Y0145863D01*
X0119628Y0145567D01*
X0119668Y0145270D01*
X0119701Y0144972D01*
X0119727Y0144674D01*
X0119745Y0144375D01*
X0119756Y0144076D01*
X0119760Y0143776D01*
X0119756Y0143476D01*
X0119745Y0143177D01*
X0119727Y0142878D01*
X0119701Y0142580D01*
X0119668Y0142282D01*
X0119628Y0141985D01*
X0119580Y0141689D01*
X0119525Y0141395D01*
X0119463Y0141102D01*
X0119394Y0140810D01*
X0119318Y0140521D01*
X0119234Y0140233D01*
X0119144Y0139948D01*
X0119047Y0139664D01*
X0118942Y0139383D01*
X0118831Y0139105D01*
X0118713Y0138830D01*
X0118588Y0138558D01*
X0118457Y0138288D01*
X0118319Y0138023D01*
X0118174Y0137760D01*
X0118024Y0137501D01*
X0117866Y0137246D01*
X0117703Y0136995D01*
X0117534Y0136748D01*
X0117358Y0136505D01*
X0117177Y0136267D01*
X0116990Y0136033D01*
X0116797Y0135804D01*
X0116598Y0135580D01*
X0116394Y0135360D01*
X0116185Y0135146D01*
X0115971Y0134937D01*
X0115751Y0134733D01*
X0115527Y0134534D01*
X0115298Y0134341D01*
X0115064Y0134154D01*
X0114826Y0133973D01*
X0114583Y0133797D01*
X0114336Y0133628D01*
X0114085Y0133465D01*
X0113830Y0133307D01*
X0113571Y0133157D01*
X0113308Y0133012D01*
X0113043Y0132874D01*
X0112773Y0132743D01*
X0112501Y0132618D01*
X0112226Y0132500D01*
X0111948Y0132389D01*
X0111667Y0132284D01*
X0111383Y0132187D01*
X0111098Y0132097D01*
X0110810Y0132013D01*
X0110521Y0131937D01*
X0110229Y0131868D01*
X0109936Y0131806D01*
X0109642Y0131751D01*
X0109346Y0131703D01*
X0109049Y0131663D01*
X0108751Y0131630D01*
X0108453Y0131604D01*
X0108154Y0131586D01*
X0107855Y0131575D01*
X0107555Y0131571D01*
X0107255Y0131575D01*
X0106956Y0131586D01*
X0106657Y0131604D01*
X0106359Y0131630D01*
X0106061Y0131663D01*
X0105764Y0131703D01*
X0105468Y0131751D01*
X0105174Y0131806D01*
X0104881Y0131868D01*
X0104589Y0131937D01*
X0104300Y0132013D01*
X0104012Y0132097D01*
X0103727Y0132187D01*
X0103443Y0132284D01*
X0103162Y0132389D01*
X0102884Y0132500D01*
X0102609Y0132618D01*
X0102337Y0132743D01*
X0102067Y0132874D01*
X0101802Y0133012D01*
X0101539Y0133157D01*
X0101280Y0133307D01*
X0101025Y0133465D01*
X0100774Y0133628D01*
X0100527Y0133797D01*
X0100284Y0133973D01*
X0100046Y0134154D01*
X0099812Y0134341D01*
X0099583Y0134534D01*
X0099359Y0134733D01*
X0099139Y0134937D01*
X0098925Y0135146D01*
X0098716Y0135360D01*
X0098512Y0135580D01*
X0098313Y0135804D01*
X0098120Y0136033D01*
X0097933Y0136267D01*
X0097752Y0136505D01*
X0097576Y0136748D01*
X0097407Y0136995D01*
X0097244Y0137246D01*
X0097086Y0137501D01*
X0096936Y0137760D01*
X0096791Y0138023D01*
X0096653Y0138288D01*
X0096522Y0138558D01*
X0096397Y0138830D01*
X0096279Y0139105D01*
X0096168Y0139383D01*
X0096063Y0139664D01*
X0095966Y0139948D01*
X0095876Y0140233D01*
X0095792Y0140521D01*
X0095716Y0140810D01*
X0095647Y0141102D01*
X0095585Y0141395D01*
X0095530Y0141689D01*
X0095482Y0141985D01*
X0095442Y0142282D01*
X0095409Y0142580D01*
X0095383Y0142878D01*
X0095365Y0143177D01*
X0095354Y0143476D01*
X0095350Y0143776D01*
X0073825Y0147024D02*
X0073825Y0149681D01*
X0062545Y0149681D01*
X0062545Y0147024D01*
X0065798Y0148019D02*
X0070837Y0148019D01*
X0070888Y0148017D01*
X0070938Y0148011D01*
X0070988Y0148002D01*
X0071037Y0147988D01*
X0071085Y0147971D01*
X0071131Y0147950D01*
X0071176Y0147926D01*
X0071218Y0147898D01*
X0071259Y0147867D01*
X0071297Y0147834D01*
X0071332Y0147797D01*
X0071364Y0147758D01*
X0071393Y0147716D01*
X0071419Y0147673D01*
X0071442Y0147627D01*
X0071461Y0147580D01*
X0071476Y0147532D01*
X0071488Y0147482D01*
X0071496Y0147432D01*
X0071500Y0147381D01*
X0071500Y0147331D01*
X0071496Y0147280D01*
X0071488Y0147230D01*
X0071476Y0147180D01*
X0071461Y0147132D01*
X0071442Y0147085D01*
X0071419Y0147039D01*
X0071393Y0146996D01*
X0071364Y0146954D01*
X0071332Y0146915D01*
X0071297Y0146878D01*
X0071259Y0146845D01*
X0071218Y0146814D01*
X0071176Y0146786D01*
X0071131Y0146762D01*
X0071085Y0146741D01*
X0071037Y0146724D01*
X0070988Y0146710D01*
X0070938Y0146701D01*
X0070888Y0146695D01*
X0070837Y0146693D01*
X0067655Y0146693D01*
X0067604Y0146691D01*
X0067554Y0146685D01*
X0067504Y0146676D01*
X0067455Y0146662D01*
X0067407Y0146645D01*
X0067361Y0146624D01*
X0067316Y0146600D01*
X0067274Y0146572D01*
X0067233Y0146541D01*
X0067195Y0146508D01*
X0067160Y0146471D01*
X0067128Y0146432D01*
X0067099Y0146390D01*
X0067073Y0146347D01*
X0067050Y0146301D01*
X0067031Y0146254D01*
X0067016Y0146206D01*
X0067004Y0146156D01*
X0066996Y0146106D01*
X0066992Y0146055D01*
X0066992Y0146005D01*
X0066996Y0145954D01*
X0067004Y0145904D01*
X0067016Y0145854D01*
X0067031Y0145806D01*
X0067050Y0145759D01*
X0067073Y0145713D01*
X0067099Y0145670D01*
X0067128Y0145628D01*
X0067160Y0145589D01*
X0067195Y0145552D01*
X0067233Y0145519D01*
X0067274Y0145488D01*
X0067316Y0145460D01*
X0067361Y0145436D01*
X0067407Y0145415D01*
X0067455Y0145398D01*
X0067504Y0145384D01*
X0067554Y0145375D01*
X0067604Y0145369D01*
X0067655Y0145367D01*
X0068981Y0145367D01*
X0069032Y0145365D01*
X0069082Y0145359D01*
X0069132Y0145350D01*
X0069181Y0145336D01*
X0069229Y0145319D01*
X0069275Y0145298D01*
X0069320Y0145274D01*
X0069362Y0145246D01*
X0069403Y0145215D01*
X0069441Y0145182D01*
X0069476Y0145145D01*
X0069508Y0145106D01*
X0069537Y0145064D01*
X0069563Y0145021D01*
X0069586Y0144975D01*
X0069605Y0144928D01*
X0069620Y0144880D01*
X0069632Y0144830D01*
X0069640Y0144780D01*
X0069644Y0144729D01*
X0069644Y0144679D01*
X0069640Y0144628D01*
X0069632Y0144578D01*
X0069620Y0144528D01*
X0069605Y0144480D01*
X0069586Y0144433D01*
X0069563Y0144387D01*
X0069537Y0144344D01*
X0069508Y0144302D01*
X0069476Y0144263D01*
X0069441Y0144226D01*
X0069403Y0144193D01*
X0069362Y0144162D01*
X0069320Y0144134D01*
X0069275Y0144110D01*
X0069229Y0144089D01*
X0069181Y0144072D01*
X0069132Y0144058D01*
X0069082Y0144049D01*
X0069032Y0144043D01*
X0068981Y0144041D01*
X0067389Y0144041D01*
X0067338Y0144039D01*
X0067288Y0144033D01*
X0067238Y0144024D01*
X0067189Y0144010D01*
X0067141Y0143993D01*
X0067095Y0143972D01*
X0067050Y0143948D01*
X0067008Y0143920D01*
X0066967Y0143889D01*
X0066929Y0143856D01*
X0066894Y0143819D01*
X0066862Y0143780D01*
X0066833Y0143738D01*
X0066807Y0143695D01*
X0066784Y0143649D01*
X0066765Y0143602D01*
X0066750Y0143554D01*
X0066738Y0143504D01*
X0066730Y0143454D01*
X0066726Y0143403D01*
X0066726Y0143353D01*
X0066730Y0143302D01*
X0066738Y0143252D01*
X0066750Y0143202D01*
X0066765Y0143154D01*
X0066784Y0143107D01*
X0066807Y0143061D01*
X0066833Y0143018D01*
X0066862Y0142976D01*
X0066894Y0142937D01*
X0066929Y0142900D01*
X0066967Y0142867D01*
X0067008Y0142836D01*
X0067050Y0142808D01*
X0067095Y0142784D01*
X0067141Y0142763D01*
X0067189Y0142746D01*
X0067238Y0142732D01*
X0067288Y0142723D01*
X0067338Y0142717D01*
X0067389Y0142715D01*
X0068981Y0142715D01*
X0069032Y0142713D01*
X0069082Y0142707D01*
X0069132Y0142698D01*
X0069181Y0142684D01*
X0069229Y0142667D01*
X0069275Y0142646D01*
X0069320Y0142622D01*
X0069362Y0142594D01*
X0069403Y0142563D01*
X0069441Y0142530D01*
X0069476Y0142493D01*
X0069508Y0142454D01*
X0069537Y0142412D01*
X0069563Y0142369D01*
X0069586Y0142323D01*
X0069605Y0142276D01*
X0069620Y0142228D01*
X0069632Y0142178D01*
X0069640Y0142128D01*
X0069644Y0142077D01*
X0069644Y0142027D01*
X0069640Y0141976D01*
X0069632Y0141926D01*
X0069620Y0141876D01*
X0069605Y0141828D01*
X0069586Y0141781D01*
X0069563Y0141735D01*
X0069537Y0141692D01*
X0069508Y0141650D01*
X0069476Y0141611D01*
X0069441Y0141574D01*
X0069403Y0141541D01*
X0069362Y0141510D01*
X0069320Y0141482D01*
X0069275Y0141458D01*
X0069229Y0141437D01*
X0069181Y0141420D01*
X0069132Y0141406D01*
X0069082Y0141397D01*
X0069032Y0141391D01*
X0068981Y0141389D01*
X0065533Y0141389D01*
X0065533Y0141388D02*
X0065482Y0141386D01*
X0065432Y0141380D01*
X0065382Y0141371D01*
X0065333Y0141357D01*
X0065285Y0141340D01*
X0065239Y0141319D01*
X0065194Y0141295D01*
X0065152Y0141267D01*
X0065111Y0141236D01*
X0065073Y0141203D01*
X0065038Y0141166D01*
X0065006Y0141127D01*
X0064977Y0141085D01*
X0064951Y0141042D01*
X0064928Y0140996D01*
X0064909Y0140949D01*
X0064894Y0140901D01*
X0064882Y0140851D01*
X0064874Y0140801D01*
X0064870Y0140750D01*
X0064870Y0140700D01*
X0064874Y0140649D01*
X0064882Y0140599D01*
X0064894Y0140549D01*
X0064909Y0140501D01*
X0064928Y0140454D01*
X0064951Y0140408D01*
X0064977Y0140365D01*
X0065006Y0140323D01*
X0065038Y0140284D01*
X0065073Y0140247D01*
X0065111Y0140214D01*
X0065152Y0140183D01*
X0065194Y0140155D01*
X0065239Y0140131D01*
X0065285Y0140110D01*
X0065333Y0140093D01*
X0065382Y0140079D01*
X0065432Y0140070D01*
X0065482Y0140064D01*
X0065533Y0140062D01*
X0069776Y0140062D01*
X0069777Y0140062D02*
X0069860Y0140060D01*
X0069943Y0140055D01*
X0070026Y0140045D01*
X0070108Y0140032D01*
X0070190Y0140016D01*
X0070271Y0139995D01*
X0070350Y0139971D01*
X0070429Y0139944D01*
X0070506Y0139913D01*
X0070582Y0139878D01*
X0070656Y0139840D01*
X0070729Y0139799D01*
X0070799Y0139755D01*
X0070868Y0139708D01*
X0070934Y0139657D01*
X0070998Y0139604D01*
X0071059Y0139548D01*
X0071118Y0139489D01*
X0071175Y0139427D01*
X0071228Y0139363D01*
X0071278Y0139297D01*
X0071326Y0139229D01*
X0071370Y0139158D01*
X0071411Y0139086D01*
X0071449Y0139011D01*
X0071484Y0138936D01*
X0071515Y0138858D01*
X0071542Y0138780D01*
X0071566Y0138700D01*
X0071586Y0138619D01*
X0071603Y0138538D01*
X0071616Y0138455D01*
X0071626Y0138373D01*
X0071631Y0138289D01*
X0071633Y0138206D01*
X0073825Y0137870D02*
X0073825Y0140528D01*
X0073825Y0137870D02*
X0062545Y0137870D01*
X0062545Y0140528D01*
X0058146Y0143776D02*
X0058149Y0144022D01*
X0058158Y0144269D01*
X0058173Y0144515D01*
X0058194Y0144760D01*
X0058221Y0145005D01*
X0058255Y0145249D01*
X0058294Y0145492D01*
X0058339Y0145735D01*
X0058390Y0145976D01*
X0058447Y0146215D01*
X0058510Y0146454D01*
X0058578Y0146690D01*
X0058653Y0146925D01*
X0058733Y0147158D01*
X0058819Y0147389D01*
X0058910Y0147618D01*
X0059007Y0147844D01*
X0059110Y0148068D01*
X0059218Y0148290D01*
X0059331Y0148508D01*
X0059450Y0148724D01*
X0059574Y0148937D01*
X0059704Y0149147D01*
X0059838Y0149353D01*
X0059977Y0149557D01*
X0060122Y0149756D01*
X0060271Y0149952D01*
X0060425Y0150145D01*
X0060583Y0150333D01*
X0060747Y0150518D01*
X0060914Y0150698D01*
X0061086Y0150875D01*
X0061263Y0151047D01*
X0061443Y0151214D01*
X0061628Y0151378D01*
X0061816Y0151536D01*
X0062009Y0151690D01*
X0062205Y0151839D01*
X0062404Y0151984D01*
X0062608Y0152123D01*
X0062814Y0152257D01*
X0063024Y0152387D01*
X0063237Y0152511D01*
X0063453Y0152630D01*
X0063671Y0152743D01*
X0063893Y0152851D01*
X0064117Y0152954D01*
X0064343Y0153051D01*
X0064572Y0153142D01*
X0064803Y0153228D01*
X0065036Y0153308D01*
X0065271Y0153383D01*
X0065507Y0153451D01*
X0065746Y0153514D01*
X0065985Y0153571D01*
X0066226Y0153622D01*
X0066469Y0153667D01*
X0066712Y0153706D01*
X0066956Y0153740D01*
X0067201Y0153767D01*
X0067446Y0153788D01*
X0067692Y0153803D01*
X0067939Y0153812D01*
X0068185Y0153815D01*
X0068431Y0153812D01*
X0068678Y0153803D01*
X0068924Y0153788D01*
X0069169Y0153767D01*
X0069414Y0153740D01*
X0069658Y0153706D01*
X0069901Y0153667D01*
X0070144Y0153622D01*
X0070385Y0153571D01*
X0070624Y0153514D01*
X0070863Y0153451D01*
X0071099Y0153383D01*
X0071334Y0153308D01*
X0071567Y0153228D01*
X0071798Y0153142D01*
X0072027Y0153051D01*
X0072253Y0152954D01*
X0072477Y0152851D01*
X0072699Y0152743D01*
X0072917Y0152630D01*
X0073133Y0152511D01*
X0073346Y0152387D01*
X0073556Y0152257D01*
X0073762Y0152123D01*
X0073966Y0151984D01*
X0074165Y0151839D01*
X0074361Y0151690D01*
X0074554Y0151536D01*
X0074742Y0151378D01*
X0074927Y0151214D01*
X0075107Y0151047D01*
X0075284Y0150875D01*
X0075456Y0150698D01*
X0075623Y0150518D01*
X0075787Y0150333D01*
X0075945Y0150145D01*
X0076099Y0149952D01*
X0076248Y0149756D01*
X0076393Y0149557D01*
X0076532Y0149353D01*
X0076666Y0149147D01*
X0076796Y0148937D01*
X0076920Y0148724D01*
X0077039Y0148508D01*
X0077152Y0148290D01*
X0077260Y0148068D01*
X0077363Y0147844D01*
X0077460Y0147618D01*
X0077551Y0147389D01*
X0077637Y0147158D01*
X0077717Y0146925D01*
X0077792Y0146690D01*
X0077860Y0146454D01*
X0077923Y0146215D01*
X0077980Y0145976D01*
X0078031Y0145735D01*
X0078076Y0145492D01*
X0078115Y0145249D01*
X0078149Y0145005D01*
X0078176Y0144760D01*
X0078197Y0144515D01*
X0078212Y0144269D01*
X0078221Y0144022D01*
X0078224Y0143776D01*
X0078221Y0143530D01*
X0078212Y0143283D01*
X0078197Y0143037D01*
X0078176Y0142792D01*
X0078149Y0142547D01*
X0078115Y0142303D01*
X0078076Y0142060D01*
X0078031Y0141817D01*
X0077980Y0141576D01*
X0077923Y0141337D01*
X0077860Y0141098D01*
X0077792Y0140862D01*
X0077717Y0140627D01*
X0077637Y0140394D01*
X0077551Y0140163D01*
X0077460Y0139934D01*
X0077363Y0139708D01*
X0077260Y0139484D01*
X0077152Y0139262D01*
X0077039Y0139044D01*
X0076920Y0138828D01*
X0076796Y0138615D01*
X0076666Y0138405D01*
X0076532Y0138199D01*
X0076393Y0137995D01*
X0076248Y0137796D01*
X0076099Y0137600D01*
X0075945Y0137407D01*
X0075787Y0137219D01*
X0075623Y0137034D01*
X0075456Y0136854D01*
X0075284Y0136677D01*
X0075107Y0136505D01*
X0074927Y0136338D01*
X0074742Y0136174D01*
X0074554Y0136016D01*
X0074361Y0135862D01*
X0074165Y0135713D01*
X0073966Y0135568D01*
X0073762Y0135429D01*
X0073556Y0135295D01*
X0073346Y0135165D01*
X0073133Y0135041D01*
X0072917Y0134922D01*
X0072699Y0134809D01*
X0072477Y0134701D01*
X0072253Y0134598D01*
X0072027Y0134501D01*
X0071798Y0134410D01*
X0071567Y0134324D01*
X0071334Y0134244D01*
X0071099Y0134169D01*
X0070863Y0134101D01*
X0070624Y0134038D01*
X0070385Y0133981D01*
X0070144Y0133930D01*
X0069901Y0133885D01*
X0069658Y0133846D01*
X0069414Y0133812D01*
X0069169Y0133785D01*
X0068924Y0133764D01*
X0068678Y0133749D01*
X0068431Y0133740D01*
X0068185Y0133737D01*
X0067939Y0133740D01*
X0067692Y0133749D01*
X0067446Y0133764D01*
X0067201Y0133785D01*
X0066956Y0133812D01*
X0066712Y0133846D01*
X0066469Y0133885D01*
X0066226Y0133930D01*
X0065985Y0133981D01*
X0065746Y0134038D01*
X0065507Y0134101D01*
X0065271Y0134169D01*
X0065036Y0134244D01*
X0064803Y0134324D01*
X0064572Y0134410D01*
X0064343Y0134501D01*
X0064117Y0134598D01*
X0063893Y0134701D01*
X0063671Y0134809D01*
X0063453Y0134922D01*
X0063237Y0135041D01*
X0063024Y0135165D01*
X0062814Y0135295D01*
X0062608Y0135429D01*
X0062404Y0135568D01*
X0062205Y0135713D01*
X0062009Y0135862D01*
X0061816Y0136016D01*
X0061628Y0136174D01*
X0061443Y0136338D01*
X0061263Y0136505D01*
X0061086Y0136677D01*
X0060914Y0136854D01*
X0060747Y0137034D01*
X0060583Y0137219D01*
X0060425Y0137407D01*
X0060271Y0137600D01*
X0060122Y0137796D01*
X0059977Y0137995D01*
X0059838Y0138199D01*
X0059704Y0138405D01*
X0059574Y0138615D01*
X0059450Y0138828D01*
X0059331Y0139044D01*
X0059218Y0139262D01*
X0059110Y0139484D01*
X0059007Y0139708D01*
X0058910Y0139934D01*
X0058819Y0140163D01*
X0058733Y0140394D01*
X0058653Y0140627D01*
X0058578Y0140862D01*
X0058510Y0141098D01*
X0058447Y0141337D01*
X0058390Y0141576D01*
X0058339Y0141817D01*
X0058294Y0142060D01*
X0058255Y0142303D01*
X0058221Y0142547D01*
X0058194Y0142792D01*
X0058173Y0143037D01*
X0058158Y0143283D01*
X0058149Y0143530D01*
X0058146Y0143776D01*
X0064736Y0149346D02*
X0064724Y0149282D01*
X0064716Y0149217D01*
X0064711Y0149153D01*
X0064710Y0149088D01*
X0064713Y0149023D01*
X0064720Y0148958D01*
X0064731Y0148894D01*
X0064746Y0148831D01*
X0064764Y0148768D01*
X0064786Y0148707D01*
X0064812Y0148648D01*
X0064841Y0148590D01*
X0064874Y0148533D01*
X0064909Y0148479D01*
X0064948Y0148427D01*
X0064991Y0148378D01*
X0065036Y0148331D01*
X0065083Y0148287D01*
X0065133Y0148246D01*
X0065186Y0148207D01*
X0065241Y0148172D01*
X0065298Y0148141D01*
X0065356Y0148113D01*
X0065416Y0148088D01*
X0065478Y0148067D01*
X0065541Y0148050D01*
X0065604Y0148036D01*
X0065668Y0148027D01*
X0065733Y0148021D01*
X0065798Y0148019D01*
X0055980Y0143776D02*
X0055984Y0144076D01*
X0055995Y0144375D01*
X0056013Y0144674D01*
X0056039Y0144972D01*
X0056072Y0145270D01*
X0056112Y0145567D01*
X0056160Y0145863D01*
X0056215Y0146157D01*
X0056277Y0146450D01*
X0056346Y0146742D01*
X0056422Y0147031D01*
X0056506Y0147319D01*
X0056596Y0147604D01*
X0056693Y0147888D01*
X0056798Y0148169D01*
X0056909Y0148447D01*
X0057027Y0148722D01*
X0057152Y0148994D01*
X0057283Y0149264D01*
X0057421Y0149529D01*
X0057566Y0149792D01*
X0057716Y0150051D01*
X0057874Y0150306D01*
X0058037Y0150557D01*
X0058206Y0150804D01*
X0058382Y0151047D01*
X0058563Y0151285D01*
X0058750Y0151519D01*
X0058943Y0151748D01*
X0059142Y0151972D01*
X0059346Y0152192D01*
X0059555Y0152406D01*
X0059769Y0152615D01*
X0059989Y0152819D01*
X0060213Y0153018D01*
X0060442Y0153211D01*
X0060676Y0153398D01*
X0060914Y0153579D01*
X0061157Y0153755D01*
X0061404Y0153924D01*
X0061655Y0154087D01*
X0061910Y0154245D01*
X0062169Y0154395D01*
X0062432Y0154540D01*
X0062697Y0154678D01*
X0062967Y0154809D01*
X0063239Y0154934D01*
X0063514Y0155052D01*
X0063792Y0155163D01*
X0064073Y0155268D01*
X0064357Y0155365D01*
X0064642Y0155455D01*
X0064930Y0155539D01*
X0065219Y0155615D01*
X0065511Y0155684D01*
X0065804Y0155746D01*
X0066098Y0155801D01*
X0066394Y0155849D01*
X0066691Y0155889D01*
X0066989Y0155922D01*
X0067287Y0155948D01*
X0067586Y0155966D01*
X0067885Y0155977D01*
X0068185Y0155981D01*
X0068485Y0155977D01*
X0068784Y0155966D01*
X0069083Y0155948D01*
X0069381Y0155922D01*
X0069679Y0155889D01*
X0069976Y0155849D01*
X0070272Y0155801D01*
X0070566Y0155746D01*
X0070859Y0155684D01*
X0071151Y0155615D01*
X0071440Y0155539D01*
X0071728Y0155455D01*
X0072013Y0155365D01*
X0072297Y0155268D01*
X0072578Y0155163D01*
X0072856Y0155052D01*
X0073131Y0154934D01*
X0073403Y0154809D01*
X0073673Y0154678D01*
X0073938Y0154540D01*
X0074201Y0154395D01*
X0074460Y0154245D01*
X0074715Y0154087D01*
X0074966Y0153924D01*
X0075213Y0153755D01*
X0075456Y0153579D01*
X0075694Y0153398D01*
X0075928Y0153211D01*
X0076157Y0153018D01*
X0076381Y0152819D01*
X0076601Y0152615D01*
X0076815Y0152406D01*
X0077024Y0152192D01*
X0077228Y0151972D01*
X0077427Y0151748D01*
X0077620Y0151519D01*
X0077807Y0151285D01*
X0077988Y0151047D01*
X0078164Y0150804D01*
X0078333Y0150557D01*
X0078496Y0150306D01*
X0078654Y0150051D01*
X0078804Y0149792D01*
X0078949Y0149529D01*
X0079087Y0149264D01*
X0079218Y0148994D01*
X0079343Y0148722D01*
X0079461Y0148447D01*
X0079572Y0148169D01*
X0079677Y0147888D01*
X0079774Y0147604D01*
X0079864Y0147319D01*
X0079948Y0147031D01*
X0080024Y0146742D01*
X0080093Y0146450D01*
X0080155Y0146157D01*
X0080210Y0145863D01*
X0080258Y0145567D01*
X0080298Y0145270D01*
X0080331Y0144972D01*
X0080357Y0144674D01*
X0080375Y0144375D01*
X0080386Y0144076D01*
X0080390Y0143776D01*
X0080386Y0143476D01*
X0080375Y0143177D01*
X0080357Y0142878D01*
X0080331Y0142580D01*
X0080298Y0142282D01*
X0080258Y0141985D01*
X0080210Y0141689D01*
X0080155Y0141395D01*
X0080093Y0141102D01*
X0080024Y0140810D01*
X0079948Y0140521D01*
X0079864Y0140233D01*
X0079774Y0139948D01*
X0079677Y0139664D01*
X0079572Y0139383D01*
X0079461Y0139105D01*
X0079343Y0138830D01*
X0079218Y0138558D01*
X0079087Y0138288D01*
X0078949Y0138023D01*
X0078804Y0137760D01*
X0078654Y0137501D01*
X0078496Y0137246D01*
X0078333Y0136995D01*
X0078164Y0136748D01*
X0077988Y0136505D01*
X0077807Y0136267D01*
X0077620Y0136033D01*
X0077427Y0135804D01*
X0077228Y0135580D01*
X0077024Y0135360D01*
X0076815Y0135146D01*
X0076601Y0134937D01*
X0076381Y0134733D01*
X0076157Y0134534D01*
X0075928Y0134341D01*
X0075694Y0134154D01*
X0075456Y0133973D01*
X0075213Y0133797D01*
X0074966Y0133628D01*
X0074715Y0133465D01*
X0074460Y0133307D01*
X0074201Y0133157D01*
X0073938Y0133012D01*
X0073673Y0132874D01*
X0073403Y0132743D01*
X0073131Y0132618D01*
X0072856Y0132500D01*
X0072578Y0132389D01*
X0072297Y0132284D01*
X0072013Y0132187D01*
X0071728Y0132097D01*
X0071440Y0132013D01*
X0071151Y0131937D01*
X0070859Y0131868D01*
X0070566Y0131806D01*
X0070272Y0131751D01*
X0069976Y0131703D01*
X0069679Y0131663D01*
X0069381Y0131630D01*
X0069083Y0131604D01*
X0068784Y0131586D01*
X0068485Y0131575D01*
X0068185Y0131571D01*
X0067885Y0131575D01*
X0067586Y0131586D01*
X0067287Y0131604D01*
X0066989Y0131630D01*
X0066691Y0131663D01*
X0066394Y0131703D01*
X0066098Y0131751D01*
X0065804Y0131806D01*
X0065511Y0131868D01*
X0065219Y0131937D01*
X0064930Y0132013D01*
X0064642Y0132097D01*
X0064357Y0132187D01*
X0064073Y0132284D01*
X0063792Y0132389D01*
X0063514Y0132500D01*
X0063239Y0132618D01*
X0062967Y0132743D01*
X0062697Y0132874D01*
X0062432Y0133012D01*
X0062169Y0133157D01*
X0061910Y0133307D01*
X0061655Y0133465D01*
X0061404Y0133628D01*
X0061157Y0133797D01*
X0060914Y0133973D01*
X0060676Y0134154D01*
X0060442Y0134341D01*
X0060213Y0134534D01*
X0059989Y0134733D01*
X0059769Y0134937D01*
X0059555Y0135146D01*
X0059346Y0135360D01*
X0059142Y0135580D01*
X0058943Y0135804D01*
X0058750Y0136033D01*
X0058563Y0136267D01*
X0058382Y0136505D01*
X0058206Y0136748D01*
X0058037Y0136995D01*
X0057874Y0137246D01*
X0057716Y0137501D01*
X0057566Y0137760D01*
X0057421Y0138023D01*
X0057283Y0138288D01*
X0057152Y0138558D01*
X0057027Y0138830D01*
X0056909Y0139105D01*
X0056798Y0139383D01*
X0056693Y0139664D01*
X0056596Y0139948D01*
X0056506Y0140233D01*
X0056422Y0140521D01*
X0056346Y0140810D01*
X0056277Y0141102D01*
X0056215Y0141395D01*
X0056160Y0141689D01*
X0056112Y0141985D01*
X0056072Y0142282D01*
X0056039Y0142580D01*
X0056013Y0142878D01*
X0055995Y0143177D01*
X0055984Y0143476D01*
X0055980Y0143776D01*
M02*
