G75*
%MOIN*%
%OFA0B0*%
%FSLAX25Y25*%
%IPPOS*%
%LPD*%
%AMOC8*
5,1,8,0,0,1.08239X$1,22.5*
%
%ADD10R,0.03150X0.03150*%
%ADD11R,0.04331X0.03937*%
%ADD12R,0.03937X0.04331*%
%ADD13C,0.06000*%
%ADD14C,0.05512*%
%ADD15C,0.01200*%
%ADD16C,0.01600*%
%ADD17R,0.03562X0.03562*%
D10*
X0058343Y0038461D03*
X0058343Y0044366D03*
X0078028Y0044366D03*
X0078028Y0038461D03*
X0097713Y0038461D03*
X0097713Y0044366D03*
X0117398Y0044366D03*
X0117398Y0038461D03*
X0137083Y0038461D03*
X0137083Y0044366D03*
X0156768Y0044366D03*
X0156768Y0038461D03*
X0176453Y0038461D03*
X0176453Y0044366D03*
X0196138Y0044366D03*
X0196138Y0038461D03*
X0215823Y0038461D03*
X0215823Y0044366D03*
X0235508Y0044366D03*
X0235508Y0038461D03*
X0235508Y0077831D03*
X0235508Y0083736D03*
X0215823Y0083736D03*
X0215823Y0077831D03*
X0196138Y0077831D03*
X0196138Y0083736D03*
X0176453Y0083736D03*
X0176453Y0077831D03*
X0156768Y0077831D03*
X0156768Y0083736D03*
X0137083Y0083736D03*
X0137083Y0077831D03*
X0117398Y0077831D03*
X0117398Y0083736D03*
X0097713Y0083736D03*
X0097713Y0077831D03*
X0078028Y0077831D03*
X0078028Y0083736D03*
X0058343Y0083736D03*
X0058343Y0077831D03*
X0058343Y0117201D03*
X0058343Y0123106D03*
X0078028Y0123106D03*
X0078028Y0117201D03*
X0097713Y0117201D03*
X0097713Y0123106D03*
X0117398Y0123106D03*
X0117398Y0117201D03*
X0137083Y0117201D03*
X0137083Y0123106D03*
X0156768Y0123106D03*
X0156768Y0117201D03*
X0176453Y0117201D03*
X0176453Y0123106D03*
X0196138Y0123106D03*
X0196138Y0117201D03*
X0215823Y0117201D03*
X0215823Y0123106D03*
X0235508Y0123106D03*
X0235508Y0117201D03*
X0235508Y0156571D03*
X0235508Y0162476D03*
X0215823Y0162476D03*
X0215823Y0156571D03*
X0196138Y0156571D03*
X0196138Y0162476D03*
X0176453Y0162476D03*
X0176453Y0156571D03*
X0156768Y0156571D03*
X0156768Y0162476D03*
X0137083Y0162476D03*
X0137083Y0156571D03*
X0117398Y0156571D03*
X0117398Y0162476D03*
X0097713Y0162476D03*
X0097713Y0156571D03*
X0078028Y0156571D03*
X0078028Y0162476D03*
X0058343Y0162476D03*
X0058343Y0156571D03*
X0058343Y0195941D03*
X0058343Y0201846D03*
X0078028Y0201846D03*
X0078028Y0195941D03*
X0097713Y0195941D03*
X0097713Y0201846D03*
X0117398Y0201846D03*
X0117398Y0195941D03*
X0137083Y0195941D03*
X0137083Y0201846D03*
X0156768Y0201846D03*
X0156768Y0195941D03*
X0176453Y0195941D03*
X0176453Y0201846D03*
X0196138Y0201846D03*
X0196138Y0195941D03*
X0215823Y0195941D03*
X0215823Y0201846D03*
X0235508Y0201846D03*
X0235508Y0195941D03*
D11*
X0235508Y0188461D03*
X0235508Y0181768D03*
X0235508Y0174681D03*
X0235508Y0167988D03*
X0215823Y0167988D03*
X0215823Y0174681D03*
X0215823Y0181768D03*
X0215823Y0188461D03*
X0196138Y0188461D03*
X0196138Y0181768D03*
X0196138Y0174681D03*
X0196138Y0167988D03*
X0176453Y0167988D03*
X0176453Y0174681D03*
X0176453Y0181768D03*
X0176453Y0188461D03*
X0156768Y0188461D03*
X0156768Y0181768D03*
X0156768Y0174681D03*
X0156768Y0167988D03*
X0137083Y0167988D03*
X0137083Y0174681D03*
X0137083Y0181768D03*
X0137083Y0188461D03*
X0117398Y0188461D03*
X0117398Y0181768D03*
X0117398Y0174681D03*
X0117398Y0167988D03*
X0097713Y0167988D03*
X0097713Y0174681D03*
X0097713Y0181768D03*
X0097713Y0188461D03*
X0078028Y0188461D03*
X0078028Y0181768D03*
X0078028Y0174681D03*
X0078028Y0167988D03*
X0058343Y0167988D03*
X0058343Y0174681D03*
X0058343Y0181768D03*
X0058343Y0188461D03*
X0058343Y0135311D03*
X0058343Y0128618D03*
X0078028Y0128618D03*
X0078028Y0135311D03*
X0097713Y0135311D03*
X0097713Y0128618D03*
X0117398Y0128618D03*
X0117398Y0135311D03*
X0137083Y0135311D03*
X0137083Y0128618D03*
X0156768Y0128618D03*
X0156768Y0135311D03*
X0176453Y0135311D03*
X0176453Y0128618D03*
X0196138Y0128618D03*
X0196138Y0135311D03*
X0215823Y0135311D03*
X0215823Y0128618D03*
X0235508Y0128618D03*
X0235508Y0135311D03*
X0235508Y0032949D03*
X0235508Y0026256D03*
X0215823Y0026256D03*
X0215823Y0032949D03*
X0196138Y0032949D03*
X0196138Y0026256D03*
X0176453Y0026256D03*
X0176453Y0032949D03*
X0156768Y0032949D03*
X0156768Y0026256D03*
X0137083Y0026256D03*
X0137083Y0032949D03*
X0117398Y0032949D03*
X0117398Y0026256D03*
X0097713Y0026256D03*
X0097713Y0032949D03*
X0078028Y0032949D03*
X0078028Y0026256D03*
X0058343Y0026256D03*
X0058343Y0032949D03*
D12*
X0058933Y0090626D03*
X0065626Y0090626D03*
X0070744Y0090626D03*
X0077437Y0090626D03*
X0098303Y0090626D03*
X0104996Y0090626D03*
X0110114Y0090626D03*
X0116807Y0090626D03*
X0137673Y0090626D03*
X0144366Y0090626D03*
X0149484Y0090626D03*
X0156177Y0090626D03*
X0177043Y0090626D03*
X0183736Y0090626D03*
X0188854Y0090626D03*
X0195547Y0090626D03*
X0216413Y0090626D03*
X0223106Y0090626D03*
X0228224Y0090626D03*
X0234917Y0090626D03*
D13*
X0228665Y0101374D02*
X0222665Y0101374D01*
X0222665Y0111374D02*
X0228665Y0111374D01*
X0189295Y0111374D02*
X0183295Y0111374D01*
X0183295Y0101374D02*
X0189295Y0101374D01*
X0149925Y0101374D02*
X0143925Y0101374D01*
X0143925Y0111374D02*
X0149925Y0111374D01*
X0110555Y0111374D02*
X0104555Y0111374D01*
X0104555Y0101374D02*
X0110555Y0101374D01*
X0071185Y0101374D02*
X0065185Y0101374D01*
X0065185Y0111374D02*
X0071185Y0111374D01*
X0070937Y0071228D02*
X0064937Y0071228D01*
X0064937Y0061228D02*
X0070937Y0061228D01*
X0070937Y0051228D02*
X0064937Y0051228D01*
X0104307Y0051228D02*
X0110307Y0051228D01*
X0110307Y0061228D02*
X0104307Y0061228D01*
X0104307Y0071228D02*
X0110307Y0071228D01*
X0143677Y0071228D02*
X0149677Y0071228D01*
X0149677Y0061228D02*
X0143677Y0061228D01*
X0143677Y0051228D02*
X0149677Y0051228D01*
X0183047Y0051228D02*
X0189047Y0051228D01*
X0189047Y0061228D02*
X0183047Y0061228D01*
X0183047Y0071228D02*
X0189047Y0071228D01*
X0222417Y0071228D02*
X0228417Y0071228D01*
X0228417Y0061228D02*
X0222417Y0061228D01*
X0222417Y0051228D02*
X0228417Y0051228D01*
D14*
X0232358Y0143776D03*
X0218972Y0143776D03*
X0192988Y0143776D03*
X0179602Y0143776D03*
X0153618Y0143776D03*
X0140232Y0143776D03*
X0114248Y0143776D03*
X0100862Y0143776D03*
X0074878Y0143776D03*
X0061492Y0143776D03*
D15*
X0054406Y0104406D02*
X0054406Y0027634D01*
X0055783Y0026256D01*
X0058343Y0026256D01*
X0058343Y0032949D02*
X0058343Y0038461D01*
X0058343Y0044366D02*
X0061075Y0044366D01*
X0067937Y0051228D01*
X0067965Y0051256D01*
X0074091Y0051256D01*
X0078028Y0055193D01*
X0078028Y0077831D01*
X0075075Y0077831D01*
X0073091Y0078815D01*
X0078028Y0083736D02*
X0078028Y0090035D01*
X0077437Y0090626D01*
X0070744Y0090626D02*
X0070744Y0087035D01*
X0068937Y0085228D01*
X0068937Y0072228D01*
X0067937Y0071228D01*
X0060311Y0068854D02*
X0060311Y0074602D01*
X0066217Y0080508D01*
X0066217Y0084720D01*
X0066217Y0090626D01*
X0065626Y0090626D01*
X0065626Y0093185D01*
X0054406Y0104406D01*
X0054406Y0131374D01*
X0058343Y0135311D01*
X0054406Y0139248D01*
X0054406Y0173303D01*
X0055783Y0174681D01*
X0058343Y0174681D01*
X0058343Y0181768D01*
X0058343Y0188461D02*
X0058343Y0195941D01*
X0068185Y0198894D02*
X0068138Y0201846D01*
X0078028Y0195941D02*
X0078028Y0188461D01*
X0078028Y0181768D02*
X0078028Y0174681D01*
X0080587Y0174681D01*
X0081965Y0173303D01*
X0081965Y0139248D01*
X0078028Y0135311D01*
X0081965Y0131374D01*
X0081965Y0104406D01*
X0081965Y0027634D01*
X0080587Y0026256D01*
X0078028Y0026256D01*
X0078028Y0032949D02*
X0078028Y0038461D01*
X0078028Y0044366D02*
X0074799Y0044366D01*
X0067937Y0051228D01*
X0067909Y0051256D02*
X0062280Y0051256D01*
X0056937Y0056598D01*
X0056937Y0075728D01*
X0058343Y0077134D01*
X0058343Y0077831D01*
X0058343Y0083736D02*
X0058343Y0088657D01*
X0058933Y0089248D01*
X0058933Y0090626D01*
X0066217Y0086689D02*
X0066217Y0084720D01*
X0070744Y0090626D02*
X0070744Y0093185D01*
X0081965Y0104406D01*
X0093776Y0104406D02*
X0093776Y0027634D01*
X0095154Y0026256D01*
X0097713Y0026256D01*
X0097713Y0032949D02*
X0097713Y0038461D01*
X0097713Y0044366D02*
X0100445Y0044366D01*
X0107307Y0051228D01*
X0107335Y0051256D01*
X0113461Y0051256D01*
X0117398Y0055193D01*
X0117398Y0077831D01*
X0114445Y0077831D01*
X0112461Y0078815D01*
X0117398Y0083736D02*
X0117398Y0090035D01*
X0116807Y0090626D01*
X0110114Y0090626D02*
X0110114Y0087035D01*
X0108307Y0085228D01*
X0108307Y0072228D01*
X0107307Y0071228D01*
X0099681Y0068854D02*
X0099681Y0074602D01*
X0105587Y0080508D01*
X0105587Y0084720D01*
X0105587Y0090626D01*
X0104996Y0090626D01*
X0104996Y0093185D01*
X0093776Y0104406D01*
X0093776Y0131374D01*
X0097713Y0135311D01*
X0093776Y0139248D01*
X0093776Y0173303D01*
X0095154Y0174681D01*
X0097713Y0174681D01*
X0097713Y0181768D01*
X0097713Y0188461D02*
X0097713Y0195941D01*
X0107555Y0198894D02*
X0107508Y0201846D01*
X0117398Y0195941D02*
X0117398Y0188461D01*
X0117398Y0181768D02*
X0117398Y0174681D01*
X0119957Y0174681D01*
X0121335Y0173303D01*
X0121335Y0139248D01*
X0117398Y0135311D01*
X0121335Y0131374D01*
X0121335Y0104406D01*
X0121335Y0027634D01*
X0119957Y0026256D01*
X0117398Y0026256D01*
X0117398Y0032949D02*
X0117398Y0038461D01*
X0117398Y0044366D02*
X0114169Y0044366D01*
X0107307Y0051228D01*
X0107280Y0051256D02*
X0101650Y0051256D01*
X0096307Y0056598D01*
X0096307Y0075728D01*
X0097713Y0077134D01*
X0097713Y0077831D01*
X0097713Y0083736D02*
X0097713Y0088657D01*
X0098303Y0089248D01*
X0098303Y0090626D01*
X0105587Y0086689D02*
X0105587Y0084720D01*
X0110114Y0090626D02*
X0110114Y0093185D01*
X0121335Y0104406D01*
X0111571Y0111374D02*
X0107555Y0111374D01*
X0103539Y0111374D01*
X0097713Y0117201D01*
X0103618Y0122122D02*
X0103618Y0133933D01*
X0113461Y0143776D01*
X0114248Y0143776D01*
X0100862Y0143776D02*
X0097713Y0146925D01*
X0097713Y0156571D01*
X0117398Y0156571D01*
X0117398Y0162476D02*
X0117398Y0167988D01*
X0133146Y0173303D02*
X0133146Y0139248D01*
X0137083Y0135311D01*
X0133146Y0131374D01*
X0133146Y0104406D01*
X0133146Y0027634D01*
X0134524Y0026256D01*
X0137083Y0026256D01*
X0137083Y0032949D02*
X0137083Y0038461D01*
X0137083Y0044366D02*
X0139815Y0044366D01*
X0146677Y0051228D01*
X0146705Y0051256D01*
X0152831Y0051256D01*
X0156768Y0055193D01*
X0156768Y0077831D01*
X0153815Y0077831D01*
X0151831Y0078815D01*
X0156768Y0083736D02*
X0156768Y0090035D01*
X0156177Y0090626D01*
X0149484Y0090626D02*
X0149484Y0087035D01*
X0147677Y0085228D01*
X0147677Y0072228D01*
X0146677Y0071228D01*
X0139051Y0068854D02*
X0139051Y0074602D01*
X0144957Y0080508D01*
X0144957Y0084720D01*
X0144957Y0090626D01*
X0144366Y0090626D01*
X0144366Y0093185D01*
X0133146Y0104406D01*
X0137083Y0106374D02*
X0137083Y0108343D01*
X0137083Y0106374D02*
X0142083Y0101374D01*
X0146020Y0101374D01*
X0146925Y0101374D01*
X0149484Y0093185D02*
X0149484Y0090626D01*
X0149484Y0093185D02*
X0160705Y0104406D01*
X0160705Y0027634D01*
X0159327Y0026256D01*
X0156768Y0026256D01*
X0156768Y0032949D02*
X0156768Y0038461D01*
X0156768Y0044366D02*
X0153539Y0044366D01*
X0146677Y0051228D01*
X0146650Y0051256D02*
X0141020Y0051256D01*
X0135677Y0056598D01*
X0135677Y0075728D01*
X0137083Y0077134D01*
X0137083Y0077831D01*
X0137083Y0083736D02*
X0137083Y0088657D01*
X0137673Y0089248D01*
X0137673Y0090626D01*
X0144957Y0086689D02*
X0144957Y0084720D01*
X0139051Y0068854D02*
X0146677Y0061228D01*
X0175047Y0056598D02*
X0175047Y0075728D01*
X0176453Y0077134D01*
X0176453Y0077831D01*
X0178421Y0074602D02*
X0184327Y0080508D01*
X0184327Y0084720D01*
X0184327Y0090626D01*
X0183736Y0090626D01*
X0183736Y0093185D01*
X0172516Y0104406D01*
X0172516Y0027634D01*
X0173894Y0026256D01*
X0176453Y0026256D01*
X0176453Y0032949D02*
X0176453Y0038461D01*
X0176453Y0044366D02*
X0179185Y0044366D01*
X0186047Y0051228D01*
X0186075Y0051256D01*
X0192201Y0051256D01*
X0196138Y0055193D01*
X0196138Y0077831D01*
X0193185Y0077831D01*
X0191201Y0078815D01*
X0196138Y0083736D02*
X0196138Y0090035D01*
X0195547Y0090626D01*
X0188854Y0090626D02*
X0188854Y0087035D01*
X0187047Y0085228D01*
X0187047Y0072228D01*
X0186047Y0071228D01*
X0178421Y0068854D02*
X0178421Y0074602D01*
X0178421Y0068854D02*
X0186047Y0061228D01*
X0180390Y0051256D02*
X0175047Y0056598D01*
X0180390Y0051256D02*
X0186020Y0051256D01*
X0186047Y0051228D02*
X0192909Y0044366D01*
X0196138Y0044366D01*
X0196138Y0038461D02*
X0196138Y0032949D01*
X0200075Y0027634D02*
X0200075Y0104406D01*
X0188854Y0093185D01*
X0188854Y0090626D01*
X0184327Y0086689D02*
X0184327Y0084720D01*
X0176453Y0083736D02*
X0176453Y0088657D01*
X0177043Y0089248D01*
X0177043Y0090626D01*
X0181453Y0101374D02*
X0176453Y0106374D01*
X0176453Y0108343D01*
X0172516Y0104406D02*
X0172516Y0131374D01*
X0176453Y0135311D01*
X0172516Y0139248D01*
X0172516Y0173303D01*
X0173894Y0174681D01*
X0176453Y0174681D01*
X0176453Y0181768D01*
X0176453Y0188461D02*
X0176453Y0195941D01*
X0186295Y0198894D02*
X0186248Y0201846D01*
X0196138Y0195941D02*
X0196138Y0188461D01*
X0196138Y0181768D02*
X0196138Y0174681D01*
X0198697Y0174681D01*
X0200075Y0173303D01*
X0200075Y0139248D01*
X0196138Y0135311D01*
X0200075Y0131374D01*
X0200075Y0104406D01*
X0190311Y0111374D02*
X0186295Y0111374D01*
X0182280Y0111374D01*
X0176453Y0117201D01*
X0182358Y0122122D02*
X0182358Y0133933D01*
X0192201Y0143776D01*
X0192988Y0143776D01*
X0179602Y0143776D02*
X0176453Y0146925D01*
X0176453Y0156571D01*
X0196138Y0156571D01*
X0196138Y0162476D02*
X0196138Y0167988D01*
X0211886Y0173303D02*
X0211886Y0139248D01*
X0215823Y0135311D01*
X0211886Y0131374D01*
X0211886Y0104406D01*
X0211886Y0027634D01*
X0213264Y0026256D01*
X0215823Y0026256D01*
X0215823Y0032949D02*
X0215823Y0038461D01*
X0215823Y0044366D02*
X0218555Y0044366D01*
X0225417Y0051228D01*
X0225445Y0051256D01*
X0231571Y0051256D01*
X0235508Y0055193D01*
X0235508Y0077831D01*
X0232555Y0077831D01*
X0230571Y0078815D01*
X0235508Y0083736D02*
X0235508Y0090035D01*
X0234917Y0090626D01*
X0228224Y0090626D02*
X0228224Y0087035D01*
X0226417Y0085228D01*
X0226417Y0072228D01*
X0225417Y0071228D01*
X0217791Y0068854D02*
X0217791Y0074602D01*
X0223697Y0080508D01*
X0223697Y0084720D01*
X0223697Y0090626D01*
X0223106Y0090626D01*
X0223106Y0093185D01*
X0211886Y0104406D01*
X0215823Y0106374D02*
X0215823Y0108343D01*
X0215823Y0106374D02*
X0220823Y0101374D01*
X0224760Y0101374D01*
X0225665Y0101374D01*
X0228224Y0093185D02*
X0228224Y0090626D01*
X0228224Y0093185D02*
X0239445Y0104406D01*
X0239445Y0027634D01*
X0238067Y0026256D01*
X0235508Y0026256D01*
X0235508Y0032949D02*
X0235508Y0038461D01*
X0235508Y0044366D02*
X0232280Y0044366D01*
X0225417Y0051228D01*
X0225390Y0051256D02*
X0219760Y0051256D01*
X0214417Y0056598D01*
X0214417Y0075728D01*
X0215823Y0077134D01*
X0215823Y0077831D01*
X0215823Y0083736D02*
X0215823Y0088657D01*
X0216413Y0089248D01*
X0216413Y0090626D01*
X0223697Y0086689D02*
X0223697Y0084720D01*
X0217791Y0068854D02*
X0225417Y0061228D01*
X0200075Y0027634D02*
X0198697Y0026256D01*
X0196138Y0026256D01*
X0107307Y0061228D02*
X0099681Y0068854D01*
X0067937Y0061228D02*
X0060311Y0068854D01*
X0063343Y0101374D02*
X0058343Y0106374D01*
X0058343Y0108343D01*
X0064169Y0111374D02*
X0068185Y0111374D01*
X0072201Y0111374D01*
X0078028Y0117201D01*
X0078028Y0123106D02*
X0078028Y0128618D01*
X0064248Y0133933D02*
X0064248Y0122122D01*
X0058343Y0123106D02*
X0058343Y0128618D01*
X0064248Y0133933D02*
X0074091Y0143776D01*
X0074878Y0143776D01*
X0061492Y0143776D02*
X0058343Y0146925D01*
X0058343Y0156571D01*
X0078028Y0156571D01*
X0078028Y0162476D02*
X0078028Y0167988D01*
X0058343Y0167988D02*
X0058343Y0162476D01*
X0097713Y0162476D02*
X0097713Y0167988D01*
X0133146Y0173303D02*
X0134524Y0174681D01*
X0137083Y0174681D01*
X0137083Y0181768D01*
X0137083Y0188461D02*
X0137083Y0195941D01*
X0146925Y0198894D02*
X0146878Y0201846D01*
X0156768Y0195941D02*
X0156768Y0188461D01*
X0156768Y0181768D02*
X0156768Y0174681D01*
X0159327Y0174681D01*
X0160705Y0173303D01*
X0160705Y0139248D01*
X0156768Y0135311D01*
X0160705Y0131374D01*
X0160705Y0104406D01*
X0150941Y0111374D02*
X0146925Y0111374D01*
X0142909Y0111374D01*
X0137083Y0117201D01*
X0137083Y0123106D02*
X0137083Y0128618D01*
X0142988Y0133933D02*
X0142988Y0122122D01*
X0150941Y0111374D02*
X0156768Y0117201D01*
X0156768Y0123106D02*
X0156768Y0128618D01*
X0142988Y0133933D02*
X0152831Y0143776D01*
X0153618Y0143776D01*
X0140232Y0143776D02*
X0137083Y0146925D01*
X0137083Y0156571D01*
X0156768Y0156571D01*
X0156768Y0162476D02*
X0156768Y0167988D01*
X0176453Y0167988D02*
X0176453Y0162476D01*
X0211886Y0173303D02*
X0213264Y0174681D01*
X0215823Y0174681D01*
X0215823Y0181768D01*
X0215823Y0188461D02*
X0215823Y0195941D01*
X0225665Y0198894D02*
X0225618Y0201846D01*
X0235508Y0195941D02*
X0235508Y0188461D01*
X0235508Y0181768D02*
X0235508Y0174681D01*
X0238067Y0174681D01*
X0239445Y0173303D01*
X0239445Y0139248D01*
X0235508Y0135311D01*
X0239445Y0131374D01*
X0239445Y0104406D01*
X0229681Y0111374D02*
X0225665Y0111374D01*
X0221650Y0111374D01*
X0215823Y0117201D01*
X0215823Y0123106D02*
X0215823Y0128618D01*
X0221728Y0133933D02*
X0221728Y0122122D01*
X0229681Y0111374D02*
X0235508Y0117201D01*
X0235508Y0123106D02*
X0235508Y0128618D01*
X0221728Y0133933D02*
X0231571Y0143776D01*
X0232358Y0143776D01*
X0218972Y0143776D02*
X0215823Y0146925D01*
X0215823Y0156571D01*
X0235508Y0156571D01*
X0235508Y0162476D02*
X0235508Y0167988D01*
X0215823Y0167988D02*
X0215823Y0162476D01*
X0196138Y0128618D02*
X0196138Y0123106D01*
X0196138Y0117201D02*
X0190311Y0111374D01*
X0186295Y0101374D02*
X0185390Y0101374D01*
X0181453Y0101374D01*
X0176453Y0123106D02*
X0176453Y0128618D01*
X0137083Y0162476D02*
X0137083Y0167988D01*
X0117398Y0128618D02*
X0117398Y0123106D01*
X0117398Y0117201D02*
X0111571Y0111374D01*
X0107555Y0101374D02*
X0106650Y0101374D01*
X0102713Y0101374D01*
X0097713Y0106374D01*
X0097713Y0108343D01*
X0097713Y0123106D02*
X0097713Y0128618D01*
X0064169Y0111374D02*
X0058343Y0117201D01*
X0063343Y0101374D02*
X0067280Y0101374D01*
X0068185Y0101374D01*
D16*
X0067909Y0051256D02*
X0067937Y0051228D01*
X0107280Y0051256D02*
X0107307Y0051228D01*
X0146650Y0051256D02*
X0146677Y0051228D01*
X0186020Y0051256D02*
X0186047Y0051228D01*
X0225390Y0051256D02*
X0225417Y0051228D01*
X0225618Y0201846D02*
X0215823Y0201846D01*
X0225618Y0201846D02*
X0235508Y0201846D01*
X0196138Y0201846D02*
X0186248Y0201846D01*
X0176453Y0201846D01*
X0156768Y0201846D02*
X0146878Y0201846D01*
X0137083Y0201846D01*
X0117398Y0201846D02*
X0107508Y0201846D01*
X0097713Y0201846D01*
X0078028Y0201846D02*
X0068138Y0201846D01*
X0058343Y0201846D01*
D17*
X0068185Y0198894D03*
X0107555Y0198894D03*
X0146925Y0198894D03*
X0186295Y0198894D03*
X0225665Y0198894D03*
X0221728Y0122122D03*
X0215823Y0108343D03*
X0182358Y0122122D03*
X0176453Y0108343D03*
X0142988Y0122122D03*
X0137083Y0108343D03*
X0103618Y0122122D03*
X0097713Y0108343D03*
X0064248Y0122122D03*
X0058343Y0108343D03*
X0073091Y0078815D03*
X0112461Y0078815D03*
X0151831Y0078815D03*
X0191201Y0078815D03*
X0230571Y0078815D03*
M02*
