G75*
G70*
%OFA0B0*%
%FSLAX24Y24*%
%IPPOS*%
%LPD*%
%AMOC8*
5,1,8,0,0,1.08239X$1,22.5*
%
%ADD10C,0.0051*%
%ADD11C,0.0110*%
%ADD12R,0.0315X0.0315*%
%ADD13R,0.0433X0.0394*%
%ADD14R,0.0394X0.0433*%
%ADD15C,0.0600*%
%ADD16C,0.0551*%
%ADD17C,0.0120*%
%ADD18C,0.0160*%
%ADD19R,0.0396X0.0396*%
D10*
X001544Y002173D02*
X009811Y002173D01*
X002457Y003196D02*
X002331Y002173D01*
X002433Y003196D01*
X002457Y003196D02*
X002205Y003196D01*
X002331Y002173D01*
X002229Y003196D01*
X002280Y003196D02*
X002331Y002173D01*
X002382Y003196D01*
X002331Y002173D02*
X002331Y021858D01*
X002433Y020834D01*
X002457Y020834D02*
X002331Y021858D01*
X002229Y020834D01*
X002205Y020834D02*
X002457Y020834D01*
X002382Y020834D02*
X002331Y021858D01*
X002280Y020834D01*
X002205Y020834D02*
X002331Y021858D01*
X001544Y021858D02*
X007843Y021858D01*
X008788Y023547D02*
X009811Y023673D01*
X008788Y023570D01*
X008788Y023547D02*
X008788Y023799D01*
X009811Y023673D01*
X008788Y023775D01*
X008788Y023724D02*
X009811Y023673D01*
X008788Y023622D01*
X009811Y023673D02*
X007764Y023673D01*
X009811Y024460D02*
X009811Y021669D01*
X012931Y021669D02*
X012931Y024460D01*
X012931Y023673D02*
X013955Y023570D01*
X013955Y023547D02*
X012931Y023673D01*
X013955Y023775D01*
X013955Y023799D02*
X013955Y023547D01*
X013955Y023622D02*
X012931Y023673D01*
X013955Y023724D01*
X013955Y023799D02*
X012931Y023673D01*
X017792Y023673D01*
D11*
X017817Y024122D02*
X017393Y024122D01*
X017182Y024333D01*
X016759Y024333D02*
X016548Y024122D01*
X016125Y024122D01*
X015913Y024333D01*
X015490Y024333D02*
X015490Y024122D01*
X015279Y024122D01*
X015279Y024333D01*
X015490Y024333D01*
X015913Y024968D02*
X016125Y024756D01*
X016759Y024756D01*
X016759Y024333D02*
X016759Y025179D01*
X016548Y025391D01*
X016125Y025391D01*
X015913Y025179D01*
X015913Y024968D01*
X014856Y025179D02*
X014010Y024333D01*
X014010Y024122D01*
X014856Y025179D02*
X014856Y025391D01*
X014010Y025391D01*
X017182Y025179D02*
X017393Y025391D01*
X017817Y025391D01*
X018028Y025179D01*
X018028Y024968D01*
X017817Y024756D01*
X018028Y024545D01*
X018028Y024333D01*
X017817Y024122D01*
X017817Y024756D02*
X017605Y024756D01*
X001882Y012877D02*
X001882Y012454D01*
X001671Y012243D01*
X000825Y013089D01*
X001671Y013089D01*
X001882Y012877D01*
X001671Y012243D02*
X000825Y012243D01*
X000613Y012454D01*
X000613Y012877D01*
X000825Y013089D01*
X000613Y011820D02*
X000613Y010974D01*
X001248Y010974D01*
X001036Y011397D01*
X001036Y011608D01*
X001248Y011820D01*
X001671Y011820D01*
X001882Y011608D01*
X001882Y011185D01*
X001671Y010974D01*
D12*
X010402Y011720D03*
X010402Y012311D03*
X012370Y012311D03*
X012370Y011720D03*
X012370Y008374D03*
X012370Y007783D03*
X010402Y007783D03*
X010402Y008374D03*
X010402Y004437D03*
X010402Y003846D03*
X012370Y003846D03*
X012370Y004437D03*
X012370Y015657D03*
X012370Y016248D03*
X010402Y016248D03*
X010402Y015657D03*
X010402Y019594D03*
X010402Y020185D03*
X012370Y020185D03*
X012370Y019594D03*
D13*
X012370Y018846D03*
X012370Y018177D03*
X012370Y017468D03*
X012370Y016799D03*
X010402Y016799D03*
X010402Y017468D03*
X010402Y018177D03*
X010402Y018846D03*
X010402Y013531D03*
X010402Y012862D03*
X012370Y012862D03*
X012370Y013531D03*
X012370Y003295D03*
X012370Y002626D03*
X010402Y002626D03*
X010402Y003295D03*
D14*
X010461Y009063D03*
X011130Y009063D03*
X011642Y009063D03*
X012311Y009063D03*
D15*
X011686Y010137D02*
X011086Y010137D01*
X011086Y011137D02*
X011686Y011137D01*
X011661Y007123D02*
X011061Y007123D01*
X011061Y006123D02*
X011661Y006123D01*
X011661Y005123D02*
X011061Y005123D01*
D16*
X010717Y014378D03*
X012055Y014378D03*
D17*
X011977Y014378D01*
X010992Y013393D01*
X010992Y012212D01*
X010402Y012311D02*
X010402Y012862D01*
X010008Y013137D02*
X010008Y010441D01*
X010008Y002763D01*
X010146Y002626D01*
X010402Y002626D01*
X010402Y003295D02*
X010402Y003846D01*
X010402Y004437D02*
X010675Y004437D01*
X011361Y005123D01*
X011364Y005126D01*
X011977Y005126D01*
X012370Y005519D01*
X012370Y007783D01*
X012075Y007783D01*
X011877Y007881D01*
X012370Y008374D02*
X012370Y009004D01*
X012311Y009063D01*
X011642Y009063D02*
X011642Y008704D01*
X011461Y008523D01*
X011461Y007223D01*
X011361Y007123D01*
X010599Y006885D02*
X010599Y007460D01*
X011130Y007992D01*
X011130Y009063D01*
X011130Y009319D01*
X010008Y010441D01*
X010402Y010637D02*
X010402Y010834D01*
X010402Y010637D02*
X010902Y010137D01*
X011296Y010137D01*
X011642Y009319D02*
X011642Y009063D01*
X011642Y009319D02*
X012764Y010441D01*
X012764Y002763D01*
X012626Y002626D01*
X012370Y002626D01*
X012370Y003295D02*
X012370Y003846D01*
X012370Y004437D02*
X012048Y004437D01*
X011361Y005123D01*
X011359Y005126D02*
X010796Y005126D01*
X010261Y005660D01*
X010261Y007573D01*
X010402Y007713D01*
X010402Y007783D01*
X010402Y008374D02*
X010402Y008866D01*
X010461Y008925D01*
X010461Y009063D01*
X012764Y010441D02*
X012764Y013137D01*
X012370Y013531D01*
X012764Y013925D01*
X012764Y017330D01*
X012626Y017468D01*
X012370Y017468D01*
X012370Y018177D01*
X012370Y018846D02*
X012370Y019594D01*
X011386Y019889D02*
X011381Y020185D01*
X010402Y019594D02*
X010402Y018846D01*
X010402Y018177D02*
X010402Y017468D01*
X010146Y017468D01*
X010008Y017330D01*
X010008Y013925D01*
X010402Y013531D01*
X010008Y013137D01*
X010717Y014378D02*
X010402Y014693D01*
X010402Y015657D01*
X012370Y015657D01*
X012370Y016248D02*
X012370Y016799D01*
X010402Y016799D02*
X010402Y016248D01*
X012370Y012862D02*
X012370Y012311D01*
X012370Y011720D02*
X011788Y011137D01*
X011386Y011137D01*
X010985Y011137D01*
X010402Y011720D01*
X010599Y006885D02*
X011361Y006123D01*
D18*
X011359Y005126D02*
X011361Y005123D01*
X011381Y020185D02*
X010402Y020185D01*
X011381Y020185D02*
X012370Y020185D01*
D19*
X011386Y019889D03*
X010992Y012212D03*
X010402Y010834D03*
X011877Y007881D03*
M02*
