G75*
G70*
%OFA0B0*%
%FSLAX24Y24*%
%IPPOS*%
%LPD*%
%AMOC8*
5,1,8,0,0,1.08239X$1,22.5*
%
%ADD10C,0.0000*%
%ADD11C,0.0100*%
%ADD12C,0.0040*%
%ADD13R,0.0089X0.0098*%
%ADD14C,0.0060*%
%ADD15C,0.0050*%
%ADD16C,0.0080*%
D10*
X009811Y002173D02*
X012961Y002173D01*
X012961Y021858D01*
X009811Y021858D02*
X009811Y002173D01*
D11*
X009811Y021858D02*
X012961Y021858D01*
D12*
X009671Y002960D02*
X009671Y002730D01*
X010132Y002730D01*
X009978Y002730D02*
X009978Y002960D01*
X009902Y003037D01*
X009748Y003037D01*
X009671Y002960D01*
X009825Y003191D02*
X009671Y003344D01*
X010132Y003344D01*
X010132Y003191D02*
X010132Y003498D01*
X010055Y003651D02*
X010132Y003728D01*
X010132Y003881D01*
X010055Y003958D01*
X009978Y003958D01*
X009902Y003881D01*
X009902Y003804D01*
X009902Y003881D02*
X009825Y003958D01*
X009748Y003958D01*
X009671Y003881D01*
X009671Y003728D01*
X009748Y003651D01*
X010264Y004063D02*
X010264Y004220D01*
X010540Y004220D02*
X010540Y004063D01*
X010815Y004095D02*
X010815Y004402D01*
X010969Y004325D02*
X011045Y004402D01*
X011199Y004402D01*
X011276Y004325D01*
X011276Y004171D01*
X011199Y004095D01*
X011045Y004095D02*
X010969Y004248D01*
X010969Y004325D01*
X011045Y004095D02*
X010815Y004095D01*
X011352Y003941D02*
X011352Y003634D01*
X011276Y003481D02*
X010815Y003481D01*
X010815Y003174D02*
X011276Y003174D01*
X011122Y003327D01*
X011276Y003481D01*
X011640Y003498D02*
X011640Y003191D01*
X011870Y003191D01*
X011793Y003344D01*
X011793Y003421D01*
X011870Y003498D01*
X012024Y003498D01*
X012100Y003421D01*
X012100Y003267D01*
X012024Y003191D01*
X012100Y003037D02*
X011947Y002884D01*
X011947Y002960D02*
X011947Y002730D01*
X012100Y002730D02*
X011640Y002730D01*
X011640Y002960D01*
X011717Y003037D01*
X011870Y003037D01*
X011947Y002960D01*
X011352Y003020D02*
X011352Y002713D01*
X011199Y002560D02*
X010892Y002560D01*
X010815Y002483D01*
X010815Y002253D01*
X011276Y002253D01*
X011276Y002483D01*
X011199Y002560D01*
X011276Y002100D02*
X011276Y001793D01*
X010815Y001793D01*
X010815Y002100D01*
X011045Y001946D02*
X011045Y001793D01*
X011276Y001639D02*
X011276Y001332D01*
X010815Y001332D01*
X012784Y001332D02*
X013244Y001332D01*
X013244Y001639D01*
X013244Y001793D02*
X013244Y002100D01*
X013244Y002253D02*
X013244Y002483D01*
X013167Y002560D01*
X012860Y002560D01*
X012784Y002483D01*
X012784Y002253D01*
X013244Y002253D01*
X013014Y001946D02*
X013014Y001793D01*
X012784Y001793D02*
X013244Y001793D01*
X012784Y001793D02*
X012784Y002100D01*
X013321Y002713D02*
X013321Y003020D01*
X013167Y003174D02*
X012860Y003174D01*
X012784Y003251D01*
X012784Y003404D01*
X012860Y003481D01*
X013014Y003481D02*
X013014Y003327D01*
X013014Y003481D02*
X013167Y003481D01*
X013244Y003404D01*
X013244Y003251D01*
X013167Y003174D01*
X013321Y003634D02*
X013321Y003941D01*
X013167Y004095D02*
X013244Y004171D01*
X013244Y004325D01*
X013167Y004402D01*
X013014Y004402D01*
X012937Y004325D01*
X012937Y004248D01*
X013014Y004095D01*
X012784Y004095D01*
X012784Y004402D01*
X012508Y004220D02*
X012508Y004063D01*
X012233Y004063D02*
X012233Y004220D01*
X010132Y003037D02*
X009978Y002884D01*
X009988Y007705D02*
X009528Y007705D01*
X009988Y007705D02*
X009988Y008012D01*
X009988Y008165D02*
X009528Y008165D01*
X009528Y008472D01*
X009528Y008625D02*
X009528Y008856D01*
X009604Y008932D01*
X009911Y008932D01*
X009988Y008856D01*
X009988Y008625D01*
X009528Y008625D01*
X009684Y008486D02*
X009915Y008486D01*
X009991Y008563D01*
X009991Y008716D01*
X009915Y008793D01*
X009684Y008793D01*
X009684Y008333D01*
X009758Y008319D02*
X009758Y008165D01*
X009988Y008165D02*
X009988Y008472D01*
X009991Y008333D02*
X009838Y008486D01*
X010145Y008333D02*
X010452Y008333D01*
X010605Y008333D02*
X010912Y008640D01*
X010912Y008716D01*
X010835Y008793D01*
X010682Y008793D01*
X010605Y008716D01*
X010298Y008793D02*
X010298Y008333D01*
X010264Y008157D02*
X010264Y008000D01*
X010540Y008000D02*
X010540Y008157D01*
X010605Y008333D02*
X010912Y008333D01*
X011496Y008472D02*
X011496Y008165D01*
X011957Y008165D01*
X011957Y008472D01*
X011957Y008625D02*
X011496Y008625D01*
X011496Y008856D01*
X011573Y008932D01*
X011880Y008932D01*
X011957Y008856D01*
X011957Y008625D01*
X012033Y009086D02*
X012033Y009393D01*
X012054Y009333D02*
X011900Y009486D01*
X011880Y009546D02*
X011957Y009623D01*
X011957Y009776D01*
X011880Y009853D01*
X011726Y009853D01*
X011726Y009700D01*
X011747Y009793D02*
X011977Y009793D01*
X012054Y009716D01*
X012054Y009563D01*
X011977Y009486D01*
X011747Y009486D01*
X011880Y009546D02*
X011573Y009546D01*
X011496Y009623D01*
X011496Y009776D01*
X011573Y009853D01*
X011747Y009793D02*
X011747Y009333D01*
X012207Y009563D02*
X012437Y009793D01*
X012437Y009333D01*
X012514Y009563D02*
X012207Y009563D01*
X012033Y010007D02*
X012033Y010314D01*
X011726Y010467D02*
X011726Y010774D01*
X011496Y010697D02*
X011726Y010467D01*
X011957Y010697D02*
X011496Y010697D01*
X011496Y011642D02*
X011957Y011642D01*
X011957Y011949D01*
X011957Y012102D02*
X011496Y012102D01*
X011496Y012409D01*
X011496Y012562D02*
X011496Y012793D01*
X011573Y012869D01*
X011880Y012869D01*
X011957Y012793D01*
X011957Y012562D01*
X011496Y012562D01*
X011726Y012256D02*
X011726Y012102D01*
X011957Y012102D02*
X011957Y012409D01*
X012233Y012094D02*
X012233Y011937D01*
X012508Y011937D02*
X012508Y012094D01*
X012640Y012546D02*
X012640Y012776D01*
X012717Y012853D01*
X012870Y012853D01*
X012947Y012776D01*
X012947Y012546D01*
X012947Y012699D02*
X013100Y012853D01*
X013024Y013006D02*
X013100Y013083D01*
X013100Y013236D01*
X013024Y013313D01*
X012947Y013313D01*
X012870Y013236D01*
X012870Y013160D01*
X012870Y013236D02*
X012793Y013313D01*
X012717Y013313D01*
X012640Y013236D01*
X012640Y013083D01*
X012717Y013006D01*
X012640Y012546D02*
X013100Y012546D01*
X012033Y013023D02*
X012033Y013330D01*
X011880Y013483D02*
X011957Y013560D01*
X011957Y013713D01*
X011880Y013790D01*
X011726Y013790D01*
X011726Y013637D01*
X011573Y013790D02*
X011496Y013713D01*
X011496Y013560D01*
X011573Y013483D01*
X011880Y013483D01*
X012033Y013944D02*
X012033Y014251D01*
X011880Y014404D02*
X011957Y014481D01*
X011957Y014634D01*
X011880Y014711D01*
X011803Y014711D01*
X011726Y014634D01*
X011726Y014557D01*
X011726Y014634D02*
X011650Y014711D01*
X011573Y014711D01*
X011496Y014634D01*
X011496Y014481D01*
X011573Y014404D01*
X011132Y013313D02*
X011132Y013006D01*
X011132Y012853D02*
X011132Y012546D01*
X011132Y012699D02*
X010671Y012699D01*
X010825Y012546D01*
X010748Y012392D02*
X010902Y012392D01*
X010978Y012315D01*
X010978Y012085D01*
X010978Y012239D02*
X011132Y012392D01*
X011132Y012085D02*
X010671Y012085D01*
X010671Y012315D01*
X010748Y012392D01*
X010540Y012094D02*
X010540Y011937D01*
X010264Y011937D02*
X010264Y012094D01*
X009988Y012102D02*
X009988Y012409D01*
X009988Y012562D02*
X009528Y012562D01*
X009528Y012793D01*
X009604Y012869D01*
X009911Y012869D01*
X009988Y012793D01*
X009988Y012562D01*
X009758Y012256D02*
X009758Y012102D01*
X009528Y012102D02*
X009988Y012102D01*
X009988Y011949D02*
X009988Y011642D01*
X009528Y011642D01*
X009528Y012102D02*
X009528Y012409D01*
X010065Y013023D02*
X010065Y013330D01*
X009988Y013483D02*
X009835Y013637D01*
X009988Y013790D01*
X009528Y013790D01*
X010065Y013944D02*
X010065Y014251D01*
X009911Y014404D02*
X009988Y014481D01*
X009988Y014634D01*
X009911Y014711D01*
X009835Y014711D01*
X009758Y014634D01*
X009758Y014557D01*
X009758Y014634D02*
X009681Y014711D01*
X009604Y014711D01*
X009528Y014634D01*
X009528Y014481D01*
X009604Y014404D01*
X009528Y013483D02*
X009988Y013483D01*
X010671Y013160D02*
X011132Y013160D01*
X010825Y013006D02*
X010671Y013160D01*
X009988Y015579D02*
X009528Y015579D01*
X009988Y015579D02*
X009988Y015886D01*
X009988Y016039D02*
X009988Y016346D01*
X009988Y016499D02*
X009528Y016499D01*
X009528Y016730D01*
X009604Y016806D01*
X009911Y016806D01*
X009988Y016730D01*
X009988Y016499D01*
X009758Y016193D02*
X009758Y016039D01*
X009528Y016039D02*
X009988Y016039D01*
X010264Y016031D02*
X010264Y015874D01*
X010540Y015874D02*
X010540Y016031D01*
X010671Y016022D02*
X010671Y016252D01*
X010748Y016329D01*
X010902Y016329D01*
X010978Y016252D01*
X010978Y016022D01*
X011005Y016051D02*
X010775Y016051D01*
X010671Y016022D02*
X011132Y016022D01*
X011082Y016128D02*
X011005Y016051D01*
X011082Y016128D02*
X011082Y016281D01*
X011005Y016358D01*
X010775Y016358D01*
X010775Y015898D01*
X010978Y016176D02*
X011132Y016329D01*
X011235Y016358D02*
X011235Y015898D01*
X011235Y016128D02*
X011542Y016128D01*
X011496Y016039D02*
X011496Y016346D01*
X011542Y016358D02*
X011542Y015898D01*
X011496Y016039D02*
X011957Y016039D01*
X011957Y016346D01*
X011849Y016358D02*
X011849Y015898D01*
X011957Y015886D02*
X011957Y015579D01*
X011496Y015579D01*
X011696Y015898D02*
X012003Y015898D01*
X012233Y015874D02*
X012233Y016031D01*
X012508Y016031D02*
X012508Y015874D01*
X012640Y016483D02*
X012640Y016713D01*
X012717Y016790D01*
X012870Y016790D01*
X012947Y016713D01*
X012947Y016483D01*
X012947Y016636D02*
X013100Y016790D01*
X013100Y016943D02*
X012793Y017250D01*
X012717Y017250D01*
X012640Y017173D01*
X012640Y017020D01*
X012717Y016943D01*
X012784Y017080D02*
X013244Y017080D01*
X013244Y017387D01*
X013244Y017541D02*
X013244Y017848D01*
X013244Y018001D02*
X013244Y018231D01*
X013167Y018308D01*
X012860Y018308D01*
X012784Y018231D01*
X012784Y018001D01*
X013244Y018001D01*
X013014Y017694D02*
X013014Y017541D01*
X012784Y017541D02*
X013244Y017541D01*
X013100Y017250D02*
X013100Y016943D01*
X013100Y016483D02*
X012640Y016483D01*
X011957Y016499D02*
X011957Y016730D01*
X011880Y016806D01*
X011573Y016806D01*
X011496Y016730D01*
X011496Y016499D01*
X011957Y016499D01*
X011849Y016358D02*
X011696Y016204D01*
X011726Y016193D02*
X011726Y016039D01*
X011132Y016483D02*
X011132Y016790D01*
X011132Y016636D02*
X010671Y016636D01*
X010825Y016483D01*
X010748Y016943D02*
X010671Y017020D01*
X010671Y017173D01*
X010748Y017250D01*
X011055Y016943D01*
X011132Y017020D01*
X011132Y017173D01*
X011055Y017250D01*
X010748Y017250D01*
X010815Y017080D02*
X011276Y017080D01*
X011276Y017387D01*
X011276Y017541D02*
X010815Y017541D01*
X010815Y017848D01*
X010815Y018001D02*
X010815Y018231D01*
X010892Y018308D01*
X011199Y018308D01*
X011276Y018231D01*
X011276Y018001D01*
X010815Y018001D01*
X011045Y017694D02*
X011045Y017541D01*
X011276Y017541D02*
X011276Y017848D01*
X011496Y017650D02*
X011496Y017497D01*
X011573Y017420D01*
X011880Y017420D01*
X011957Y017497D01*
X011957Y017650D01*
X011880Y017727D01*
X011726Y017727D01*
X011726Y017574D01*
X011573Y017727D02*
X011496Y017650D01*
X012033Y017881D02*
X012033Y018188D01*
X012100Y018281D02*
X011640Y018281D01*
X011640Y018512D01*
X011717Y018588D01*
X011870Y018588D01*
X011947Y018512D01*
X011947Y018281D01*
X011957Y018341D02*
X011650Y018648D01*
X011573Y018648D01*
X011496Y018571D01*
X011496Y018418D01*
X011573Y018341D01*
X011352Y018461D02*
X011352Y018768D01*
X011276Y018922D02*
X011122Y019075D01*
X011276Y019229D01*
X010815Y019229D01*
X010815Y018922D02*
X011276Y018922D01*
X011640Y018895D02*
X012100Y018895D01*
X012100Y018742D02*
X012100Y019049D01*
X011793Y018742D02*
X011640Y018895D01*
X011957Y018648D02*
X011957Y018341D01*
X011947Y018435D02*
X012100Y018588D01*
X012784Y018999D02*
X012860Y018922D01*
X013167Y018922D01*
X013244Y018999D01*
X013244Y019152D01*
X013167Y019229D01*
X013014Y019229D01*
X013014Y019075D01*
X012860Y019229D02*
X012784Y019152D01*
X012784Y018999D01*
X013321Y018768D02*
X013321Y018461D01*
X012784Y017848D02*
X012784Y017541D01*
X012033Y017267D02*
X012033Y016960D01*
X011055Y016943D02*
X010748Y016943D01*
X010065Y016960D02*
X010065Y017267D01*
X009988Y017420D02*
X009835Y017574D01*
X009988Y017727D01*
X009528Y017727D01*
X010065Y017881D02*
X010065Y018188D01*
X010132Y018281D02*
X009671Y018281D01*
X009671Y018512D01*
X009748Y018588D01*
X009902Y018588D01*
X009978Y018512D01*
X009978Y018281D01*
X009988Y018341D02*
X009681Y018648D01*
X009604Y018648D01*
X009528Y018571D01*
X009528Y018418D01*
X009604Y018341D01*
X009988Y018341D02*
X009988Y018648D01*
X010055Y018742D02*
X010132Y018819D01*
X010132Y018972D01*
X010055Y019049D01*
X009748Y019049D01*
X009671Y018972D01*
X009671Y018819D01*
X009748Y018742D01*
X009825Y018742D01*
X009902Y018819D01*
X009902Y019049D01*
X010132Y018588D02*
X009978Y018435D01*
X009988Y017420D02*
X009528Y017420D01*
X009528Y016346D02*
X009528Y016039D01*
X011352Y019382D02*
X011352Y019689D01*
X011276Y019843D02*
X011276Y020150D01*
X011276Y019996D02*
X010815Y019996D01*
X010969Y019843D01*
X010540Y019811D02*
X010540Y019968D01*
X010264Y019968D02*
X010264Y019811D01*
X012233Y019811D02*
X012233Y019968D01*
X012508Y019968D02*
X012508Y019811D01*
X012784Y019996D02*
X013244Y019996D01*
X013244Y019843D02*
X013244Y020150D01*
X012937Y019843D02*
X012784Y019996D01*
X013321Y019689D02*
X013321Y019382D01*
X009988Y010697D02*
X009528Y010697D01*
X009758Y010467D01*
X009758Y010774D01*
X010065Y010314D02*
X010065Y010007D01*
X009988Y009853D02*
X009528Y009853D01*
X009528Y009546D02*
X009988Y009546D01*
X009835Y009700D01*
X009988Y009853D01*
X010065Y009393D02*
X010065Y009086D01*
X010298Y008793D02*
X010145Y008640D01*
X011726Y008319D02*
X011726Y008165D01*
X011957Y008012D02*
X011957Y007705D01*
X011496Y007705D01*
X012233Y008000D02*
X012233Y008157D01*
X012508Y008157D02*
X012508Y008000D01*
D13*
X012257Y008029D03*
X010289Y008029D03*
X010515Y004191D03*
X012484Y004191D03*
X012257Y011966D03*
X010289Y011966D03*
X010289Y015903D03*
X012257Y015903D03*
X012484Y019939D03*
X010515Y019939D03*
D14*
X011136Y011637D02*
X011636Y011637D01*
X011886Y011387D01*
X011886Y010887D01*
X011636Y010637D01*
X011886Y010387D01*
X011886Y009887D01*
X011636Y009637D01*
X011136Y009637D01*
X010886Y009887D01*
X010886Y010387D01*
X011136Y010637D01*
X010886Y010887D01*
X010886Y011387D01*
X011136Y011637D01*
X011136Y010637D02*
X011636Y010637D01*
X011611Y007623D02*
X011111Y007623D01*
X010861Y007373D01*
X010861Y006873D01*
X011111Y006623D01*
X011611Y006623D01*
X011861Y006873D01*
X011861Y007373D01*
X011611Y007623D01*
X011611Y006623D02*
X011861Y006373D01*
X011861Y005873D01*
X011611Y005623D01*
X011861Y005373D01*
X011861Y004873D01*
X011611Y004623D01*
X011111Y004623D01*
X010861Y004873D01*
X010861Y005373D01*
X011111Y005623D01*
X010861Y005873D01*
X010861Y006373D01*
X011111Y006623D01*
X011111Y005623D02*
X011611Y005623D01*
D15*
X010616Y005764D02*
X010166Y005764D01*
X010391Y005539D01*
X010391Y005839D01*
X010391Y005378D02*
X010466Y005303D01*
X010466Y005078D01*
X010616Y005078D02*
X010166Y005078D01*
X010166Y005303D01*
X010241Y005378D01*
X010391Y005378D01*
X010166Y004918D02*
X010166Y004768D01*
X010166Y004843D02*
X010541Y004843D01*
X010616Y004768D01*
X010616Y004693D01*
X010541Y004618D01*
X010566Y009632D02*
X010641Y009707D01*
X010641Y009783D01*
X010566Y009858D01*
X010191Y009858D01*
X010191Y009783D02*
X010191Y009933D01*
X010191Y010093D02*
X010191Y010318D01*
X010266Y010393D01*
X010416Y010393D01*
X010491Y010318D01*
X010491Y010093D01*
X010641Y010093D02*
X010191Y010093D01*
X010266Y010553D02*
X010191Y010628D01*
X010191Y010778D01*
X010266Y010853D01*
X010341Y010853D01*
X010641Y010553D01*
X010641Y010853D01*
D16*
X010822Y013787D02*
X011950Y013787D01*
X011950Y014053D01*
X011545Y014006D02*
X011121Y014006D01*
X011121Y014007D02*
X011106Y014009D01*
X011092Y014014D01*
X011080Y014021D01*
X011069Y014032D01*
X011062Y014044D01*
X011057Y014058D01*
X011055Y014073D01*
X011057Y014088D01*
X011062Y014102D01*
X011069Y014114D01*
X011080Y014125D01*
X011092Y014132D01*
X011106Y014137D01*
X011121Y014139D01*
X011466Y014139D01*
X011481Y014141D01*
X011495Y014146D01*
X011507Y014153D01*
X011518Y014164D01*
X011525Y014176D01*
X011530Y014190D01*
X011532Y014205D01*
X011530Y014220D01*
X011525Y014234D01*
X011518Y014246D01*
X011507Y014257D01*
X011495Y014264D01*
X011481Y014269D01*
X011466Y014271D01*
X011307Y014271D01*
X011307Y014272D02*
X011292Y014274D01*
X011278Y014279D01*
X011266Y014286D01*
X011255Y014297D01*
X011248Y014309D01*
X011243Y014323D01*
X011241Y014338D01*
X011243Y014353D01*
X011248Y014367D01*
X011255Y014379D01*
X011266Y014390D01*
X011278Y014397D01*
X011292Y014402D01*
X011307Y014404D01*
X011466Y014404D01*
X011481Y014406D01*
X011495Y014411D01*
X011507Y014418D01*
X011518Y014429D01*
X011525Y014441D01*
X011530Y014455D01*
X011532Y014470D01*
X011530Y014485D01*
X011525Y014499D01*
X011518Y014511D01*
X011507Y014522D01*
X011495Y014529D01*
X011481Y014534D01*
X011466Y014536D01*
X011466Y014537D02*
X011333Y014537D01*
X011318Y014539D01*
X011304Y014544D01*
X011292Y014551D01*
X011281Y014562D01*
X011274Y014574D01*
X011269Y014588D01*
X011267Y014603D01*
X011269Y014618D01*
X011274Y014632D01*
X011281Y014644D01*
X011292Y014655D01*
X011304Y014662D01*
X011318Y014667D01*
X011333Y014669D01*
X011651Y014669D01*
X011651Y014670D02*
X011666Y014672D01*
X011680Y014677D01*
X011692Y014684D01*
X011703Y014695D01*
X011710Y014707D01*
X011715Y014721D01*
X011717Y014736D01*
X011715Y014751D01*
X011710Y014765D01*
X011703Y014777D01*
X011692Y014788D01*
X011680Y014795D01*
X011666Y014800D01*
X011651Y014802D01*
X011147Y014802D01*
X011128Y014804D01*
X011109Y014809D01*
X011091Y014817D01*
X011075Y014829D01*
X011062Y014843D01*
X011051Y014859D01*
X011043Y014877D01*
X011039Y014896D01*
X011038Y014916D01*
X011041Y014935D01*
X010822Y014968D02*
X010822Y014702D01*
X010822Y014968D02*
X011950Y014968D01*
X011950Y014702D01*
X010382Y014378D02*
X010384Y014441D01*
X010390Y014504D01*
X010400Y014566D01*
X010414Y014628D01*
X010431Y014688D01*
X010453Y014748D01*
X010478Y014805D01*
X010506Y014862D01*
X010538Y014916D01*
X010574Y014968D01*
X010612Y015018D01*
X010654Y015065D01*
X010699Y015110D01*
X010746Y015152D01*
X010796Y015190D01*
X010848Y015226D01*
X010902Y015258D01*
X010959Y015286D01*
X011016Y015311D01*
X011076Y015333D01*
X011136Y015350D01*
X011198Y015364D01*
X011260Y015374D01*
X011323Y015380D01*
X011386Y015382D01*
X011449Y015380D01*
X011512Y015374D01*
X011574Y015364D01*
X011636Y015350D01*
X011696Y015333D01*
X011756Y015311D01*
X011813Y015286D01*
X011870Y015258D01*
X011924Y015226D01*
X011976Y015190D01*
X012026Y015152D01*
X012073Y015110D01*
X012118Y015065D01*
X012160Y015018D01*
X012198Y014968D01*
X012234Y014916D01*
X012266Y014862D01*
X012294Y014805D01*
X012319Y014748D01*
X012341Y014688D01*
X012358Y014628D01*
X012372Y014566D01*
X012382Y014504D01*
X012388Y014441D01*
X012390Y014378D01*
X012388Y014315D01*
X012382Y014252D01*
X012372Y014190D01*
X012358Y014128D01*
X012341Y014068D01*
X012319Y014008D01*
X012294Y013951D01*
X012266Y013894D01*
X012234Y013840D01*
X012198Y013788D01*
X012160Y013738D01*
X012118Y013691D01*
X012073Y013646D01*
X012026Y013604D01*
X011976Y013566D01*
X011924Y013530D01*
X011870Y013498D01*
X011813Y013470D01*
X011756Y013445D01*
X011696Y013423D01*
X011636Y013406D01*
X011574Y013392D01*
X011512Y013382D01*
X011449Y013376D01*
X011386Y013374D01*
X011323Y013376D01*
X011260Y013382D01*
X011198Y013392D01*
X011136Y013406D01*
X011076Y013423D01*
X011016Y013445D01*
X010959Y013470D01*
X010902Y013498D01*
X010848Y013530D01*
X010796Y013566D01*
X010746Y013604D01*
X010699Y013646D01*
X010654Y013691D01*
X010612Y013738D01*
X010574Y013788D01*
X010538Y013840D01*
X010506Y013894D01*
X010478Y013951D01*
X010453Y014008D01*
X010431Y014068D01*
X010414Y014128D01*
X010400Y014190D01*
X010390Y014252D01*
X010384Y014315D01*
X010382Y014378D01*
X010822Y014053D02*
X010822Y013787D01*
X011545Y014007D02*
X011571Y014005D01*
X011597Y013999D01*
X011622Y013990D01*
X011646Y013977D01*
X011667Y013962D01*
X011686Y013943D01*
X011701Y013922D01*
X011714Y013898D01*
X011723Y013873D01*
X011729Y013847D01*
X011731Y013821D01*
X010166Y014378D02*
X010168Y014448D01*
X010174Y014517D01*
X010184Y014586D01*
X010198Y014654D01*
X010215Y014722D01*
X010237Y014788D01*
X010262Y014853D01*
X010291Y014916D01*
X010324Y014978D01*
X010360Y015038D01*
X010399Y015095D01*
X010442Y015150D01*
X010487Y015203D01*
X010536Y015253D01*
X010587Y015300D01*
X010641Y015344D01*
X010697Y015385D01*
X010756Y015423D01*
X010817Y015457D01*
X010879Y015488D01*
X010943Y015515D01*
X011009Y015538D01*
X011076Y015558D01*
X011144Y015574D01*
X011212Y015586D01*
X011282Y015594D01*
X011351Y015598D01*
X011421Y015598D01*
X011490Y015594D01*
X011560Y015586D01*
X011628Y015574D01*
X011696Y015558D01*
X011763Y015538D01*
X011829Y015515D01*
X011893Y015488D01*
X011955Y015457D01*
X012016Y015423D01*
X012075Y015385D01*
X012131Y015344D01*
X012185Y015300D01*
X012236Y015253D01*
X012285Y015203D01*
X012330Y015150D01*
X012373Y015095D01*
X012412Y015038D01*
X012448Y014978D01*
X012481Y014916D01*
X012510Y014853D01*
X012535Y014788D01*
X012557Y014722D01*
X012574Y014654D01*
X012588Y014586D01*
X012598Y014517D01*
X012604Y014448D01*
X012606Y014378D01*
X012604Y014308D01*
X012598Y014239D01*
X012588Y014170D01*
X012574Y014102D01*
X012557Y014034D01*
X012535Y013968D01*
X012510Y013903D01*
X012481Y013840D01*
X012448Y013778D01*
X012412Y013718D01*
X012373Y013661D01*
X012330Y013606D01*
X012285Y013553D01*
X012236Y013503D01*
X012185Y013456D01*
X012131Y013412D01*
X012075Y013371D01*
X012016Y013333D01*
X011955Y013299D01*
X011893Y013268D01*
X011829Y013241D01*
X011763Y013218D01*
X011696Y013198D01*
X011628Y013182D01*
X011560Y013170D01*
X011490Y013162D01*
X011421Y013158D01*
X011351Y013158D01*
X011282Y013162D01*
X011212Y013170D01*
X011144Y013182D01*
X011076Y013198D01*
X011009Y013218D01*
X010943Y013241D01*
X010879Y013268D01*
X010817Y013299D01*
X010756Y013333D01*
X010697Y013371D01*
X010641Y013412D01*
X010587Y013456D01*
X010536Y013503D01*
X010487Y013553D01*
X010442Y013606D01*
X010399Y013661D01*
X010360Y013718D01*
X010324Y013778D01*
X010291Y013840D01*
X010262Y013903D01*
X010237Y013968D01*
X010215Y014034D01*
X010198Y014102D01*
X010184Y014170D01*
X010174Y014239D01*
X010168Y014308D01*
X010166Y014378D01*
M02*
