G75*
%MOIN*%
%OFA0B0*%
%FSLAX25Y25*%
%IPPOS*%
%LPD*%
%AMOC8*
5,1,8,0,0,1.08239X$1,22.5*
%
%ADD10C,0.08274*%
%ADD11C,0.06400*%
%ADD12C,0.05912*%
D10*
X0068185Y0031571D03*
X0068185Y0189051D03*
D11*
X0071185Y0111374D02*
X0065185Y0111374D01*
X0065185Y0101374D02*
X0071185Y0101374D01*
X0104555Y0101374D02*
X0110555Y0101374D01*
X0110555Y0111374D02*
X0104555Y0111374D01*
X0143925Y0111374D02*
X0149925Y0111374D01*
X0149925Y0101374D02*
X0143925Y0101374D01*
X0183295Y0101374D02*
X0189295Y0101374D01*
X0189295Y0111374D02*
X0183295Y0111374D01*
X0222665Y0111374D02*
X0228665Y0111374D01*
X0228665Y0101374D02*
X0222665Y0101374D01*
X0222417Y0071228D02*
X0228417Y0071228D01*
X0228417Y0061228D02*
X0222417Y0061228D01*
X0222417Y0051228D02*
X0228417Y0051228D01*
X0189047Y0051228D02*
X0183047Y0051228D01*
X0183047Y0061228D02*
X0189047Y0061228D01*
X0189047Y0071228D02*
X0183047Y0071228D01*
X0149677Y0071228D02*
X0143677Y0071228D01*
X0143677Y0061228D02*
X0149677Y0061228D01*
X0149677Y0051228D02*
X0143677Y0051228D01*
X0110307Y0051228D02*
X0104307Y0051228D01*
X0104307Y0061228D02*
X0110307Y0061228D01*
X0110307Y0071228D02*
X0104307Y0071228D01*
X0070937Y0071228D02*
X0064937Y0071228D01*
X0064937Y0061228D02*
X0070937Y0061228D01*
X0070937Y0051228D02*
X0064937Y0051228D01*
D12*
X0061492Y0143776D03*
X0074878Y0143776D03*
X0100862Y0143776D03*
X0114248Y0143776D03*
X0140232Y0143776D03*
X0153618Y0143776D03*
X0179602Y0143776D03*
X0192988Y0143776D03*
X0218972Y0143776D03*
X0232358Y0143776D03*
M02*
